<?xml version="1.0" encoding="UTF-8" standalone="no"?>
<!DOCTYPE svg PUBLIC "-//W3C//DTD SVG 1.1//EN"
 "http://www.w3.org/Graphics/SVG/1.1/DTD/svg11.dtd">
<!-- Generated by graphviz version 9.0.0 (20230911.1827)
 -->
<!-- Title: title Pages: 1 -->
<svg width="298pt" height="388pt"
 viewBox="0.00 0.00 298.00 387.75" xmlns="http://www.w3.org/2000/svg" xmlns:xlink="http://www.w3.org/1999/xlink">
<g id="graph0" class="graph" transform="scale(1 1) rotate(0) translate(4 383.75)">
<title>title</title>
<polygon fill="white" stroke="none" points="-4,4 -4,-383.75 294,-383.75 294,4 -4,4"/>
<g id="clust1" class="cluster">
<title>clusterurn:uuid:5ed434e7&#45;71bb&#45;41b5&#45;914e&#45;49c8320333e3</title>
<g id="a_clust1"><a xlink:href="urn:uuid:5ed434e7-71bb-41b5-914e-49c8320333e3" xlink:title="5ed434e7&#45;71bb&#45;41b5&#45;914e&#45;49c8320333e3">
<polygon fill="none" stroke="black" points="8,-8 8,-371.75 282,-371.75 282,-8 8,-8"/>
<text text-anchor="middle" x="145" y="-14.45" font-family="Times New Roman,serif" font-size="14.00">5ed434e7&#45;71bb&#45;41b5&#45;914e&#45;49c8320333e3</text>
</a>
</g>
</g>
<!-- http://commonprovenancemodel.org/ns/cpm/main_act -->
<!-- PROV_ACTIVITY cpm:main_act -->
<g id="node1" class="node">
<title>http://commonprovenancemodel.org/ns/cpm/main_act</title>
<g id="a_node1"><a xlink:href="http://commonprovenancemodel.org/ns/cpm/main_act" xlink:title="main_act">
<polygon fill="#9fb1fc" stroke="#0000ff" points="114.12,-219.75 47.88,-219.75 47.88,-183.75 114.12,-183.75 114.12,-219.75"/>
<text text-anchor="middle" x="81" y="-196.32" font-family="Times New Roman,serif" font-size="14.00">main_act</text>
</a>
</g>
</g>
<!-- http://commonprovenancemodel.org/ns/cpm/back_conn -->
<!-- PROV_ENTITY cpm:back_conn -->
<g id="node3" class="node">
<title>http://commonprovenancemodel.org/ns/cpm/back_conn</title>
<g id="a_node3"><a xlink:href="http://commonprovenancemodel.org/ns/cpm/back_conn" xlink:title="back_conn">
<ellipse fill="#fffc87" stroke="#808080" cx="200" cy="-273.75" rx="52.06" ry="18"/>
<text text-anchor="middle" x="200" y="-268.32" font-family="Times New Roman,serif" font-size="14.00">back_conn</text>
</a>
</g>
</g>
<!-- http://commonprovenancemodel.org/ns/cpm/main_act&#45;&gt;http://commonprovenancemodel.org/ns/cpm/back_conn -->
<!-- PROV_USAGE _:_ -->
<g id="edge6" class="edge">
<title>http://commonprovenancemodel.org/ns/cpm/main_act&#45;&gt;http://commonprovenancemodel.org/ns/cpm/back_conn</title>
<path fill="none" stroke="black" d="M110.72,-220.23C127.07,-229.85 147.45,-241.84 164.61,-251.93"/>
<polygon fill="black" stroke="black" points="162.59,-254.8 172.98,-256.86 166.14,-248.77 162.59,-254.8"/>
<text text-anchor="middle" x="123.77" y="-210.49" font-family="Times New Roman,serif" font-size="8.00">use</text>
</g>
<!-- &#45;attrs0 -->
<g id="node2" class="node">
<title>&#45;attrs0</title>
<polygon fill="none" stroke="gray" points="268.38,-147.75 161.62,-147.75 161.62,-111.75 274.38,-111.75 274.38,-141.75 268.38,-147.75"/>
<polyline fill="none" stroke="gray" points="268.38,-147.75 268.38,-141.75"/>
<polyline fill="none" stroke="gray" points="274.38,-141.75 268.38,-141.75"/>
<text text-anchor="start" x="171.62" y="-125.88" font-family="Times New Roman,serif" font-size="10.00">type:</text>
<text text-anchor="start" x="193.88" y="-125.88" font-family="Times New Roman,serif" font-size="10.00">cpm:mainActivity</text>
</g>
<!-- &#45;attrs0&#45;&gt;http://commonprovenancemodel.org/ns/cpm/main_act -->
<!-- null _:_ -->
<g id="edge1" class="edge">
<title>&#45;attrs0&#45;&gt;http://commonprovenancemodel.org/ns/cpm/main_act</title>
<path fill="none" stroke="gray" stroke-dasharray="5,2" d="M183.78,-148.23C162.54,-159.09 135.38,-172.97 114.31,-183.73"/>
</g>
<!-- http://commonprovenancemodel.org/ns/cpm/sender_agent -->
<!-- PROV_AGENT cpm:sender_agent -->
<g id="node7" class="node">
<title>http://commonprovenancemodel.org/ns/cpm/sender_agent</title>
<g id="a_node7"><a xlink:href="http://commonprovenancemodel.org/ns/cpm/sender_agent" xlink:title="sender_agent">
<polygon fill="#fdb266" stroke="black" points="218.6,-351.31 145,-363.75 71.4,-351.31 71.46,-331.19 218.54,-331.19 218.6,-351.31"/>
<text text-anchor="middle" x="145" y="-340.32" font-family="Times New Roman,serif" font-size="14.00">sender_agent</text>
</a>
</g>
</g>
<!-- http://commonprovenancemodel.org/ns/cpm/back_conn&#45;&gt;http://commonprovenancemodel.org/ns/cpm/sender_agent -->
<!-- PROV_ATTRIBUTION _:_ -->
<g id="edge7" class="edge">
<title>http://commonprovenancemodel.org/ns/cpm/back_conn&#45;&gt;http://commonprovenancemodel.org/ns/cpm/sender_agent</title>
<path fill="none" stroke="black" d="M186.97,-291.34C179.74,-300.53 170.66,-312.09 162.79,-322.1"/>
<polygon fill="black" stroke="black" points="160.09,-319.88 156.66,-329.91 165.59,-324.21 160.09,-319.88"/>
<text text-anchor="middle" x="192.55" y="-302.91" font-family="Times New Roman,serif" font-size="8.00">att</text>
</g>
<!-- &#45;attrs1 -->
<g id="node4" class="node">
<title>&#45;attrs1</title>
<polygon fill="none" stroke="gray" points="267.62,-219.75 132.38,-219.75 132.38,-183.75 273.62,-183.75 273.62,-213.75 267.62,-219.75"/>
<polyline fill="none" stroke="gray" points="267.62,-219.75 267.62,-213.75"/>
<polyline fill="none" stroke="gray" points="273.62,-213.75 267.62,-213.75"/>
<text text-anchor="start" x="142.38" y="-197.88" font-family="Times New Roman,serif" font-size="10.00">type:</text>
<text text-anchor="start" x="164.62" y="-197.88" font-family="Times New Roman,serif" font-size="10.00">cpm:backwardConnector</text>
</g>
<!-- &#45;attrs1&#45;&gt;http://commonprovenancemodel.org/ns/cpm/back_conn -->
<!-- null _:_ -->
<g id="edge2" class="edge">
<title>&#45;attrs1&#45;&gt;http://commonprovenancemodel.org/ns/cpm/back_conn</title>
<path fill="none" stroke="gray" stroke-dasharray="5,2" d="M202.26,-220.05C201.79,-230.9 201.2,-244.83 200.73,-255.65"/>
</g>
<!-- http://commonprovenancemodel.org/ns/cpm/forward_conn -->
<!-- PROV_ENTITY cpm:forward_conn -->
<g id="node5" class="node">
<title>http://commonprovenancemodel.org/ns/cpm/forward_conn</title>
<g id="a_node5"><a xlink:href="http://commonprovenancemodel.org/ns/cpm/forward_conn" xlink:title="forward_conn">
<ellipse fill="#fffc87" stroke="#808080" cx="80" cy="-129.75" rx="63.54" ry="18"/>
<text text-anchor="middle" x="80" y="-124.33" font-family="Times New Roman,serif" font-size="14.00">forward_conn</text>
</a>
</g>
</g>
<!-- http://commonprovenancemodel.org/ns/cpm/forward_conn&#45;&gt;http://commonprovenancemodel.org/ns/cpm/main_act -->
<!-- PROV_GENERATION _:_ -->
<g id="edge5" class="edge">
<title>http://commonprovenancemodel.org/ns/cpm/forward_conn&#45;&gt;http://commonprovenancemodel.org/ns/cpm/main_act</title>
<path fill="none" stroke="black" d="M80.25,-148.05C80.35,-155.34 80.48,-164.02 80.59,-172.21"/>
<polygon fill="black" stroke="black" points="77.09,-172.18 80.73,-182.13 84.09,-172.08 77.09,-172.18"/>
<text text-anchor="middle" x="93.34" y="-153.02" font-family="Times New Roman,serif" font-size="8.00">gen</text>
</g>
<!-- http://commonprovenancemodel.org/ns/cpm/forward_conn&#45;&gt;http://commonprovenancemodel.org/ns/cpm/back_conn -->
<!-- PROV_DERIVATION _:_ -->
<g id="edge8" class="edge">
<title>http://commonprovenancemodel.org/ns/cpm/forward_conn&#45;&gt;http://commonprovenancemodel.org/ns/cpm/back_conn</title>
<path fill="none" stroke="black" d="M62.54,-147.2C44.87,-165.87 22.35,-196.73 39,-219.75 42.45,-224.51 104.34,-243.99 150.36,-257.95"/>
<polygon fill="black" stroke="black" points="149.34,-261.29 159.93,-260.84 151.37,-254.59 149.34,-261.29"/>
<text text-anchor="middle" x="67.11" y="-159.13" font-family="Times New Roman,serif" font-size="8.00">der</text>
</g>
<!-- &#45;attrs2 -->
<g id="node6" class="node">
<title>&#45;attrs2</title>
<polygon fill="none" stroke="gray" points="143.88,-75.75 16.12,-75.75 16.12,-39.75 149.88,-39.75 149.88,-69.75 143.88,-75.75"/>
<polyline fill="none" stroke="gray" points="143.88,-75.75 143.88,-69.75"/>
<polyline fill="none" stroke="gray" points="149.88,-69.75 143.88,-69.75"/>
<text text-anchor="start" x="26.12" y="-53.88" font-family="Times New Roman,serif" font-size="10.00">type:</text>
<text text-anchor="start" x="48.38" y="-53.88" font-family="Times New Roman,serif" font-size="10.00">cpm:forwardConnector</text>
</g>
<!-- &#45;attrs2&#45;&gt;http://commonprovenancemodel.org/ns/cpm/forward_conn -->
<!-- null _:_ -->
<g id="edge3" class="edge">
<title>&#45;attrs2&#45;&gt;http://commonprovenancemodel.org/ns/cpm/forward_conn</title>
<path fill="none" stroke="gray" stroke-dasharray="5,2" d="M82.26,-76.05C81.79,-86.9 81.2,-100.83 80.73,-111.65"/>
</g>
<!-- &#45;attrs3 -->
<g id="node8" class="node">
<title>&#45;attrs3</title>
<polygon fill="none" stroke="gray" points="123.75,-291.75 16.25,-291.75 16.25,-255.75 129.75,-255.75 129.75,-285.75 123.75,-291.75"/>
<polyline fill="none" stroke="gray" points="123.75,-291.75 123.75,-285.75"/>
<polyline fill="none" stroke="gray" points="129.75,-285.75 123.75,-285.75"/>
<text text-anchor="start" x="26.25" y="-269.88" font-family="Times New Roman,serif" font-size="10.00">type:</text>
<text text-anchor="start" x="48.5" y="-269.88" font-family="Times New Roman,serif" font-size="10.00">cpm:senderAgent</text>
</g>
<!-- &#45;attrs3&#45;&gt;http://commonprovenancemodel.org/ns/cpm/sender_agent -->
<!-- null _:_ -->
<g id="edge4" class="edge">
<title>&#45;attrs3&#45;&gt;http://commonprovenancemodel.org/ns/cpm/sender_agent</title>
<path fill="none" stroke="gray" stroke-dasharray="5,2" d="M90.8,-292.05C103.12,-304.04 119.31,-319.78 130.78,-330.93"/>
</g>
</g>
</svg>
