<?xml version="1.0" encoding="UTF-8" standalone="no"?>
<!DOCTYPE svg PUBLIC "-//W3C//DTD SVG 1.1//EN"
 "http://www.w3.org/Graphics/SVG/1.1/DTD/svg11.dtd">
<!-- Generated by graphviz version 9.0.0 (20230911.1827)
 -->
<!-- Title: title Pages: 1 -->
<svg width="353pt" height="244pt"
 viewBox="0.00 0.00 353.00 243.75" xmlns="http://www.w3.org/2000/svg" xmlns:xlink="http://www.w3.org/1999/xlink">
<g id="graph0" class="graph" transform="scale(1 1) rotate(0) translate(4 239.75)">
<title>title</title>
<polygon fill="white" stroke="none" points="-4,4 -4,-239.75 349,-239.75 349,4 -4,4"/>
<g id="clust1" class="cluster">
<title>clusterhttps://example.org/preprocEval.provn</title>
<g id="a_clust1"><a xlink:href="https://example.org/preprocEval.provn" xlink:title="preprocEval.provn">
<polygon fill="none" stroke="black" points="8,-8 8,-227.75 337,-227.75 337,-8 8,-8"/>
<text text-anchor="middle" x="172.5" y="-14.45" font-family="Times New Roman,serif" font-size="14.00">preprocEval.provn</text>
</a>
</g>
</g>
<!-- https://example.org/preprocessing -->
<!-- PROV_ACTIVITY def:preprocessing -->
<g id="node1" class="node">
<title>https://example.org/preprocessing</title>
<g id="a_node1"><a xlink:href="https://example.org/preprocessing" xlink:title="preprocessing">
<polygon fill="#9fb1fc" stroke="#0000ff" points="228.38,-219.75 133.62,-219.75 133.62,-183.75 228.38,-183.75 228.38,-219.75"/>
<text text-anchor="middle" x="181" y="-196.32" font-family="Times New Roman,serif" font-size="14.00">preprocessing</text>
</a>
</g>
</g>
<!-- &#45;attrs0 -->
<g id="node2" class="node">
<title>&#45;attrs0</title>
<polygon fill="none" stroke="gray" points="322.5,-147.75 199.5,-147.75 199.5,-111.75 328.5,-111.75 328.5,-141.75 322.5,-147.75"/>
<polyline fill="none" stroke="gray" points="322.5,-147.75 322.5,-141.75"/>
<polyline fill="none" stroke="gray" points="328.5,-141.75 322.5,-141.75"/>
<text text-anchor="start" x="209.5" y="-132.25" font-family="Times New Roman,serif" font-size="10.00">type:</text>
<text text-anchor="start" x="243.5" y="-132.25" font-family="Times New Roman,serif" font-size="10.00">cpm:mainActivity</text>
<text text-anchor="start" x="209.38" y="-119.25" font-family="Times New Roman,serif" font-size="10.00">hasPart:</text>
<text text-anchor="start" x="243.5" y="-119.25" font-family="Times New Roman,serif" font-size="10.00">def:tilesGeneration</text>
</g>
<!-- &#45;attrs0&#45;&gt;https://example.org/preprocessing -->
<!-- null _:_ -->
<g id="edge1" class="edge">
<title>&#45;attrs0&#45;&gt;https://example.org/preprocessing</title>
<path fill="none" stroke="gray" stroke-dasharray="5,2" d="M243.48,-148.05C230.71,-158.82 214.35,-172.63 201.57,-183.4"/>
</g>
<!-- https://example.org/evalTilesConnector -->
<!-- PROV_ENTITY def:evalTilesConnector -->
<g id="node3" class="node">
<title>https://example.org/evalTilesConnector</title>
<g id="a_node3"><a xlink:href="https://example.org/evalTilesConnector" xlink:title="evalTilesConnector">
<ellipse fill="#fffc87" stroke="#808080" cx="99" cy="-129.75" rx="82.5" ry="18"/>
<text text-anchor="middle" x="99" y="-124.33" font-family="Times New Roman,serif" font-size="14.00">evalTilesConnector</text>
</a>
</g>
</g>
<!-- https://example.org/evalTilesConnector&#45;&gt;https://example.org/preprocessing -->
<!-- PROV_GENERATION _:_ -->
<g id="edge3" class="edge">
<title>https://example.org/evalTilesConnector&#45;&gt;https://example.org/preprocessing</title>
<path fill="none" stroke="black" d="M118.85,-147.7C128.87,-156.25 141.22,-166.79 152.26,-176.21"/>
<polygon fill="black" stroke="black" points="149.73,-178.66 159.61,-182.49 154.28,-173.34 149.73,-178.66"/>
<text text-anchor="middle" x="132.99" y="-140.33" font-family="Times New Roman,serif" font-size="8.00">gen</text>
</g>
<!-- &#45;attrs1 -->
<g id="node4" class="node">
<title>&#45;attrs1</title>
<polygon fill="none" stroke="gray" points="193.5,-75.75 16.5,-75.75 16.5,-39.75 199.5,-39.75 199.5,-69.75 193.5,-75.75"/>
<polyline fill="none" stroke="gray" points="193.5,-75.75 193.5,-69.75"/>
<polyline fill="none" stroke="gray" points="199.5,-69.75 193.5,-69.75"/>
<text text-anchor="start" x="26.5" y="-60.25" font-family="Times New Roman,serif" font-size="10.00">type:</text>
<text text-anchor="start" x="98.25" y="-60.25" font-family="Times New Roman,serif" font-size="10.00">cpm:forwardConnector</text>
<text text-anchor="start" x="26.25" y="-47.25" font-family="Times New Roman,serif" font-size="10.00">receiverBundleId:</text>
<text text-anchor="start" x="98.5" y="-47.25" font-family="Times New Roman,serif" font-size="10.00">def:eval.provn</text>
</g>
<!-- &#45;attrs1&#45;&gt;https://example.org/evalTilesConnector -->
<!-- null _:_ -->
<g id="edge2" class="edge">
<title>&#45;attrs1&#45;&gt;https://example.org/evalTilesConnector</title>
<path fill="none" stroke="gray" stroke-dasharray="5,2" d="M105.78,-76.05C104.38,-86.9 102.59,-100.83 101.2,-111.65"/>
</g>
</g>
</svg>
