<?xml version="1.0" encoding="UTF-8" standalone="no"?>
<!DOCTYPE svg PUBLIC "-//W3C//DTD SVG 1.1//EN"
 "http://www.w3.org/Graphics/SVG/1.1/DTD/svg11.dtd">
<!-- Generated by graphviz version 9.0.0 (20230911.1827)
 -->
<!-- Title: null Pages: 1 -->
<svg width="506pt" height="188pt"
 viewBox="0.00 0.00 506.38 188.00" xmlns="http://www.w3.org/2000/svg" xmlns:xlink="http://www.w3.org/1999/xlink">
<g id="graph0" class="graph" transform="scale(1 1) rotate(0) translate(4 184)">
<title>null</title>
<polygon fill="white" stroke="none" points="-4,4 -4,-184 502.38,-184 502.38,4 -4,4"/>
<!-- http://www.provbook.orga&#45;little&#45;provenance&#45;goes&#45;a&#45;long&#45;way -->
<!-- PROV_ENTITY provbook:a&#45;little&#45;provenance&#45;goes&#45;a&#45;long&#45;way -->
<g id="node1" class="node">
<title>http://www.provbook.orga&#45;little&#45;provenance&#45;goes&#45;a&#45;long&#45;way</title>
<g id="a_node1"><a xlink:href="http://www.provbook.orga-little-provenance-goes-a-long-way" xlink:title="a&#45;little&#45;provenance&#45;goes&#45;a&#45;long&#45;way">
<ellipse fill="#fffc87" stroke="#808080" cx="245.5" cy="-90" rx="142.88" ry="18"/>
<text text-anchor="middle" x="245.5" y="-84.58" font-family="Times New Roman,serif" font-size="14.00">a&#45;little&#45;provenance&#45;goes&#45;a&#45;long&#45;way</text>
</a>
</g>
</g>
<!-- http://www.cs.rpi.edu/~hendler/LittleSemanticsWeb.html -->
<!-- PROV_ENTITY jim:LittleSemanticsWeb.html -->
<g id="node3" class="node">
<title>http://www.cs.rpi.edu/~hendler/LittleSemanticsWeb.html</title>
<g id="a_node3"><a xlink:href="http://www.cs.rpi.edu/~hendler/LittleSemanticsWeb.html" xlink:title="LittleSemanticsWeb.html">
<ellipse fill="#fffc87" stroke="#808080" cx="245.5" cy="-162" rx="103.46" ry="18"/>
<text text-anchor="middle" x="245.5" y="-156.57" font-family="Times New Roman,serif" font-size="14.00">LittleSemanticsWeb.html</text>
</a>
</g>
</g>
<!-- http://www.provbook.orga&#45;little&#45;provenance&#45;goes&#45;a&#45;long&#45;way&#45;&gt;http://www.cs.rpi.edu/~hendler/LittleSemanticsWeb.html -->
<!-- PROV_DERIVATION _:_ -->
<g id="edge6" class="edge">
<title>http://www.provbook.orga&#45;little&#45;provenance&#45;goes&#45;a&#45;long&#45;way&#45;&gt;http://www.cs.rpi.edu/~hendler/LittleSemanticsWeb.html</title>
<path fill="none" stroke="black" d="M245.5,-108.3C245.5,-115.59 245.5,-124.27 245.5,-132.46"/>
<polygon fill="black" stroke="black" points="242,-132.38 245.5,-142.38 249,-132.38 242,-132.38"/>
<text text-anchor="middle" x="258.49" y="-113.45" font-family="Times New Roman,serif" font-size="8.00">der</text>
</g>
<!-- http://www.provbook.orgPaul -->
<!-- PROV_AGENT provbook:Paul -->
<g id="node4" class="node">
<title>http://www.provbook.orgPaul</title>
<g id="a_node4"><a xlink:href="http://www.provbook.orgPaul" xlink:title="Paul">
<polygon fill="#fdb266" stroke="black" points="100.4,-167.56 67.5,-180 34.6,-167.56 34.64,-147.44 100.36,-147.44 100.4,-167.56"/>
<text text-anchor="middle" x="67.5" y="-156.57" font-family="Times New Roman,serif" font-size="14.00">Paul</text>
</a>
</g>
</g>
<!-- http://www.provbook.orga&#45;little&#45;provenance&#45;goes&#45;a&#45;long&#45;way&#45;&gt;http://www.provbook.orgPaul -->
<!-- PROV_ATTRIBUTION _:_ -->
<g id="edge4" class="edge">
<title>http://www.provbook.orga&#45;little&#45;provenance&#45;goes&#45;a&#45;long&#45;way&#45;&gt;http://www.provbook.orgPaul</title>
<path fill="none" stroke="black" d="M203.32,-107.59C175.63,-118.48 139.51,-132.68 111.47,-143.71"/>
<polygon fill="black" stroke="black" points="110.21,-140.44 102.18,-147.36 112.77,-146.96 110.21,-140.44"/>
<text text-anchor="middle" x="201.09" y="-120.07" font-family="Times New Roman,serif" font-size="8.00">att</text>
</g>
<!-- http://www.provbook.orgLuc -->
<!-- PROV_AGENT provbook:Luc -->
<g id="node6" class="node">
<title>http://www.provbook.orgLuc</title>
<g id="a_node6"><a xlink:href="http://www.provbook.orgLuc" xlink:title="Luc">
<polygon fill="#fdb266" stroke="black" points="456.55,-167.56 425.5,-180 394.45,-167.56 394.48,-147.44 456.52,-147.44 456.55,-167.56"/>
<text text-anchor="middle" x="425.5" y="-156.57" font-family="Times New Roman,serif" font-size="14.00">Luc</text>
</a>
</g>
</g>
<!-- http://www.provbook.orga&#45;little&#45;provenance&#45;goes&#45;a&#45;long&#45;way&#45;&gt;http://www.provbook.orgLuc -->
<!-- PROV_ATTRIBUTION _:_ -->
<g id="edge5" class="edge">
<title>http://www.provbook.orga&#45;little&#45;provenance&#45;goes&#45;a&#45;long&#45;way&#45;&gt;http://www.provbook.orgLuc</title>
<path fill="none" stroke="black" d="M288.16,-107.59C317.01,-118.81 354.94,-133.56 383.63,-144.72"/>
<polygon fill="black" stroke="black" points="382.13,-147.89 392.72,-148.25 384.67,-141.37 382.13,-147.89"/>
<text text-anchor="middle" x="299.86" y="-95.85" font-family="Times New Roman,serif" font-size="8.00">att</text>
</g>
<!-- &#45;attrs0 -->
<g id="node2" class="node">
<title>&#45;attrs0</title>
<polygon fill="none" stroke="gray" points="334.5,-36 150.5,-36 150.5,0 340.5,0 340.5,-30 334.5,-36"/>
<polyline fill="none" stroke="gray" points="334.5,-36 334.5,-30"/>
<polyline fill="none" stroke="gray" points="340.5,-30 334.5,-30"/>
<text text-anchor="start" x="160.5" y="-14.12" font-family="Times New Roman,serif" font-size="10.00">value:</text>
<text text-anchor="start" x="186.5" y="-14.12" font-family="Times New Roman,serif" font-size="10.00">A little provenance goes a long way</text>
</g>
<!-- &#45;attrs0&#45;&gt;http://www.provbook.orga&#45;little&#45;provenance&#45;goes&#45;a&#45;long&#45;way -->
<!-- null _:_ -->
<g id="edge1" class="edge">
<title>&#45;attrs0&#45;&gt;http://www.provbook.orga&#45;little&#45;provenance&#45;goes&#45;a&#45;long&#45;way</title>
<path fill="none" stroke="gray" stroke-dasharray="5,2" d="M245.5,-36.3C245.5,-47.15 245.5,-61.08 245.5,-71.9"/>
</g>
<!-- &#45;attrs1 -->
<g id="node5" class="node">
<title>&#45;attrs1</title>
<polygon fill="none" stroke="gray" points="79,-108 0,-108 0,-72 85,-72 85,-102 79,-108"/>
<polyline fill="none" stroke="gray" points="79,-108 79,-102"/>
<polyline fill="none" stroke="gray" points="85,-102 79,-102"/>
<text text-anchor="start" x="10" y="-86.12" font-family="Times New Roman,serif" font-size="10.00">label:</text>
<text text-anchor="start" x="33" y="-86.12" font-family="Times New Roman,serif" font-size="10.00">Paul Groth</text>
</g>
<!-- &#45;attrs1&#45;&gt;http://www.provbook.orgPaul -->
<!-- null _:_ -->
<g id="edge2" class="edge">
<title>&#45;attrs1&#45;&gt;http://www.provbook.orgPaul</title>
<path fill="none" stroke="gray" stroke-dasharray="5,2" d="M48.68,-108.3C52.96,-120.29 58.58,-136.03 62.56,-147.18"/>
</g>
<!-- &#45;attrs2 -->
<g id="node7" class="node">
<title>&#45;attrs2</title>
<polygon fill="none" stroke="gray" points="492.38,-108 406.62,-108 406.62,-72 498.38,-72 498.38,-102 492.38,-108"/>
<polyline fill="none" stroke="gray" points="492.38,-108 492.38,-102"/>
<polyline fill="none" stroke="gray" points="498.38,-102 492.38,-102"/>
<text text-anchor="start" x="416.62" y="-86.12" font-family="Times New Roman,serif" font-size="10.00">label:</text>
<text text-anchor="start" x="439.62" y="-86.12" font-family="Times New Roman,serif" font-size="10.00">Luc Moreau</text>
</g>
<!-- &#45;attrs2&#45;&gt;http://www.provbook.orgLuc -->
<!-- null _:_ -->
<g id="edge3" class="edge">
<title>&#45;attrs2&#45;&gt;http://www.provbook.orgLuc</title>
<path fill="none" stroke="gray" stroke-dasharray="5,2" d="M445.83,-108.3C441.2,-120.29 435.13,-136.03 430.83,-147.18"/>
</g>
</g>
</svg>
