<?xml version="1.0" encoding="UTF-8" standalone="no"?>
<!DOCTYPE svg PUBLIC "-//W3C//DTD SVG 1.1//EN"
 "http://www.w3.org/Graphics/SVG/1.1/DTD/svg11.dtd">
<!-- Generated by graphviz version 9.0.0 (20230911.1827)
 -->
<!-- Title: null Pages: 1 -->
<svg width="570pt" height="260pt"
 viewBox="0.00 0.00 569.82 260.00" xmlns="http://www.w3.org/2000/svg" xmlns:xlink="http://www.w3.org/1999/xlink">
<g id="graph0" class="graph" transform="scale(1 1) rotate(0) translate(4 256)">
<title>null</title>
<polygon fill="white" stroke="none" points="-4,4 -4,-256 565.82,-256 565.82,4 -4,4"/>
<!-- http://www.provbook.orga&#45;little&#45;provenance&#45;goes&#45;a&#45;long&#45;way -->
<!-- PROV_ENTITY provbook:a&#45;little&#45;provenance&#45;goes&#45;a&#45;long&#45;way -->
<g id="node1" class="node">
<title>http://www.provbook.orga&#45;little&#45;provenance&#45;goes&#45;a&#45;long&#45;way</title>
<g id="a_node1"><a xlink:href="http://www.provbook.orga-little-provenance-goes-a-long-way" xlink:title="a&#45;little&#45;provenance&#45;goes&#45;a&#45;long&#45;way">
<ellipse fill="#fffc87" stroke="#808080" cx="245.5" cy="-162" rx="142.88" ry="18"/>
<text text-anchor="middle" x="245.5" y="-156.57" font-family="Times New Roman,serif" font-size="14.00">a&#45;little&#45;provenance&#45;goes&#45;a&#45;long&#45;way</text>
</a>
</g>
</g>
<!-- http://www.cs.rpi.edu/~hendler/LittleSemanticsWeb.html -->
<!-- PROV_ENTITY jim:LittleSemanticsWeb.html -->
<g id="node3" class="node">
<title>http://www.cs.rpi.edu/~hendler/LittleSemanticsWeb.html</title>
<g id="a_node3"><a xlink:href="http://www.cs.rpi.edu/~hendler/LittleSemanticsWeb.html" xlink:title="LittleSemanticsWeb.html">
<ellipse fill="#fffc87" stroke="#808080" cx="245.5" cy="-234" rx="103.46" ry="18"/>
<text text-anchor="middle" x="245.5" y="-228.57" font-family="Times New Roman,serif" font-size="14.00">LittleSemanticsWeb.html</text>
</a>
</g>
</g>
<!-- http://www.provbook.orga&#45;little&#45;provenance&#45;goes&#45;a&#45;long&#45;way&#45;&gt;http://www.cs.rpi.edu/~hendler/LittleSemanticsWeb.html -->
<!-- PROV_DERIVATION _:_ -->
<g id="edge5" class="edge">
<title>http://www.provbook.orga&#45;little&#45;provenance&#45;goes&#45;a&#45;long&#45;way&#45;&gt;http://www.cs.rpi.edu/~hendler/LittleSemanticsWeb.html</title>
<path fill="none" stroke="black" d="M245.5,-180.3C245.5,-187.59 245.5,-196.27 245.5,-204.46"/>
<polygon fill="black" stroke="black" points="242,-204.38 245.5,-214.38 249,-204.38 242,-204.38"/>
<text text-anchor="middle" x="258.49" y="-185.45" font-family="Times New Roman,serif" font-size="8.00">der</text>
</g>
<!-- http://www.provbook.orgPaul -->
<!-- PROV_AGENT provbook:Paul -->
<g id="node6" class="node">
<title>http://www.provbook.orgPaul</title>
<g id="a_node6"><a xlink:href="http://www.provbook.orgPaul" xlink:title="Paul">
<polygon fill="#fdb266" stroke="black" points="100.4,-239.56 67.5,-252 34.6,-239.56 34.64,-219.44 100.36,-219.44 100.4,-239.56"/>
<text text-anchor="middle" x="67.5" y="-228.57" font-family="Times New Roman,serif" font-size="14.00">Paul</text>
</a>
</g>
</g>
<!-- http://www.provbook.orga&#45;little&#45;provenance&#45;goes&#45;a&#45;long&#45;way&#45;&gt;http://www.provbook.orgPaul -->
<!-- PROV_ATTRIBUTION _:_ -->
<g id="edge6" class="edge">
<title>http://www.provbook.orga&#45;little&#45;provenance&#45;goes&#45;a&#45;long&#45;way&#45;&gt;http://www.provbook.orgPaul</title>
<path fill="none" stroke="black" d="M203.32,-179.59C175.63,-190.48 139.51,-204.68 111.47,-215.71"/>
<polygon fill="black" stroke="black" points="110.21,-212.44 102.18,-219.36 112.77,-218.96 110.21,-212.44"/>
<text text-anchor="middle" x="201.09" y="-192.07" font-family="Times New Roman,serif" font-size="8.00">att</text>
</g>
<!-- http://www.provbook.orgLuc -->
<!-- PROV_AGENT provbook:Luc -->
<g id="node8" class="node">
<title>http://www.provbook.orgLuc</title>
<g id="a_node8"><a xlink:href="http://www.provbook.orgLuc" xlink:title="Luc">
<polygon fill="#fdb266" stroke="black" points="456.55,-239.56 425.5,-252 394.45,-239.56 394.48,-219.44 456.52,-219.44 456.55,-239.56"/>
<text text-anchor="middle" x="425.5" y="-228.57" font-family="Times New Roman,serif" font-size="14.00">Luc</text>
</a>
</g>
</g>
<!-- http://www.provbook.orga&#45;little&#45;provenance&#45;goes&#45;a&#45;long&#45;way&#45;&gt;http://www.provbook.orgLuc -->
<!-- PROV_ATTRIBUTION _:_ -->
<g id="edge7" class="edge">
<title>http://www.provbook.orga&#45;little&#45;provenance&#45;goes&#45;a&#45;long&#45;way&#45;&gt;http://www.provbook.orgLuc</title>
<path fill="none" stroke="black" d="M288.16,-179.59C317.01,-190.81 354.94,-205.56 383.63,-216.72"/>
<polygon fill="black" stroke="black" points="382.13,-219.89 392.72,-220.25 384.67,-213.37 382.13,-219.89"/>
<text text-anchor="middle" x="299.86" y="-167.85" font-family="Times New Roman,serif" font-size="8.00">att</text>
</g>
<!-- &#45;attrs0 -->
<g id="node2" class="node">
<title>&#45;attrs0</title>
<polygon fill="none" stroke="gray" points="191.5,-108 7.5,-108 7.5,-72 197.5,-72 197.5,-102 191.5,-108"/>
<polyline fill="none" stroke="gray" points="191.5,-108 191.5,-102"/>
<polyline fill="none" stroke="gray" points="197.5,-102 191.5,-102"/>
<text text-anchor="start" x="17.5" y="-86.12" font-family="Times New Roman,serif" font-size="10.00">value:</text>
<text text-anchor="start" x="43.5" y="-86.12" font-family="Times New Roman,serif" font-size="10.00">A little provenance goes a long way</text>
</g>
<!-- &#45;attrs0&#45;&gt;http://www.provbook.orga&#45;little&#45;provenance&#45;goes&#45;a&#45;long&#45;way -->
<!-- null _:_ -->
<g id="edge1" class="edge">
<title>&#45;attrs0&#45;&gt;http://www.provbook.orga&#45;little&#45;provenance&#45;goes&#45;a&#45;long&#45;way</title>
<path fill="none" stroke="gray" stroke-dasharray="5,2" d="M138.22,-108.48C160.55,-119.42 189.17,-133.42 211.22,-144.22"/>
</g>
<!-- http://www.provbook.orga&#45;little&#45;provenance&#45;goes&#45;a&#45;long&#45;fucking&#45;way -->
<!-- PROV_ENTITY provbook:a&#45;little&#45;provenance&#45;goes&#45;a&#45;long&#45;fucking&#45;way -->
<g id="node4" class="node">
<title>http://www.provbook.orga&#45;little&#45;provenance&#45;goes&#45;a&#45;long&#45;fucking&#45;way</title>
<g id="a_node4"><a xlink:href="http://www.provbook.orga-little-provenance-goes-a-long-fucking-way" xlink:title="a&#45;little&#45;provenance&#45;goes&#45;a&#45;long&#45;fucking&#45;way">
<ellipse fill="#fffc87" stroke="#808080" cx="388.5" cy="-90" rx="173.32" ry="18"/>
<text text-anchor="middle" x="388.5" y="-84.58" font-family="Times New Roman,serif" font-size="14.00">a&#45;little&#45;provenance&#45;goes&#45;a&#45;long&#45;fucking&#45;way</text>
</a>
</g>
</g>
<!-- http://www.provbook.orga&#45;little&#45;provenance&#45;goes&#45;a&#45;long&#45;fucking&#45;way&#45;&gt;http://www.provbook.orga&#45;little&#45;provenance&#45;goes&#45;a&#45;long&#45;way -->
<!-- PROV_SPECIALIZATION _:_ -->
<g id="edge8" class="edge">
<title>http://www.provbook.orga&#45;little&#45;provenance&#45;goes&#45;a&#45;long&#45;fucking&#45;way&#45;&gt;http://www.provbook.orga&#45;little&#45;provenance&#45;goes&#45;a&#45;long&#45;way</title>
<path fill="none" stroke="black" d="M353.88,-107.95C334.65,-117.36 310.51,-129.18 289.9,-139.26"/>
<polygon fill="black" stroke="black" points="288.6,-136.01 281.16,-143.55 291.68,-142.29 288.6,-136.01"/>
<text text-anchor="middle" x="352.86" y="-120.56" font-family="Times New Roman,serif" font-size="8.00">spe</text>
</g>
<!-- &#45;attrs1 -->
<g id="node5" class="node">
<title>&#45;attrs1</title>
<polygon fill="none" stroke="gray" points="493.62,-36 277.38,-36 277.38,0 499.62,0 499.62,-30 493.62,-36"/>
<polyline fill="none" stroke="gray" points="493.62,-36 493.62,-30"/>
<polyline fill="none" stroke="gray" points="499.62,-30 493.62,-30"/>
<text text-anchor="start" x="287.38" y="-14.12" font-family="Times New Roman,serif" font-size="10.00">value:</text>
<text text-anchor="start" x="313.38" y="-14.12" font-family="Times New Roman,serif" font-size="10.00">A little provenance goes a long fucking way</text>
</g>
<!-- &#45;attrs1&#45;&gt;http://www.provbook.orga&#45;little&#45;provenance&#45;goes&#45;a&#45;long&#45;fucking&#45;way -->
<!-- null _:_ -->
<g id="edge2" class="edge">
<title>&#45;attrs1&#45;&gt;http://www.provbook.orga&#45;little&#45;provenance&#45;goes&#45;a&#45;long&#45;fucking&#45;way</title>
<path fill="none" stroke="gray" stroke-dasharray="5,2" d="M388.5,-36.3C388.5,-47.15 388.5,-61.08 388.5,-71.9"/>
</g>
<!-- &#45;attrs2 -->
<g id="node7" class="node">
<title>&#45;attrs2</title>
<polygon fill="none" stroke="gray" points="79,-180 0,-180 0,-144 85,-144 85,-174 79,-180"/>
<polyline fill="none" stroke="gray" points="79,-180 79,-174"/>
<polyline fill="none" stroke="gray" points="85,-174 79,-174"/>
<text text-anchor="start" x="10" y="-158.12" font-family="Times New Roman,serif" font-size="10.00">label:</text>
<text text-anchor="start" x="33" y="-158.12" font-family="Times New Roman,serif" font-size="10.00">Paul Groth</text>
</g>
<!-- &#45;attrs2&#45;&gt;http://www.provbook.orgPaul -->
<!-- null _:_ -->
<g id="edge3" class="edge">
<title>&#45;attrs2&#45;&gt;http://www.provbook.orgPaul</title>
<path fill="none" stroke="gray" stroke-dasharray="5,2" d="M48.68,-180.3C52.96,-192.29 58.58,-208.03 62.56,-219.18"/>
</g>
<!-- &#45;attrs3 -->
<g id="node9" class="node">
<title>&#45;attrs3</title>
<polygon fill="none" stroke="gray" points="492.38,-180 406.62,-180 406.62,-144 498.38,-144 498.38,-174 492.38,-180"/>
<polyline fill="none" stroke="gray" points="492.38,-180 492.38,-174"/>
<polyline fill="none" stroke="gray" points="498.38,-174 492.38,-174"/>
<text text-anchor="start" x="416.62" y="-158.12" font-family="Times New Roman,serif" font-size="10.00">label:</text>
<text text-anchor="start" x="439.62" y="-158.12" font-family="Times New Roman,serif" font-size="10.00">Luc Moreau</text>
</g>
<!-- &#45;attrs3&#45;&gt;http://www.provbook.orgLuc -->
<!-- null _:_ -->
<g id="edge4" class="edge">
<title>&#45;attrs3&#45;&gt;http://www.provbook.orgLuc</title>
<path fill="none" stroke="gray" stroke-dasharray="5,2" d="M445.83,-180.3C441.2,-192.29 435.13,-208.03 430.83,-219.18"/>
</g>
</g>
</svg>
