<?xml version="1.0" encoding="UTF-8" standalone="no"?>
<!DOCTYPE svg PUBLIC "-//W3C//DTD SVG 1.1//EN"
 "http://www.w3.org/Graphics/SVG/1.1/DTD/svg11.dtd">
<!-- Generated by graphviz version 9.0.0 (20230911.1827)
 -->
<!-- Title: title Pages: 1 -->
<svg width="1618pt" height="505pt"
 viewBox="0.00 0.00 1618.00 504.75" xmlns="http://www.w3.org/2000/svg" xmlns:xlink="http://www.w3.org/1999/xlink">
<g id="graph0" class="graph" transform="scale(1 1) rotate(0) translate(4 500.75)">
<title>title</title>
<polygon fill="white" stroke="none" points="-4,4 -4,-500.75 1614,-500.75 1614,4 -4,4"/>
<g id="clust1" class="cluster">
<title>clusterhttp://10.16.48.121:42069/api/v1/organizations/ORG/graphs/preprocEval</title>
<g id="a_clust1"><a xlink:href="http://10.16.48.121:42069/api/v1/organizations/ORG/graphs/preprocEval" xlink:title="preprocEval">
<polygon fill="none" stroke="black" points="8,-8 8,-488.75 1602,-488.75 1602,-8 8,-8"/>
<text text-anchor="middle" x="805" y="-14.45" font-family="Times New Roman,serif" font-size="14.00">preprocEval</text>
</a>
</g>
</g>
<!-- https://example.org/tilesGeneration -->
<!-- PROV_ACTIVITY def:tilesGeneration -->
<g id="node1" class="node">
<title>https://example.org/tilesGeneration</title>
<g id="a_node1"><a xlink:href="https://example.org/tilesGeneration" xlink:title="tilesGeneration">
<polygon fill="#9fb1fc" stroke="#0000ff" points="684.25,-304.25 585.75,-304.25 585.75,-268.25 684.25,-268.25 684.25,-304.25"/>
<text text-anchor="middle" x="635" y="-280.82" font-family="Times New Roman,serif" font-size="14.00">tilesGeneration</text>
</a>
</g>
</g>
<!-- https://example.org/WSIDataEval -->
<!-- PROV_ENTITY def:WSIDataEval -->
<g id="node5" class="node">
<title>https://example.org/WSIDataEval</title>
<g id="a_node5"><a xlink:href="https://example.org/WSIDataEval" xlink:title="WSIDataEval">
<ellipse fill="#fffc87" stroke="#808080" cx="1041" cy="-384.25" rx="61.04" ry="18"/>
<text text-anchor="middle" x="1041" y="-378.82" font-family="Times New Roman,serif" font-size="14.00">WSIDataEval</text>
</a>
</g>
</g>
<!-- https://example.org/tilesGeneration&#45;&gt;https://example.org/WSIDataEval -->
<!-- PROV_USAGE _:_ -->
<g id="edge10" class="edge">
<title>https://example.org/tilesGeneration&#45;&gt;https://example.org/WSIDataEval</title>
<path fill="none" stroke="black" d="M666.41,-304.58C680.31,-311.55 697.09,-319.03 713,-323.75 824,-356.65 858.3,-333.21 971,-359.75 978.38,-361.49 986.08,-363.68 993.57,-366.01"/>
<polygon fill="black" stroke="black" points="992.28,-369.28 1002.88,-369.04 994.45,-362.62 992.28,-369.28"/>
<text text-anchor="middle" x="678.89" y="-293.91" font-family="Times New Roman,serif" font-size="8.00">use</text>
</g>
<!-- https://example.org/configEval -->
<!-- PROV_ENTITY def:configEval -->
<g id="node13" class="node">
<title>https://example.org/configEval</title>
<g id="a_node13"><a xlink:href="https://example.org/configEval" xlink:title="configEval">
<ellipse fill="#fffc87" stroke="#808080" cx="560" cy="-384.25" rx="50.07" ry="18"/>
<text text-anchor="middle" x="560" y="-378.82" font-family="Times New Roman,serif" font-size="14.00">configEval</text>
</a>
</g>
</g>
<!-- https://example.org/tilesGeneration&#45;&gt;https://example.org/configEval -->
<!-- PROV_USAGE _:_ -->
<g id="edge13" class="edge">
<title>https://example.org/tilesGeneration&#45;&gt;https://example.org/configEval</title>
<path fill="none" stroke="black" d="M621.59,-304.41C610,-319.25 593.09,-340.9 579.92,-357.76"/>
<polygon fill="black" stroke="black" points="577.37,-355.33 573.97,-365.36 582.89,-359.64 577.37,-355.33"/>
<text text-anchor="middle" x="627.21" y="-315.97" font-family="Times New Roman,serif" font-size="8.00">use</text>
</g>
<!-- &#45;attrs0 -->
<g id="node2" class="node">
<title>&#45;attrs0</title>
<polygon fill="none" stroke="gray" points="732.5,-212.75 531.5,-212.75 531.5,-150.75 738.5,-150.75 738.5,-206.75 732.5,-212.75"/>
<polyline fill="none" stroke="gray" points="732.5,-212.75 732.5,-206.75"/>
<polyline fill="none" stroke="gray" points="738.5,-206.75 732.5,-206.75"/>
<text text-anchor="start" x="541.5" y="-197.25" font-family="Times New Roman,serif" font-size="10.00">runID:</text>
<text text-anchor="start" x="582.38" y="-197.25" font-family="Times New Roman,serif" font-size="10.00">d76b2a494da447c39b64d93e89e106fa</text>
<text text-anchor="start" x="541.12" y="-184.25" font-family="Times New Roman,serif" font-size="10.00">startTime:</text>
<text text-anchor="start" x="582.5" y="-184.25" font-family="Times New Roman,serif" font-size="10.00">2024&#45;01&#45;30T16:16:01</text>
<text text-anchor="start" x="541.5" y="-171.25" font-family="Times New Roman,serif" font-size="10.00">userID:</text>
<text text-anchor="start" x="582.5" y="-171.25" font-family="Times New Roman,serif" font-size="10.00">jovyan</text>
<text text-anchor="start" x="541.5" y="-158.25" font-family="Times New Roman,serif" font-size="10.00">duration:</text>
<text text-anchor="start" x="582.5" y="-158.25" font-family="Times New Roman,serif" font-size="10.00">PT57M42S</text>
</g>
<!-- &#45;attrs0&#45;&gt;https://example.org/tilesGeneration -->
<!-- null _:_ -->
<g id="edge1" class="edge">
<title>&#45;attrs0&#45;&gt;https://example.org/tilesGeneration</title>
<path fill="none" stroke="gray" stroke-dasharray="5,2" d="M635,-213.23C635,-231.05 635,-252.9 635,-267.83"/>
</g>
<!-- https://example.org/preprocessing -->
<!-- PROV_ACTIVITY def:preprocessing -->
<g id="node3" class="node">
<title>https://example.org/preprocessing</title>
<g id="a_node3"><a xlink:href="https://example.org/preprocessing" xlink:title="preprocessing">
<polygon fill="#9fb1fc" stroke="#0000ff" points="1467.38,-402.25 1372.62,-402.25 1372.62,-366.25 1467.38,-366.25 1467.38,-402.25"/>
<text text-anchor="middle" x="1420" y="-378.82" font-family="Times New Roman,serif" font-size="14.00">preprocessing</text>
</a>
</g>
</g>
<!-- &#45;attrs1 -->
<g id="node4" class="node">
<title>&#45;attrs1</title>
<polygon fill="none" stroke="gray" points="1404,-310.75 1250,-310.75 1250,-261.75 1410,-261.75 1410,-304.75 1404,-310.75"/>
<polyline fill="none" stroke="gray" points="1404,-310.75 1404,-304.75"/>
<polyline fill="none" stroke="gray" points="1410,-304.75 1404,-304.75"/>
<text text-anchor="start" x="1260" y="-295.25" font-family="Times New Roman,serif" font-size="10.00">type:</text>
<text text-anchor="start" x="1310" y="-295.25" font-family="Times New Roman,serif" font-size="10.00">cpm:mainActivity</text>
<text text-anchor="start" x="1259.62" y="-282.25" font-family="Times New Roman,serif" font-size="10.00">metabundle:</text>
<text text-anchor="start" x="1310" y="-282.25" font-family="Times New Roman,serif" font-size="10.00">meta:preprocEvalMeta</text>
<text text-anchor="start" x="1260" y="-269.25" font-family="Times New Roman,serif" font-size="10.00">hasPart:</text>
<text text-anchor="start" x="1310" y="-269.25" font-family="Times New Roman,serif" font-size="10.00">def:tilesGeneration</text>
</g>
<!-- &#45;attrs1&#45;&gt;https://example.org/preprocessing -->
<!-- null _:_ -->
<g id="edge2" class="edge">
<title>&#45;attrs1&#45;&gt;https://example.org/preprocessing</title>
<path fill="none" stroke="gray" stroke-dasharray="5,2" d="M1352.25,-310.98C1368.18,-327.97 1389.27,-350.47 1403.66,-365.82"/>
</g>
<!-- &#45;attrs2 -->
<g id="node6" class="node">
<title>&#45;attrs2</title>
<polygon fill="none" stroke="gray" points="1206,-323.75 722,-323.75 722,-248.75 1212,-248.75 1212,-317.75 1206,-323.75"/>
<polyline fill="none" stroke="gray" points="1206,-323.75 1206,-317.75"/>
<polyline fill="none" stroke="gray" points="1212,-317.75 1206,-317.75"/>
<text text-anchor="start" x="732" y="-308.25" font-family="Times New Roman,serif" font-size="10.00">type:</text>
<text text-anchor="start" x="764" y="-308.25" font-family="Times New Roman,serif" font-size="10.00">repr:Dataset</text>
<text text-anchor="start" x="732" y="-295.25" font-family="Times New Roman,serif" font-size="10.00">data:</text>
<text text-anchor="start" x="763.62" y="-295.25" font-family="Times New Roman,serif" font-size="10.00">UEFSMRUGFeCyBBWyXFwVjiIVABWOIhUAFaYEFQARAACjBP//////////////////////////////////////////////////////...</text>
<text text-anchor="start" x="732" y="-282.25" font-family="Times New Roman,serif" font-size="10.00">runID:</text>
<text text-anchor="start" x="764" y="-282.25" font-family="Times New Roman,serif" font-size="10.00">d76b2a494da447c39b64d93e89e106fa</text>
<text text-anchor="start" x="732" y="-269.25" font-family="Times New Roman,serif" font-size="10.00">sha256:</text>
<text text-anchor="start" x="764" y="-269.25" font-family="Times New Roman,serif" font-size="10.00">1bcef9e5aa4bb9022af8eb7667041bbf683d46fdb1e36076312c1ddf61d24cff</text>
<text text-anchor="start" x="732" y="-256.25" font-family="Times New Roman,serif" font-size="10.00">path:</text>
<text text-anchor="start" x="764" y="-256.25" font-family="Times New Roman,serif" font-size="10.00">dataset/slides.parquet</text>
</g>
<!-- &#45;attrs2&#45;&gt;https://example.org/WSIDataEval -->
<!-- null _:_ -->
<g id="edge3" class="edge">
<title>&#45;attrs2&#45;&gt;https://example.org/WSIDataEval</title>
<path fill="none" stroke="gray" stroke-dasharray="5,2" d="M995.4,-324.09C1006.65,-338.69 1019.02,-354.74 1028.04,-366.43"/>
</g>
<!-- https://example.org/tilesEval -->
<!-- PROV_ENTITY def:tilesEval -->
<g id="node7" class="node">
<title>https://example.org/tilesEval</title>
<g id="a_node7"><a xlink:href="https://example.org/tilesEval" xlink:title="tilesEval">
<ellipse fill="#fffc87" stroke="#808080" cx="1015" cy="-181.75" rx="41.08" ry="18"/>
<text text-anchor="middle" x="1015" y="-176.32" font-family="Times New Roman,serif" font-size="14.00">tilesEval</text>
</a>
</g>
</g>
<!-- https://example.org/tilesEval&#45;&gt;https://example.org/tilesGeneration -->
<!-- PROV_GENERATION _:_ -->
<g id="edge12" class="edge">
<title>https://example.org/tilesEval&#45;&gt;https://example.org/tilesGeneration</title>
<path fill="none" stroke="black" d="M975.31,-186.89C914.13,-194.17 793.83,-212.11 698,-248.75 688.75,-252.29 679.26,-257.08 670.55,-262.02"/>
<polygon fill="black" stroke="black" points="668.86,-258.96 662.03,-267.06 672.42,-264.98 668.86,-258.96"/>
<text text-anchor="middle" x="969.48" y="-198.36" font-family="Times New Roman,serif" font-size="8.00">gen</text>
</g>
<!-- https://example.org/tilesEval&#45;&gt;https://example.org/WSIDataEval -->
<!-- PROV_DERIVATION _:_ -->
<g id="edge9" class="edge">
<title>https://example.org/tilesEval&#45;&gt;https://example.org/WSIDataEval</title>
<path fill="none" stroke="black" d="M1056.38,-182.63C1104.87,-184.99 1183.37,-197.18 1221,-248.75 1240.65,-275.68 1240.52,-296.73 1221,-323.75 1196.35,-357.86 1151.41,-372.74 1112.61,-379.09"/>
<polygon fill="black" stroke="black" points="1112.21,-375.61 1102.82,-380.51 1113.22,-382.54 1112.21,-375.61"/>
<text text-anchor="middle" x="1064.74" y="-167.82" font-family="Times New Roman,serif" font-size="8.00">der</text>
</g>
<!-- http://10.16.48.121:42069/api/v1/connectors/evalTilesConnector -->
<!-- PROV_ENTITY conn:evalTilesConnector -->
<g id="node9" class="node">
<title>http://10.16.48.121:42069/api/v1/connectors/evalTilesConnector</title>
<g id="a_node9"><a xlink:href="http://10.16.48.121:42069/api/v1/connectors/evalTilesConnector" xlink:title="evalTilesConnector">
<ellipse fill="#fffc87" stroke="#808080" cx="1511" cy="-286.25" rx="82.5" ry="18"/>
<text text-anchor="middle" x="1511" y="-280.82" font-family="Times New Roman,serif" font-size="14.00">evalTilesConnector</text>
</a>
</g>
</g>
<!-- https://example.org/tilesEval&#45;&gt;http://10.16.48.121:42069/api/v1/connectors/evalTilesConnector -->
<!-- PROV_SPECIALIZATION _:_ -->
<g id="edge11" class="edge">
<title>https://example.org/tilesEval&#45;&gt;http://10.16.48.121:42069/api/v1/connectors/evalTilesConnector</title>
<path fill="none" stroke="black" d="M1055.18,-186.41C1128.51,-193.74 1288.51,-212.66 1419,-248.75 1434.73,-253.1 1451.44,-259.24 1466.25,-265.25"/>
<polygon fill="black" stroke="black" points="1464.68,-268.39 1475.26,-269 1467.37,-261.93 1464.68,-268.39"/>
<text text-anchor="middle" x="1063.99" y="-171.92" font-family="Times New Roman,serif" font-size="8.00">spe</text>
</g>
<!-- https://example.org/tilesEval&#45;&gt;https://example.org/configEval -->
<!-- PROV_DERIVATION _:_ -->
<g id="edge14" class="edge">
<title>https://example.org/tilesEval&#45;&gt;https://example.org/configEval</title>
<path fill="none" stroke="black" d="M974.8,-186.39C901.5,-193.83 750.25,-213.16 713,-248.75 688.06,-272.58 715.37,-297.48 693,-323.75 686.68,-331.18 639.67,-351.26 603.32,-366.05"/>
<polygon fill="black" stroke="black" points="602.27,-362.7 594.32,-369.69 604.9,-369.19 602.27,-362.7"/>
<text text-anchor="middle" x="968.73" y="-197.76" font-family="Times New Roman,serif" font-size="8.00">der</text>
</g>
<!-- &#45;attrs3 -->
<g id="node8" class="node">
<title>&#45;attrs3</title>
<polygon fill="none" stroke="gray" points="1328.5,-114.75 695.5,-114.75 695.5,-39.75 1334.5,-39.75 1334.5,-108.75 1328.5,-114.75"/>
<polyline fill="none" stroke="gray" points="1328.5,-114.75 1328.5,-108.75"/>
<polyline fill="none" stroke="gray" points="1334.5,-108.75 1328.5,-108.75"/>
<text text-anchor="start" x="705.5" y="-99.25" font-family="Times New Roman,serif" font-size="10.00">type:</text>
<text text-anchor="start" x="737.5" y="-99.25" font-family="Times New Roman,serif" font-size="10.00">repr:Dataset</text>
<text text-anchor="start" x="705.5" y="-86.25" font-family="Times New Roman,serif" font-size="10.00">data:</text>
<text text-anchor="start" x="737.38" y="-86.25" font-family="Times New Roman,serif" font-size="10.00">UEFSMRUEFdApFdQITBWaBRUAAAAotS/9AFgNEQBW3W0uELBXczAMwzAMwzAMwzAMwzDBrLDCCiussMIKK6ywwgorrEG2u2S7S7a7...</text>
<text text-anchor="start" x="705.5" y="-73.25" font-family="Times New Roman,serif" font-size="10.00">runID:</text>
<text text-anchor="start" x="737.5" y="-73.25" font-family="Times New Roman,serif" font-size="10.00">d76b2a494da447c39b64d93e89e106fa</text>
<text text-anchor="start" x="705.5" y="-60.25" font-family="Times New Roman,serif" font-size="10.00">sha256:</text>
<text text-anchor="start" x="737.5" y="-60.25" font-family="Times New Roman,serif" font-size="10.00">3d49169d68eaff7bd652d8ea68b2649159570704b1cc4a8d6a73f8a2dbbbafe</text>
<text text-anchor="start" x="705.5" y="-47.25" font-family="Times New Roman,serif" font-size="10.00">path:</text>
<text text-anchor="start" x="737.5" y="-47.25" font-family="Times New Roman,serif" font-size="10.00">dataset/tiles.parquet</text>
</g>
<!-- &#45;attrs3&#45;&gt;https://example.org/tilesEval -->
<!-- null _:_ -->
<g id="edge4" class="edge">
<title>&#45;attrs3&#45;&gt;https://example.org/tilesEval</title>
<path fill="none" stroke="gray" stroke-dasharray="5,2" d="M1015,-114.97C1015,-131.51 1015,-150.26 1015,-163.49"/>
</g>
<!-- http://10.16.48.121:42069/api/v1/connectors/evalTilesConnector&#45;&gt;https://example.org/preprocessing -->
<!-- PROV_GENERATION _:_ -->
<g id="edge8" class="edge">
<title>http://10.16.48.121:42069/api/v1/connectors/evalTilesConnector&#45;&gt;https://example.org/preprocessing</title>
<path fill="none" stroke="black" d="M1495.15,-303.97C1480.97,-318.93 1459.99,-341.06 1443.8,-358.15"/>
<polygon fill="black" stroke="black" points="1441.66,-355.31 1437.32,-364.97 1446.74,-360.13 1441.66,-355.31"/>
<text text-anchor="middle" x="1499.42" y="-316" font-family="Times New Roman,serif" font-size="8.00">gen</text>
</g>
<!-- &#45;attrs4 -->
<g id="node10" class="node">
<title>&#45;attrs4</title>
<polygon fill="none" stroke="gray" points="1587.5,-199.75 1410.5,-199.75 1410.5,-163.75 1593.5,-163.75 1593.5,-193.75 1587.5,-199.75"/>
<polyline fill="none" stroke="gray" points="1587.5,-199.75 1587.5,-193.75"/>
<polyline fill="none" stroke="gray" points="1593.5,-193.75 1587.5,-193.75"/>
<text text-anchor="start" x="1420.5" y="-184.25" font-family="Times New Roman,serif" font-size="10.00">type:</text>
<text text-anchor="start" x="1492.25" y="-184.25" font-family="Times New Roman,serif" font-size="10.00">cpm:forwardConnector</text>
<text text-anchor="start" x="1420.25" y="-171.25" font-family="Times New Roman,serif" font-size="10.00">receiverBundleId:</text>
<text text-anchor="start" x="1492.5" y="-171.25" font-family="Times New Roman,serif" font-size="10.00">bndl:eval</text>
</g>
<!-- &#45;attrs4&#45;&gt;http://10.16.48.121:42069/api/v1/connectors/evalTilesConnector -->
<!-- null _:_ -->
<g id="edge5" class="edge">
<title>&#45;attrs4&#45;&gt;http://10.16.48.121:42069/api/v1/connectors/evalTilesConnector</title>
<path fill="none" stroke="gray" stroke-dasharray="5,2" d="M1503.53,-200.14C1505.18,-218.99 1507.81,-248.9 1509.47,-267.78"/>
</g>
<!-- https://example.org/configFile -->
<!-- PROV_ENTITY def:configFile -->
<g id="node11" class="node">
<title>https://example.org/configFile</title>
<g id="a_node11"><a xlink:href="https://example.org/configFile" xlink:title="configFile">
<ellipse fill="#fffc87" stroke="#808080" cx="677" cy="-462.75" rx="47.57" ry="18"/>
<text text-anchor="middle" x="677" y="-457.32" font-family="Times New Roman,serif" font-size="14.00">configFile</text>
</a>
</g>
</g>
<!-- &#45;attrs5 -->
<g id="node12" class="node">
<title>&#45;attrs5</title>
<polygon fill="none" stroke="gray" points="956,-408.75 628,-408.75 628,-359.75 962,-359.75 962,-402.75 956,-408.75"/>
<polyline fill="none" stroke="gray" points="956,-408.75 956,-402.75"/>
<polyline fill="none" stroke="gray" points="962,-402.75 956,-402.75"/>
<text text-anchor="start" x="638" y="-393.25" font-family="Times New Roman,serif" font-size="10.00">runID:</text>
<text text-anchor="start" x="670" y="-393.25" font-family="Times New Roman,serif" font-size="10.00">d76b2a494da447c39b64d93e89e106fa</text>
<text text-anchor="start" x="638" y="-380.25" font-family="Times New Roman,serif" font-size="10.00">sha256:</text>
<text text-anchor="start" x="670" y="-380.25" font-family="Times New Roman,serif" font-size="10.00">114c74f711109ef32a1f7a93b3e57fbade71d9961f41db457119cf992e6f4536</text>
<text text-anchor="start" x="638" y="-367.25" font-family="Times New Roman,serif" font-size="10.00">path:</text>
<text text-anchor="start" x="670" y="-367.25" font-family="Times New Roman,serif" font-size="10.00">conf/config_resolved.yaml</text>
</g>
<!-- &#45;attrs5&#45;&gt;https://example.org/configFile -->
<!-- null _:_ -->
<g id="edge6" class="edge">
<title>&#45;attrs5&#45;&gt;https://example.org/configFile</title>
<path fill="none" stroke="gray" stroke-dasharray="5,2" d="M757.99,-409.25C739.06,-421.51 716.62,-436.07 700.16,-446.74"/>
</g>
<!-- https://example.org/configEval&#45;&gt;https://example.org/configFile -->
<!-- PROV_DERIVATION _:_ -->
<g id="edge15" class="edge">
<title>https://example.org/configEval&#45;&gt;https://example.org/configFile</title>
<path fill="none" stroke="black" d="M583.4,-400.55C600.97,-412.04 625.24,-427.91 644.67,-440.61"/>
<polygon fill="black" stroke="black" points="642.49,-443.37 652.78,-445.91 646.32,-437.51 642.49,-443.37"/>
<text text-anchor="middle" x="596.78" y="-391.43" font-family="Times New Roman,serif" font-size="8.00">der</text>
</g>
<!-- &#45;attrs6 -->
<g id="node14" class="node">
<title>&#45;attrs6</title>
<polygon fill="none" stroke="gray" points="561.75,-304.25 16.25,-304.25 16.25,-268.25 567.75,-268.25 567.75,-298.25 561.75,-304.25"/>
<polyline fill="none" stroke="gray" points="561.75,-304.25 561.75,-298.25"/>
<polyline fill="none" stroke="gray" points="567.75,-298.25 561.75,-298.25"/>
<text text-anchor="start" x="26.25" y="-282.38" font-family="Times New Roman,serif" font-size="10.00">data:</text>
<text text-anchor="start" x="47.75" y="-282.38" font-family="Times New Roman,serif" font-size="10.00">dGlsZXI6CiAgX3RhcmdldF86IHNsaWRldHlsZXIudGlsZXIuU2xpZGVUaWxlcgogIG1heF93b3JrZXJzOiA4CiAgc2xpZGVfbmFt...</text>
</g>
<!-- &#45;attrs6&#45;&gt;https://example.org/configEval -->
<!-- null _:_ -->
<g id="edge7" class="edge">
<title>&#45;attrs6&#45;&gt;https://example.org/configEval</title>
<path fill="none" stroke="gray" stroke-dasharray="5,2" d="M340.84,-304.75C394.29,-323.89 478.6,-354.09 525.54,-370.91"/>
</g>
</g>
</svg>
