<?xml version="1.0" encoding="UTF-8" standalone="no"?>
<!DOCTYPE svg PUBLIC "-//W3C//DTD SVG 1.1//EN"
 "http://www.w3.org/Graphics/SVG/1.1/DTD/svg11.dtd">
<!-- Generated by graphviz version 9.0.0 (20230911.1827)
 -->
<!-- Title: title Pages: 1 -->
<svg width="1476pt" height="440pt"
 viewBox="0.00 0.00 1476.00 439.75" xmlns="http://www.w3.org/2000/svg" xmlns:xlink="http://www.w3.org/1999/xlink">
<g id="graph0" class="graph" transform="scale(1 1) rotate(0) translate(4 435.75)">
<title>title</title>
<polygon fill="white" stroke="none" points="-4,4 -4,-435.75 1472,-435.75 1472,4 -4,4"/>
<g id="clust1" class="cluster">
<title>clusterhttps://example.org/preprocEval.provn</title>
<g id="a_clust1"><a xlink:href="https://example.org/preprocEval.provn" xlink:title="preprocEval.provn">
<polygon fill="none" stroke="black" points="8,-8 8,-423.75 1460,-423.75 1460,-8 8,-8"/>
<text text-anchor="middle" x="734" y="-14.45" font-family="Times New Roman,serif" font-size="14.00">preprocEval.provn</text>
</a>
</g>
</g>
<!-- https://example.org/tilesGeneration -->
<!-- PROV_ACTIVITY def:tilesGeneration -->
<g id="node1" class="node">
<title>https://example.org/tilesGeneration</title>
<g id="a_node1"><a xlink:href="https://example.org/tilesGeneration" xlink:title="tilesGeneration">
<polygon fill="#9fb1fc" stroke="#0000ff" points="638.25,-258.75 539.75,-258.75 539.75,-222.75 638.25,-222.75 638.25,-258.75"/>
<text text-anchor="middle" x="589" y="-235.32" font-family="Times New Roman,serif" font-size="14.00">tilesGeneration</text>
</a>
</g>
</g>
<!-- https://example.org/WSIDataEval -->
<!-- PROV_ENTITY def:WSIDataEval -->
<g id="node8" class="node">
<title>https://example.org/WSIDataEval</title>
<g id="a_node8"><a xlink:href="https://example.org/WSIDataEval" xlink:title="WSIDataEval">
<ellipse fill="#fffc87" stroke="#808080" cx="521" cy="-325.75" rx="61.04" ry="18"/>
<text text-anchor="middle" x="521" y="-320.32" font-family="Times New Roman,serif" font-size="14.00">WSIDataEval</text>
</a>
</g>
</g>
<!-- https://example.org/tilesGeneration&#45;&gt;https://example.org/WSIDataEval -->
<!-- PROV_USAGE _:_ -->
<g id="edge7" class="edge">
<title>https://example.org/tilesGeneration&#45;&gt;https://example.org/WSIDataEval</title>
<path fill="none" stroke="black" d="M574.91,-258.95C565.36,-270.6 552.59,-286.2 541.87,-299.28"/>
<polygon fill="black" stroke="black" points="539.43,-296.73 535.8,-306.69 544.84,-301.17 539.43,-296.73"/>
<text text-anchor="middle" x="580.21" y="-270.63" font-family="Times New Roman,serif" font-size="8.00">use</text>
</g>
<!-- https://example.org/configEval -->
<!-- PROV_ENTITY def:configEval -->
<g id="node12" class="node">
<title>https://example.org/configEval</title>
<g id="a_node12"><a xlink:href="https://example.org/configEval" xlink:title="configEval">
<ellipse fill="#fffc87" stroke="#808080" cx="778" cy="-325.75" rx="50.07" ry="18"/>
<text text-anchor="middle" x="778" y="-320.32" font-family="Times New Roman,serif" font-size="14.00">configEval</text>
</a>
</g>
</g>
<!-- https://example.org/tilesGeneration&#45;&gt;https://example.org/configEval -->
<!-- PROV_USAGE _:_ -->
<g id="edge8" class="edge">
<title>https://example.org/tilesGeneration&#45;&gt;https://example.org/configEval</title>
<path fill="none" stroke="black" d="M624.85,-259.17C633.69,-263.37 643.16,-267.79 652,-271.75 679.54,-284.09 710.82,-297.25 735.32,-307.37"/>
<polygon fill="black" stroke="black" points="733.74,-310.51 744.32,-311.07 736.4,-304.03 733.74,-310.51"/>
<text text-anchor="middle" x="637.19" y="-248.3" font-family="Times New Roman,serif" font-size="8.00">use</text>
</g>
<!-- https://example.org/preprocessing -->
<!-- PROV_ACTIVITY def:preprocessing -->
<g id="node2" class="node">
<title>https://example.org/preprocessing</title>
<g id="a_node2"><a xlink:href="https://example.org/preprocessing" xlink:title="preprocessing">
<polygon fill="#9fb1fc" stroke="#0000ff" points="1240.38,-343.75 1145.62,-343.75 1145.62,-307.75 1240.38,-307.75 1240.38,-343.75"/>
<text text-anchor="middle" x="1193" y="-320.32" font-family="Times New Roman,serif" font-size="14.00">preprocessing</text>
</a>
</g>
</g>
<!-- &#45;attrs0 -->
<g id="node3" class="node">
<title>&#45;attrs0</title>
<polygon fill="none" stroke="gray" points="1262.5,-258.75 1139.5,-258.75 1139.5,-222.75 1268.5,-222.75 1268.5,-252.75 1262.5,-258.75"/>
<polyline fill="none" stroke="gray" points="1262.5,-258.75 1262.5,-252.75"/>
<polyline fill="none" stroke="gray" points="1268.5,-252.75 1262.5,-252.75"/>
<text text-anchor="start" x="1149.5" y="-243.25" font-family="Times New Roman,serif" font-size="10.00">type:</text>
<text text-anchor="start" x="1183.5" y="-243.25" font-family="Times New Roman,serif" font-size="10.00">cpm:mainActivity</text>
<text text-anchor="start" x="1149.38" y="-230.25" font-family="Times New Roman,serif" font-size="10.00">hasPart:</text>
<text text-anchor="start" x="1183.5" y="-230.25" font-family="Times New Roman,serif" font-size="10.00">def:tilesGeneration</text>
</g>
<!-- &#45;attrs0&#45;&gt;https://example.org/preprocessing -->
<!-- null _:_ -->
<g id="edge1" class="edge">
<title>&#45;attrs0&#45;&gt;https://example.org/preprocessing</title>
<path fill="none" stroke="gray" stroke-dasharray="5,2" d="M1201.72,-258.95C1199.85,-273.1 1197.2,-293.07 1195.31,-307.29"/>
</g>
<!-- https://example.org/configFile -->
<!-- PROV_ENTITY def:configFile -->
<g id="node4" class="node">
<title>https://example.org/configFile</title>
<g id="a_node4"><a xlink:href="https://example.org/configFile" xlink:title="configFile">
<ellipse fill="#fffc87" stroke="#808080" cx="1127" cy="-397.75" rx="47.57" ry="18"/>
<text text-anchor="middle" x="1127" y="-392.32" font-family="Times New Roman,serif" font-size="14.00">configFile</text>
</a>
</g>
</g>
<!-- &#45;attrs1 -->
<g id="node5" class="node">
<title>&#45;attrs1</title>
<polygon fill="none" stroke="gray" points="1445.5,-343.75 1258.5,-343.75 1258.5,-307.75 1451.5,-307.75 1451.5,-337.75 1445.5,-343.75"/>
<polyline fill="none" stroke="gray" points="1445.5,-343.75 1445.5,-337.75"/>
<polyline fill="none" stroke="gray" points="1451.5,-337.75 1445.5,-337.75"/>
<text text-anchor="start" x="1268.5" y="-328.25" font-family="Times New Roman,serif" font-size="10.00">path:</text>
<text text-anchor="start" x="1295.5" y="-328.25" font-family="Times New Roman,serif" font-size="10.00">conf/config_resolved.yaml</text>
<text text-anchor="start" x="1268.25" y="-315.25" font-family="Times New Roman,serif" font-size="10.00">runID:</text>
<text text-anchor="start" x="1295.38" y="-315.25" font-family="Times New Roman,serif" font-size="10.00">d76b2a494da447c39b64d93e89e106fa</text>
</g>
<!-- &#45;attrs1&#45;&gt;https://example.org/configFile -->
<!-- null _:_ -->
<g id="edge2" class="edge">
<title>&#45;attrs1&#45;&gt;https://example.org/configFile</title>
<path fill="none" stroke="gray" stroke-dasharray="5,2" d="M1298.05,-344.23C1255.71,-357.23 1199.23,-374.57 1162.98,-385.7"/>
</g>
<!-- https://example.org/tilesEval -->
<!-- PROV_ENTITY def:tilesEval -->
<g id="node6" class="node">
<title>https://example.org/tilesEval</title>
<g id="a_node6"><a xlink:href="https://example.org/tilesEval" xlink:title="tilesEval">
<ellipse fill="#fffc87" stroke="#808080" cx="623" cy="-155.75" rx="41.08" ry="18"/>
<text text-anchor="middle" x="623" y="-150.32" font-family="Times New Roman,serif" font-size="14.00">tilesEval</text>
</a>
</g>
</g>
<!-- https://example.org/tilesEval&#45;&gt;https://example.org/tilesGeneration -->
<!-- PROV_GENERATION _:_ -->
<g id="edge10" class="edge">
<title>https://example.org/tilesEval&#45;&gt;https://example.org/tilesGeneration</title>
<path fill="none" stroke="black" d="M615.96,-173.95C611.47,-184.89 605.56,-199.32 600.42,-211.87"/>
<polygon fill="black" stroke="black" points="597.28,-210.31 596.73,-220.89 603.76,-212.96 597.28,-210.31"/>
<text text-anchor="middle" x="625.13" y="-183.46" font-family="Times New Roman,serif" font-size="8.00">gen</text>
</g>
<!-- https://example.org/tilesEval&#45;&gt;https://example.org/WSIDataEval -->
<!-- PROV_DERIVATION _:_ -->
<g id="edge12" class="edge">
<title>https://example.org/tilesEval&#45;&gt;https://example.org/WSIDataEval</title>
<path fill="none" stroke="black" d="M590.19,-166.83C569.6,-174.97 544.47,-188.61 531,-209.75 514.52,-235.6 514.17,-271.62 516.55,-296.42"/>
<polygon fill="black" stroke="black" points="513.04,-296.59 517.7,-306.1 519.99,-295.76 513.04,-296.59"/>
<text text-anchor="middle" x="588.23" y="-179.36" font-family="Times New Roman,serif" font-size="8.00">der</text>
</g>
<!-- https://example.org/evalTilesConnector -->
<!-- PROV_ENTITY def:evalTilesConnector -->
<g id="node10" class="node">
<title>https://example.org/evalTilesConnector</title>
<g id="a_node10"><a xlink:href="https://example.org/evalTilesConnector" xlink:title="evalTilesConnector">
<ellipse fill="#fffc87" stroke="#808080" cx="1369" cy="-240.75" rx="82.5" ry="18"/>
<text text-anchor="middle" x="1369" y="-235.32" font-family="Times New Roman,serif" font-size="14.00">evalTilesConnector</text>
</a>
</g>
</g>
<!-- https://example.org/tilesEval&#45;&gt;https://example.org/evalTilesConnector -->
<!-- PROV_SPECIALIZATION _:_ -->
<g id="edge14" class="edge">
<title>https://example.org/tilesEval&#45;&gt;https://example.org/evalTilesConnector</title>
<path fill="none" stroke="black" d="M664.48,-156.71C768.71,-157.33 1049.6,-163.55 1278,-209.75 1291.5,-212.48 1305.79,-216.58 1318.95,-220.89"/>
<polygon fill="black" stroke="black" points="1317.66,-224.15 1328.25,-224.04 1319.9,-217.52 1317.66,-224.15"/>
<text text-anchor="middle" x="672.12" y="-141.45" font-family="Times New Roman,serif" font-size="8.00">spe</text>
</g>
<!-- https://example.org/tilesEval&#45;&gt;https://example.org/configEval -->
<!-- PROV_DERIVATION _:_ -->
<g id="edge13" class="edge">
<title>https://example.org/tilesEval&#45;&gt;https://example.org/configEval</title>
<path fill="none" stroke="black" d="M631.22,-173.75C636.07,-184.06 642.18,-197.54 647,-209.75 657.68,-236.81 648.72,-249.96 668,-271.75 683.79,-289.6 706.92,-301.99 727.9,-310.28"/>
<polygon fill="black" stroke="black" points="726.61,-313.53 737.21,-313.72 729.04,-306.97 726.61,-313.53"/>
<text text-anchor="middle" x="646.16" y="-172.69" font-family="Times New Roman,serif" font-size="8.00">der</text>
</g>
<!-- &#45;attrs2 -->
<g id="node7" class="node">
<title>&#45;attrs2</title>
<polygon fill="none" stroke="gray" points="934,-101.75 306,-101.75 306,-39.75 940,-39.75 940,-95.75 934,-101.75"/>
<polyline fill="none" stroke="gray" points="934,-101.75 934,-95.75"/>
<polyline fill="none" stroke="gray" points="940,-95.75 934,-95.75"/>
<text text-anchor="start" x="316" y="-86.25" font-family="Times New Roman,serif" font-size="10.00">type:</text>
<text text-anchor="start" x="343" y="-86.25" font-family="Times New Roman,serif" font-size="10.00">repr:Dataset</text>
<text text-anchor="start" x="316" y="-73.25" font-family="Times New Roman,serif" font-size="10.00">path:</text>
<text text-anchor="start" x="343" y="-73.25" font-family="Times New Roman,serif" font-size="10.00">dataset/tiles.parquet</text>
<text text-anchor="start" x="315.75" y="-60.25" font-family="Times New Roman,serif" font-size="10.00">runID:</text>
<text text-anchor="start" x="343" y="-60.25" font-family="Times New Roman,serif" font-size="10.00">d76b2a494da447c39b64d93e89e106fa</text>
<text text-anchor="start" x="316" y="-47.25" font-family="Times New Roman,serif" font-size="10.00">data:</text>
<text text-anchor="start" x="342.88" y="-47.25" font-family="Times New Roman,serif" font-size="10.00">UEFSMRUEFdApFdQITBWaBRUAAAAotS/9AFgNEQBW3W0uELBXczAMwzAMwzAMwzAMwzDBrLDCCiussMIKK6ywwgorrEG2u2S7S7a7...</text>
</g>
<!-- &#45;attrs2&#45;&gt;https://example.org/tilesEval -->
<!-- null _:_ -->
<g id="edge3" class="edge">
<title>&#45;attrs2&#45;&gt;https://example.org/tilesEval</title>
<path fill="none" stroke="gray" stroke-dasharray="5,2" d="M623,-102.18C623,-114.03 623,-127.17 623,-137.35"/>
</g>
<!-- &#45;attrs3 -->
<g id="node9" class="node">
<title>&#45;attrs3</title>
<polygon fill="none" stroke="gray" points="495.5,-271.75 16.5,-271.75 16.5,-209.75 501.5,-209.75 501.5,-265.75 495.5,-271.75"/>
<polyline fill="none" stroke="gray" points="495.5,-271.75 495.5,-265.75"/>
<polyline fill="none" stroke="gray" points="501.5,-265.75 495.5,-265.75"/>
<text text-anchor="start" x="26.5" y="-256.25" font-family="Times New Roman,serif" font-size="10.00">type:</text>
<text text-anchor="start" x="53.5" y="-256.25" font-family="Times New Roman,serif" font-size="10.00">repr:Dataset</text>
<text text-anchor="start" x="26.5" y="-243.25" font-family="Times New Roman,serif" font-size="10.00">path:</text>
<text text-anchor="start" x="53.5" y="-243.25" font-family="Times New Roman,serif" font-size="10.00">dataset/slides.parquet</text>
<text text-anchor="start" x="26.25" y="-230.25" font-family="Times New Roman,serif" font-size="10.00">runID:</text>
<text text-anchor="start" x="53.5" y="-230.25" font-family="Times New Roman,serif" font-size="10.00">d76b2a494da447c39b64d93e89e106fa</text>
<text text-anchor="start" x="26.5" y="-217.25" font-family="Times New Roman,serif" font-size="10.00">data:</text>
<text text-anchor="start" x="53.12" y="-217.25" font-family="Times New Roman,serif" font-size="10.00">UEFSMRUGFeCyBBWyXFwVjiIVABWOIhUAFaYEFQARAACjBP//////////////////////////////////////////////////////...</text>
</g>
<!-- &#45;attrs3&#45;&gt;https://example.org/WSIDataEval -->
<!-- null _:_ -->
<g id="edge4" class="edge">
<title>&#45;attrs3&#45;&gt;https://example.org/WSIDataEval</title>
<path fill="none" stroke="gray" stroke-dasharray="5,2" d="M355.07,-272.18C398.3,-285.88 447,-301.31 480.4,-311.89"/>
</g>
<!-- https://example.org/evalTilesConnector&#45;&gt;https://example.org/preprocessing -->
<!-- PROV_GENERATION _:_ -->
<g id="edge9" class="edge">
<title>https://example.org/evalTilesConnector&#45;&gt;https://example.org/preprocessing</title>
<path fill="none" stroke="black" d="M1335.48,-257.56C1308.54,-270.26 1270.36,-288.27 1240.31,-302.44"/>
<polygon fill="black" stroke="black" points="1238.97,-299.2 1231.41,-306.63 1241.95,-305.53 1238.97,-299.2"/>
<text text-anchor="middle" x="1334.24" y="-270.16" font-family="Times New Roman,serif" font-size="8.00">gen</text>
</g>
<!-- &#45;attrs4 -->
<g id="node11" class="node">
<title>&#45;attrs4</title>
<polygon fill="none" stroke="gray" points="1445.5,-173.75 1268.5,-173.75 1268.5,-137.75 1451.5,-137.75 1451.5,-167.75 1445.5,-173.75"/>
<polyline fill="none" stroke="gray" points="1445.5,-173.75 1445.5,-167.75"/>
<polyline fill="none" stroke="gray" points="1451.5,-167.75 1445.5,-167.75"/>
<text text-anchor="start" x="1278.5" y="-158.25" font-family="Times New Roman,serif" font-size="10.00">type:</text>
<text text-anchor="start" x="1350.25" y="-158.25" font-family="Times New Roman,serif" font-size="10.00">cpm:forwardConnector</text>
<text text-anchor="start" x="1278.25" y="-145.25" font-family="Times New Roman,serif" font-size="10.00">receiverBundleId:</text>
<text text-anchor="start" x="1350.5" y="-145.25" font-family="Times New Roman,serif" font-size="10.00">def:eval.provn</text>
</g>
<!-- &#45;attrs4&#45;&gt;https://example.org/evalTilesConnector -->
<!-- null _:_ -->
<g id="edge5" class="edge">
<title>&#45;attrs4&#45;&gt;https://example.org/evalTilesConnector</title>
<path fill="none" stroke="gray" stroke-dasharray="5,2" d="M1361.86,-173.95C1363.4,-188.1 1365.56,-208.07 1367.11,-222.29"/>
</g>
<!-- https://example.org/configEval&#45;&gt;https://example.org/configFile -->
<!-- PROV_DERIVATION _:_ -->
<g id="edge11" class="edge">
<title>https://example.org/configEval&#45;&gt;https://example.org/configFile</title>
<path fill="none" stroke="black" d="M820.79,-335.33C884.76,-348.16 1005.18,-372.32 1074.42,-386.2"/>
<polygon fill="black" stroke="black" points="1073.51,-389.59 1084,-388.13 1074.89,-382.73 1073.51,-389.59"/>
<text text-anchor="middle" x="830.7" y="-321.72" font-family="Times New Roman,serif" font-size="8.00">der</text>
</g>
<!-- &#45;attrs5 -->
<g id="node13" class="node">
<title>&#45;attrs5</title>
<polygon fill="none" stroke="gray" points="1115.5,-258.75 676.5,-258.75 676.5,-222.75 1121.5,-222.75 1121.5,-252.75 1115.5,-258.75"/>
<polyline fill="none" stroke="gray" points="1115.5,-258.75 1115.5,-252.75"/>
<polyline fill="none" stroke="gray" points="1121.5,-252.75 1115.5,-252.75"/>
<text text-anchor="start" x="686.5" y="-236.88" font-family="Times New Roman,serif" font-size="10.00">data:</text>
<text text-anchor="start" x="708" y="-236.88" font-family="Times New Roman,serif" font-size="10.00">{&quot;tiler&quot;:{&quot;_target_&quot;:&quot;slidetyler.tiler.SlideTiler&quot;,&quot;max_workers&quot;:8,&quot;slide_name_pattern&quot;:&quot;&lt;year&gt;[_&#45;]&lt;...</text>
</g>
<!-- &#45;attrs5&#45;&gt;https://example.org/configEval -->
<!-- null _:_ -->
<g id="edge6" class="edge">
<title>&#45;attrs5&#45;&gt;https://example.org/configEval</title>
<path fill="none" stroke="gray" stroke-dasharray="5,2" d="M873.63,-259.15C852.01,-273.98 821.23,-295.1 800.48,-309.33"/>
</g>
</g>
</svg>
