<?xml version="1.0" encoding="UTF-8" standalone="no"?>
<!DOCTYPE svg PUBLIC "-//W3C//DTD SVG 1.1//EN"
 "http://www.w3.org/Graphics/SVG/1.1/DTD/svg11.dtd">
<!-- Generated by graphviz version 9.0.0 (20230911.1827)
 -->
<!-- Title: title Pages: 1 -->
<svg width="1694pt" height="440pt"
 viewBox="0.00 0.00 1694.00 439.75" xmlns="http://www.w3.org/2000/svg" xmlns:xlink="http://www.w3.org/1999/xlink">
<g id="graph0" class="graph" transform="scale(1 1) rotate(0) translate(4 435.75)">
<title>title</title>
<polygon fill="white" stroke="none" points="-4,4 -4,-435.75 1690,-435.75 1690,4 -4,4"/>
<g id="clust1" class="cluster">
<title>clusterhttp://_PLACEHOLER_:8000/api/v1/organizations/ORG/graphs/preprocEval.provn</title>
<g id="a_clust1"><a xlink:href="http://_PLACEHOLER_:8000/api/v1/organizations/ORG/graphs/preprocEval.provn" xlink:title="preprocEval.provn">
<polygon fill="none" stroke="black" points="8,-8 8,-423.75 1678,-423.75 1678,-8 8,-8"/>
<text text-anchor="middle" x="843" y="-14.45" font-family="Times New Roman,serif" font-size="14.00">preprocEval.provn</text>
</a>
</g>
</g>
<!-- https://example.org/tilesGeneration -->
<!-- PROV_ACTIVITY def:tilesGeneration -->
<g id="node1" class="node">
<title>https://example.org/tilesGeneration</title>
<g id="a_node1"><a xlink:href="https://example.org/tilesGeneration" xlink:title="tilesGeneration">
<polygon fill="#9fb1fc" stroke="#0000ff" points="1146.25,-258.75 1047.75,-258.75 1047.75,-222.75 1146.25,-222.75 1146.25,-258.75"/>
<text text-anchor="middle" x="1097" y="-235.32" font-family="Times New Roman,serif" font-size="14.00">tilesGeneration</text>
</a>
</g>
</g>
<!-- https://example.org/WSIDataEval -->
<!-- PROV_ENTITY def:WSIDataEval -->
<g id="node8" class="node">
<title>https://example.org/WSIDataEval</title>
<g id="a_node8"><a xlink:href="https://example.org/WSIDataEval" xlink:title="WSIDataEval">
<ellipse fill="#fffc87" stroke="#808080" cx="1163" cy="-325.75" rx="61.04" ry="18"/>
<text text-anchor="middle" x="1163" y="-320.32" font-family="Times New Roman,serif" font-size="14.00">WSIDataEval</text>
</a>
</g>
</g>
<!-- https://example.org/tilesGeneration&#45;&gt;https://example.org/WSIDataEval -->
<!-- PROV_USAGE _:_ -->
<g id="edge8" class="edge">
<title>https://example.org/tilesGeneration&#45;&gt;https://example.org/WSIDataEval</title>
<path fill="none" stroke="black" d="M1110.68,-258.95C1119.85,-270.49 1132.1,-285.9 1142.45,-298.9"/>
<polygon fill="black" stroke="black" points="1139.66,-301.03 1148.63,-306.67 1145.14,-296.67 1139.66,-301.03"/>
<text text-anchor="middle" x="1125.51" y="-254.38" font-family="Times New Roman,serif" font-size="8.00">use</text>
</g>
<!-- https://example.org/configEval -->
<!-- PROV_ENTITY def:configEval -->
<g id="node14" class="node">
<title>https://example.org/configEval</title>
<g id="a_node14"><a xlink:href="https://example.org/configEval" xlink:title="configEval">
<ellipse fill="#fffc87" stroke="#808080" cx="1032" cy="-325.75" rx="50.07" ry="18"/>
<text text-anchor="middle" x="1032" y="-320.32" font-family="Times New Roman,serif" font-size="14.00">configEval</text>
</a>
</g>
</g>
<!-- https://example.org/tilesGeneration&#45;&gt;https://example.org/configEval -->
<!-- PROV_USAGE _:_ -->
<g id="edge9" class="edge">
<title>https://example.org/tilesGeneration&#45;&gt;https://example.org/configEval</title>
<path fill="none" stroke="black" d="M1083.53,-258.95C1074.44,-270.56 1062.27,-286.1 1052.04,-299.16"/>
<polygon fill="black" stroke="black" points="1049.35,-296.92 1045.94,-306.95 1054.86,-301.23 1049.35,-296.92"/>
<text text-anchor="middle" x="1089.14" y="-270.51" font-family="Times New Roman,serif" font-size="8.00">use</text>
</g>
<!-- https://example.org/preprocessing -->
<!-- PROV_ACTIVITY def:preprocessing -->
<g id="node2" class="node">
<title>https://example.org/preprocessing</title>
<g id="a_node2"><a xlink:href="https://example.org/preprocessing" xlink:title="preprocessing">
<polygon fill="#9fb1fc" stroke="#0000ff" points="326.38,-343.75 231.62,-343.75 231.62,-307.75 326.38,-307.75 326.38,-343.75"/>
<text text-anchor="middle" x="279" y="-320.32" font-family="Times New Roman,serif" font-size="14.00">preprocessing</text>
</a>
</g>
</g>
<!-- &#45;attrs0 -->
<g id="node3" class="node">
<title>&#45;attrs0</title>
<polygon fill="none" stroke="gray" points="172,-265.25 16,-265.25 16,-216.25 178,-216.25 178,-259.25 172,-265.25"/>
<polyline fill="none" stroke="gray" points="172,-265.25 172,-259.25"/>
<polyline fill="none" stroke="gray" points="178,-259.25 172,-259.25"/>
<text text-anchor="start" x="26" y="-249.75" font-family="Times New Roman,serif" font-size="10.00">type:</text>
<text text-anchor="start" x="76" y="-249.75" font-family="Times New Roman,serif" font-size="10.00">cpm:mainActivity</text>
<text text-anchor="start" x="26" y="-236.75" font-family="Times New Roman,serif" font-size="10.00">hasPart:</text>
<text text-anchor="start" x="76" y="-236.75" font-family="Times New Roman,serif" font-size="10.00">def:tilesGeneration</text>
<text text-anchor="start" x="25.62" y="-223.75" font-family="Times New Roman,serif" font-size="10.00">metabundle:</text>
<text text-anchor="start" x="75.88" y="-223.75" font-family="Times New Roman,serif" font-size="10.00">meta:preprocEvalMeta.</text>
</g>
<!-- &#45;attrs0&#45;&gt;https://example.org/preprocessing -->
<!-- null _:_ -->
<g id="edge1" class="edge">
<title>&#45;attrs0&#45;&gt;https://example.org/preprocessing</title>
<path fill="none" stroke="gray" stroke-dasharray="5,2" d="M149.15,-265.53C178.36,-278.85 214.13,-295.16 240.72,-307.29"/>
</g>
<!-- https://example.org/configFile -->
<!-- PROV_ENTITY def:configFile -->
<g id="node4" class="node">
<title>https://example.org/configFile</title>
<g id="a_node4"><a xlink:href="https://example.org/configFile" xlink:title="configFile">
<ellipse fill="#fffc87" stroke="#808080" cx="1184" cy="-397.75" rx="47.57" ry="18"/>
<text text-anchor="middle" x="1184" y="-392.32" font-family="Times New Roman,serif" font-size="14.00">configFile</text>
</a>
</g>
</g>
<!-- &#45;attrs1 -->
<g id="node5" class="node">
<title>&#45;attrs1</title>
<polygon fill="none" stroke="gray" points="1429.5,-343.75 1242.5,-343.75 1242.5,-307.75 1435.5,-307.75 1435.5,-337.75 1429.5,-343.75"/>
<polyline fill="none" stroke="gray" points="1429.5,-343.75 1429.5,-337.75"/>
<polyline fill="none" stroke="gray" points="1435.5,-337.75 1429.5,-337.75"/>
<text text-anchor="start" x="1252.5" y="-328.25" font-family="Times New Roman,serif" font-size="10.00">path:</text>
<text text-anchor="start" x="1279.5" y="-328.25" font-family="Times New Roman,serif" font-size="10.00">conf/config_resolved.yaml</text>
<text text-anchor="start" x="1252.25" y="-315.25" font-family="Times New Roman,serif" font-size="10.00">runID:</text>
<text text-anchor="start" x="1279.38" y="-315.25" font-family="Times New Roman,serif" font-size="10.00">d76b2a494da447c39b64d93e89e106fa</text>
</g>
<!-- &#45;attrs1&#45;&gt;https://example.org/configFile -->
<!-- null _:_ -->
<g id="edge2" class="edge">
<title>&#45;attrs1&#45;&gt;https://example.org/configFile</title>
<path fill="none" stroke="gray" stroke-dasharray="5,2" d="M1300.29,-344.23C1273.39,-356.38 1238.09,-372.32 1213.46,-383.44"/>
</g>
<!-- https://example.org/tilesEval -->
<!-- PROV_ENTITY def:tilesEval -->
<g id="node6" class="node">
<title>https://example.org/tilesEval</title>
<g id="a_node6"><a xlink:href="https://example.org/tilesEval" xlink:title="tilesEval">
<ellipse fill="#fffc87" stroke="#808080" cx="1029" cy="-155.75" rx="41.08" ry="18"/>
<text text-anchor="middle" x="1029" y="-150.32" font-family="Times New Roman,serif" font-size="14.00">tilesEval</text>
</a>
</g>
</g>
<!-- https://example.org/tilesEval&#45;&gt;https://example.org/tilesGeneration -->
<!-- PROV_GENERATION _:_ -->
<g id="edge12" class="edge">
<title>https://example.org/tilesEval&#45;&gt;https://example.org/tilesGeneration</title>
<path fill="none" stroke="black" d="M1042.43,-173.15C1051.93,-184.74 1064.86,-200.52 1075.75,-213.81"/>
<polygon fill="black" stroke="black" points="1072.89,-215.84 1081.93,-221.36 1078.3,-211.4 1072.89,-215.84"/>
<text text-anchor="middle" x="1057.24" y="-168.37" font-family="Times New Roman,serif" font-size="8.00">gen</text>
</g>
<!-- https://example.org/tilesEval&#45;&gt;https://example.org/WSIDataEval -->
<!-- PROV_DERIVATION _:_ -->
<g id="edge14" class="edge">
<title>https://example.org/tilesEval&#45;&gt;https://example.org/WSIDataEval</title>
<path fill="none" stroke="black" d="M1067.93,-162.15C1096.95,-168.39 1134.91,-181.67 1155,-209.75 1172.81,-234.65 1172.2,-270.85 1168.81,-295.96"/>
<polygon fill="black" stroke="black" points="1165.36,-295.37 1167.24,-305.8 1172.27,-296.48 1165.36,-295.37"/>
<text text-anchor="middle" x="1078.19" y="-148.86" font-family="Times New Roman,serif" font-size="8.00">der</text>
</g>
<!-- http://_PLACEHOLER_:8000/api/v1/connectors/trainTilesConnector -->
<!-- PROV_ENTITY conn:trainTilesConnector -->
<g id="node10" class="node">
<title>http://_PLACEHOLER_:8000/api/v1/connectors/trainTilesConnector</title>
<g id="a_node10"><a xlink:href="http://_PLACEHOLER_:8000/api/v1/connectors/trainTilesConnector" xlink:title="trainTilesConnector">
<ellipse fill="#fffc87" stroke="#808080" cx="463" cy="-240.75" rx="84" ry="18"/>
<text text-anchor="middle" x="463" y="-235.32" font-family="Times New Roman,serif" font-size="14.00">trainTilesConnector</text>
</a>
</g>
</g>
<!-- https://example.org/tilesEval&#45;&gt;http://_PLACEHOLER_:8000/api/v1/connectors/trainTilesConnector -->
<!-- PROV_SPECIALIZATION _:_ -->
<g id="edge17" class="edge">
<title>https://example.org/tilesEval&#45;&gt;http://_PLACEHOLER_:8000/api/v1/connectors/trainTilesConnector</title>
<path fill="none" stroke="black" d="M988.06,-158.57C905.52,-162.85 713.53,-175.87 556,-209.75 542.39,-212.68 527.96,-216.81 514.62,-221.07"/>
<polygon fill="black" stroke="black" points="513.56,-217.73 505.16,-224.19 515.75,-224.38 513.56,-217.73"/>
<text text-anchor="middle" x="981.3" y="-169.61" font-family="Times New Roman,serif" font-size="8.00">spe</text>
</g>
<!-- http://_PLACEHOLER_:8000/api/v1/connectors/evalTilesConnector -->
<!-- PROV_ENTITY conn:evalTilesConnector -->
<g id="node12" class="node">
<title>http://_PLACEHOLER_:8000/api/v1/connectors/evalTilesConnector</title>
<g id="a_node12"><a xlink:href="http://_PLACEHOLER_:8000/api/v1/connectors/evalTilesConnector" xlink:title="evalTilesConnector">
<ellipse fill="#fffc87" stroke="#808080" cx="279" cy="-240.75" rx="82.5" ry="18"/>
<text text-anchor="middle" x="279" y="-235.32" font-family="Times New Roman,serif" font-size="14.00">evalTilesConnector</text>
</a>
</g>
</g>
<!-- https://example.org/tilesEval&#45;&gt;http://_PLACEHOLER_:8000/api/v1/connectors/evalTilesConnector -->
<!-- PROV_SPECIALIZATION _:_ -->
<g id="edge16" class="edge">
<title>https://example.org/tilesEval&#45;&gt;http://_PLACEHOLER_:8000/api/v1/connectors/evalTilesConnector</title>
<path fill="none" stroke="black" d="M987.65,-156.68C883.09,-157.23 600.07,-163.27 370,-209.75 356.5,-212.48 342.21,-216.58 329.05,-220.88"/>
<polygon fill="black" stroke="black" points="328.1,-217.51 319.75,-224.03 330.34,-224.14 328.1,-217.51"/>
<text text-anchor="middle" x="980.28" y="-167.39" font-family="Times New Roman,serif" font-size="8.00">spe</text>
</g>
<!-- https://example.org/tilesEval&#45;&gt;https://example.org/configEval -->
<!-- PROV_DERIVATION _:_ -->
<g id="edge15" class="edge">
<title>https://example.org/tilesEval&#45;&gt;https://example.org/configEval</title>
<path fill="none" stroke="black" d="M1029.31,-174.1C1029.83,-203.04 1030.87,-261.47 1031.49,-296.44"/>
<polygon fill="black" stroke="black" points="1027.99,-296.3 1031.67,-306.24 1034.99,-296.17 1027.99,-296.3"/>
<text text-anchor="middle" x="1042.43" y="-179.01" font-family="Times New Roman,serif" font-size="8.00">der</text>
</g>
<!-- &#45;attrs2 -->
<g id="node7" class="node">
<title>&#45;attrs2</title>
<polygon fill="none" stroke="gray" points="1340,-101.75 712,-101.75 712,-39.75 1346,-39.75 1346,-95.75 1340,-101.75"/>
<polyline fill="none" stroke="gray" points="1340,-101.75 1340,-95.75"/>
<polyline fill="none" stroke="gray" points="1346,-95.75 1340,-95.75"/>
<text text-anchor="start" x="722" y="-86.25" font-family="Times New Roman,serif" font-size="10.00">type:</text>
<text text-anchor="start" x="749" y="-86.25" font-family="Times New Roman,serif" font-size="10.00">repr:Dataset</text>
<text text-anchor="start" x="722" y="-73.25" font-family="Times New Roman,serif" font-size="10.00">path:</text>
<text text-anchor="start" x="749" y="-73.25" font-family="Times New Roman,serif" font-size="10.00">dataset/tiles.parquet</text>
<text text-anchor="start" x="721.75" y="-60.25" font-family="Times New Roman,serif" font-size="10.00">runID:</text>
<text text-anchor="start" x="749" y="-60.25" font-family="Times New Roman,serif" font-size="10.00">d76b2a494da447c39b64d93e89e106fa</text>
<text text-anchor="start" x="722" y="-47.25" font-family="Times New Roman,serif" font-size="10.00">data:</text>
<text text-anchor="start" x="748.88" y="-47.25" font-family="Times New Roman,serif" font-size="10.00">UEFSMRUEFdApFdQITBWaBRUAAAAotS/9AFgNEQBW3W0uELBXczAMwzAMwzAMwzAMwzDBrLDCCiussMIKK6ywwgorrEG2u2S7S7a7...</text>
</g>
<!-- &#45;attrs2&#45;&gt;https://example.org/tilesEval -->
<!-- null _:_ -->
<g id="edge3" class="edge">
<title>&#45;attrs2&#45;&gt;https://example.org/tilesEval</title>
<path fill="none" stroke="gray" stroke-dasharray="5,2" d="M1029,-102.18C1029,-114.03 1029,-127.17 1029,-137.35"/>
</g>
<!-- &#45;attrs3 -->
<g id="node9" class="node">
<title>&#45;attrs3</title>
<polygon fill="none" stroke="gray" points="1663.5,-271.75 1184.5,-271.75 1184.5,-209.75 1669.5,-209.75 1669.5,-265.75 1663.5,-271.75"/>
<polyline fill="none" stroke="gray" points="1663.5,-271.75 1663.5,-265.75"/>
<polyline fill="none" stroke="gray" points="1669.5,-265.75 1663.5,-265.75"/>
<text text-anchor="start" x="1194.5" y="-256.25" font-family="Times New Roman,serif" font-size="10.00">type:</text>
<text text-anchor="start" x="1221.5" y="-256.25" font-family="Times New Roman,serif" font-size="10.00">repr:Dataset</text>
<text text-anchor="start" x="1194.5" y="-243.25" font-family="Times New Roman,serif" font-size="10.00">path:</text>
<text text-anchor="start" x="1221.5" y="-243.25" font-family="Times New Roman,serif" font-size="10.00">dataset/slides.parquet</text>
<text text-anchor="start" x="1194.25" y="-230.25" font-family="Times New Roman,serif" font-size="10.00">runID:</text>
<text text-anchor="start" x="1221.5" y="-230.25" font-family="Times New Roman,serif" font-size="10.00">d76b2a494da447c39b64d93e89e106fa</text>
<text text-anchor="start" x="1194.5" y="-217.25" font-family="Times New Roman,serif" font-size="10.00">data:</text>
<text text-anchor="start" x="1221.12" y="-217.25" font-family="Times New Roman,serif" font-size="10.00">UEFSMRUGFeCyBBWyXFwVjiIVABWOIhUAFaYEFQARAACjBP//////////////////////////////////////////////////////...</text>
</g>
<!-- &#45;attrs3&#45;&gt;https://example.org/WSIDataEval -->
<!-- null _:_ -->
<g id="edge4" class="edge">
<title>&#45;attrs3&#45;&gt;https://example.org/WSIDataEval</title>
<path fill="none" stroke="gray" stroke-dasharray="5,2" d="M1330.2,-272.18C1286.49,-285.93 1237.23,-301.41 1203.57,-312"/>
</g>
<!-- http://_PLACEHOLER_:8000/api/v1/connectors/trainTilesConnector&#45;&gt;https://example.org/preprocessing -->
<!-- PROV_GENERATION _:_ -->
<g id="edge11" class="edge">
<title>http://_PLACEHOLER_:8000/api/v1/connectors/trainTilesConnector&#45;&gt;https://example.org/preprocessing</title>
<path fill="none" stroke="black" d="M427.96,-257.56C399.67,-270.32 359.53,-288.42 328.04,-302.63"/>
<polygon fill="black" stroke="black" points="326.78,-299.36 319.11,-306.66 329.66,-305.74 326.78,-299.36"/>
<text text-anchor="middle" x="426.46" y="-270.13" font-family="Times New Roman,serif" font-size="8.00">gen</text>
</g>
<!-- &#45;attrs4 -->
<g id="node11" class="node">
<title>&#45;attrs4</title>
<polygon fill="none" stroke="gray" points="556.5,-173.75 379.5,-173.75 379.5,-137.75 562.5,-137.75 562.5,-167.75 556.5,-173.75"/>
<polyline fill="none" stroke="gray" points="556.5,-173.75 556.5,-167.75"/>
<polyline fill="none" stroke="gray" points="562.5,-167.75 556.5,-167.75"/>
<text text-anchor="start" x="389.5" y="-158.25" font-family="Times New Roman,serif" font-size="10.00">type:</text>
<text text-anchor="start" x="461.25" y="-158.25" font-family="Times New Roman,serif" font-size="10.00">cpm:forwardConnector</text>
<text text-anchor="start" x="389.25" y="-145.25" font-family="Times New Roman,serif" font-size="10.00">receiverBundleId:</text>
<text text-anchor="start" x="461.5" y="-145.25" font-family="Times New Roman,serif" font-size="10.00">bndl:eval.provn</text>
</g>
<!-- &#45;attrs4&#45;&gt;http://_PLACEHOLER_:8000/api/v1/connectors/trainTilesConnector -->
<!-- null _:_ -->
<g id="edge5" class="edge">
<title>&#45;attrs4&#45;&gt;http://_PLACEHOLER_:8000/api/v1/connectors/trainTilesConnector</title>
<path fill="none" stroke="gray" stroke-dasharray="5,2" d="M469.34,-173.95C467.98,-188.1 466.05,-208.07 464.68,-222.29"/>
</g>
<!-- http://_PLACEHOLER_:8000/api/v1/connectors/evalTilesConnector&#45;&gt;https://example.org/preprocessing -->
<!-- PROV_GENERATION _:_ -->
<g id="edge10" class="edge">
<title>http://_PLACEHOLER_:8000/api/v1/connectors/evalTilesConnector&#45;&gt;https://example.org/preprocessing</title>
<path fill="none" stroke="black" d="M279,-258.95C279,-269.67 279,-283.74 279,-296.11"/>
<polygon fill="black" stroke="black" points="275.5,-295.78 279,-305.78 282.5,-295.78 275.5,-295.78"/>
<text text-anchor="middle" x="291.99" y="-264.1" font-family="Times New Roman,serif" font-size="8.00">gen</text>
</g>
<!-- &#45;attrs5 -->
<g id="node13" class="node">
<title>&#45;attrs5</title>
<polygon fill="none" stroke="gray" points="355.5,-173.75 178.5,-173.75 178.5,-137.75 361.5,-137.75 361.5,-167.75 355.5,-173.75"/>
<polyline fill="none" stroke="gray" points="355.5,-173.75 355.5,-167.75"/>
<polyline fill="none" stroke="gray" points="361.5,-167.75 355.5,-167.75"/>
<text text-anchor="start" x="188.5" y="-158.25" font-family="Times New Roman,serif" font-size="10.00">type:</text>
<text text-anchor="start" x="260.25" y="-158.25" font-family="Times New Roman,serif" font-size="10.00">cpm:forwardConnector</text>
<text text-anchor="start" x="188.25" y="-145.25" font-family="Times New Roman,serif" font-size="10.00">receiverBundleId:</text>
<text text-anchor="start" x="260.5" y="-145.25" font-family="Times New Roman,serif" font-size="10.00">bndl:eval.provn</text>
</g>
<!-- &#45;attrs5&#45;&gt;http://_PLACEHOLER_:8000/api/v1/connectors/evalTilesConnector -->
<!-- null _:_ -->
<g id="edge6" class="edge">
<title>&#45;attrs5&#45;&gt;http://_PLACEHOLER_:8000/api/v1/connectors/evalTilesConnector</title>
<path fill="none" stroke="gray" stroke-dasharray="5,2" d="M271.86,-173.95C273.4,-188.1 275.56,-208.07 277.11,-222.29"/>
</g>
<!-- https://example.org/configEval&#45;&gt;https://example.org/configFile -->
<!-- PROV_DERIVATION _:_ -->
<g id="edge13" class="edge">
<title>https://example.org/configEval&#45;&gt;https://example.org/configFile</title>
<path fill="none" stroke="black" d="M1062.03,-340.58C1085.6,-351.44 1118.63,-366.64 1144.37,-378.5"/>
<polygon fill="black" stroke="black" points="1142.63,-381.55 1153.17,-382.55 1145.56,-375.19 1142.63,-381.55"/>
<text text-anchor="middle" x="1074.28" y="-329.57" font-family="Times New Roman,serif" font-size="8.00">der</text>
</g>
<!-- &#45;attrs6 -->
<g id="node15" class="node">
<title>&#45;attrs6</title>
<polygon fill="none" stroke="gray" points="1003.5,-258.75 564.5,-258.75 564.5,-222.75 1009.5,-222.75 1009.5,-252.75 1003.5,-258.75"/>
<polyline fill="none" stroke="gray" points="1003.5,-258.75 1003.5,-252.75"/>
<polyline fill="none" stroke="gray" points="1009.5,-252.75 1003.5,-252.75"/>
<text text-anchor="start" x="574.5" y="-236.88" font-family="Times New Roman,serif" font-size="10.00">data:</text>
<text text-anchor="start" x="596" y="-236.88" font-family="Times New Roman,serif" font-size="10.00">{&quot;tiler&quot;:{&quot;_target_&quot;:&quot;slidetyler.tiler.SlideTiler&quot;,&quot;max_workers&quot;:8,&quot;slide_name_pattern&quot;:&quot;&lt;year&gt;[_&#45;]&lt;...</text>
</g>
<!-- &#45;attrs6&#45;&gt;https://example.org/configEval -->
<!-- null _:_ -->
<g id="edge7" class="edge">
<title>&#45;attrs6&#45;&gt;https://example.org/configEval</title>
<path fill="none" stroke="gray" stroke-dasharray="5,2" d="M838.36,-259.15C885.79,-275.22 954.98,-298.66 996.54,-312.74"/>
</g>
</g>
</svg>
