<?xml version="1.0" encoding="UTF-8" standalone="no"?>
<!DOCTYPE svg PUBLIC "-//W3C//DTD SVG 1.1//EN"
 "http://www.w3.org/Graphics/SVG/1.1/DTD/svg11.dtd">
<!-- Generated by graphviz version 9.0.0 (20230911.1827)
 -->
<!-- Title: null Pages: 1 -->
<svg width="282pt" height="316pt"
 viewBox="0.00 0.00 282.00 315.75" xmlns="http://www.w3.org/2000/svg" xmlns:xlink="http://www.w3.org/1999/xlink">
<g id="graph0" class="graph" transform="scale(1 1) rotate(0) translate(4 311.75)">
<title>null</title>
<polygon fill="white" stroke="none" points="-4,4 -4,-311.75 278,-311.75 278,4 -4,4"/>
<g id="clust1" class="cluster">
<title>clusterurn:uuid:4ad9e62e&#45;c050&#45;46c2&#45;a398&#45;816a47b3f396</title>
<g id="a_clust1"><a xlink:href="urn:uuid:4ad9e62e-c050-46c2-a398-816a47b3f396" xlink:title="4ad9e62e&#45;c050&#45;46c2&#45;a398&#45;816a47b3f396">
<polygon fill="none" stroke="black" points="8,-8 8,-299.75 266,-299.75 266,-8 8,-8"/>
<text text-anchor="middle" x="137" y="-14.45" font-family="Times New Roman,serif" font-size="14.00">4ad9e62e&#45;c050&#45;46c2&#45;a398&#45;816a47b3f396</text>
</a>
</g>
</g>
<!-- http://example.org/op1 -->
<!-- PROV_ACTIVITY ex:op1 -->
<g id="node1" class="node">
<title>http://example.org/op1</title>
<g id="a_node1"><a xlink:href="http://example.org/op1" xlink:title="op1">
<polygon fill="#9fb1fc" stroke="#0000ff" points="164,-219.75 110,-219.75 110,-183.75 164,-183.75 164,-219.75"/>
<text text-anchor="middle" x="137" y="-196.32" font-family="Times New Roman,serif" font-size="14.00">op1</text>
</a>
</g>
</g>
<!-- http://example.org/e1 -->
<!-- PROV_ENTITY ex:e1 -->
<g id="node3" class="node">
<title>http://example.org/e1</title>
<g id="a_node3"><a xlink:href="http://example.org/e1" xlink:title="e1">
<ellipse fill="#fffc87" stroke="#808080" cx="213" cy="-273.75" rx="27" ry="18"/>
<text text-anchor="middle" x="213" y="-268.32" font-family="Times New Roman,serif" font-size="14.00">e1</text>
</a>
</g>
</g>
<!-- http://example.org/op1&#45;&gt;http://example.org/e1 -->
<!-- PROV_USAGE _:_ -->
<g id="edge6" class="edge">
<title>http://example.org/op1&#45;&gt;http://example.org/e1</title>
<path fill="none" stroke="black" d="M155.79,-220.05C165.91,-229.38 178.51,-240.99 189.31,-250.93"/>
<polygon fill="black" stroke="black" points="186.66,-253.25 196.38,-257.45 191.4,-248.1 186.66,-253.25"/>
<text text-anchor="middle" x="170.1" y="-213.23" font-family="Times New Roman,serif" font-size="8.00">use</text>
</g>
<!-- http://example.org/e2 -->
<!-- PROV_ENTITY ex:e2 -->
<g id="node5" class="node">
<title>http://example.org/e2</title>
<g id="a_node5"><a xlink:href="http://example.org/e2" xlink:title="e2">
<ellipse fill="#fffc87" stroke="#808080" cx="61" cy="-273.75" rx="27" ry="18"/>
<text text-anchor="middle" x="61" y="-268.32" font-family="Times New Roman,serif" font-size="14.00">e2</text>
</a>
</g>
</g>
<!-- http://example.org/op1&#45;&gt;http://example.org/e2 -->
<!-- PROV_USAGE _:_ -->
<g id="edge7" class="edge">
<title>http://example.org/op1&#45;&gt;http://example.org/e2</title>
<path fill="none" stroke="black" d="M118.21,-220.05C108.09,-229.38 95.49,-240.99 84.69,-250.93"/>
<polygon fill="black" stroke="black" points="82.6,-248.1 77.62,-257.45 87.34,-253.25 82.6,-248.1"/>
<text text-anchor="middle" x="121.5" y="-232.34" font-family="Times New Roman,serif" font-size="8.00">use</text>
</g>
<!-- http://example.org/Luc -->
<!-- PROV_AGENT ex:Luc -->
<g id="node9" class="node">
<title>http://example.org/Luc</title>
<g id="a_node9"><a xlink:href="http://example.org/Luc" xlink:title="Luc">
<polygon fill="#fdb266" stroke="black" points="168.05,-279.31 137,-291.75 105.95,-279.31 105.98,-259.19 168.02,-259.19 168.05,-279.31"/>
<text text-anchor="middle" x="137" y="-268.32" font-family="Times New Roman,serif" font-size="14.00">Luc</text>
</a>
</g>
</g>
<!-- http://example.org/op1&#45;&gt;http://example.org/Luc -->
<!-- PROV_ASSOCIATION _:_ -->
<g id="edge5" class="edge">
<title>http://example.org/op1&#45;&gt;http://example.org/Luc</title>
<path fill="none" stroke="black" d="M137,-220.05C137,-228.39 137,-238.53 137,-247.69"/>
<polygon fill="black" stroke="black" points="133.5,-247.41 137,-257.41 140.5,-247.41 133.5,-247.41"/>
<text text-anchor="middle" x="149.99" y="-225.2" font-family="Times New Roman,serif" font-size="8.00">assoc</text>
</g>
<!-- &#45;attrs0 -->
<g id="node2" class="node">
<title>&#45;attrs0</title>
<polygon fill="none" stroke="gray" points="223,-147.75 159,-147.75 159,-111.75 229,-111.75 229,-141.75 223,-147.75"/>
<polyline fill="none" stroke="gray" points="223,-147.75 223,-141.75"/>
<polyline fill="none" stroke="gray" points="229,-141.75 223,-141.75"/>
<text text-anchor="start" x="169" y="-125.88" font-family="Times New Roman,serif" font-size="10.00">type:</text>
<text text-anchor="start" x="191.25" y="-125.88" font-family="Times New Roman,serif" font-size="10.00">ex:plus</text>
</g>
<!-- &#45;attrs0&#45;&gt;http://example.org/op1 -->
<!-- null _:_ -->
<g id="edge1" class="edge">
<title>&#45;attrs0&#45;&gt;http://example.org/op1</title>
<path fill="none" stroke="gray" stroke-dasharray="5,2" d="M179.91,-148.05C171.07,-158.9 159.73,-172.83 150.93,-183.65"/>
</g>
<!-- &#45;attrs1 -->
<g id="node4" class="node">
<title>&#45;attrs1</title>
<polygon fill="none" stroke="gray" points="231.5,-219.75 182.5,-219.75 182.5,-183.75 237.5,-183.75 237.5,-213.75 231.5,-219.75"/>
<polyline fill="none" stroke="gray" points="231.5,-219.75 231.5,-213.75"/>
<polyline fill="none" stroke="gray" points="237.5,-213.75 231.5,-213.75"/>
<text text-anchor="start" x="192.5" y="-197.88" font-family="Times New Roman,serif" font-size="10.00">value:</text>
<text text-anchor="start" x="218.5" y="-197.88" font-family="Times New Roman,serif" font-size="10.00">10</text>
</g>
<!-- &#45;attrs1&#45;&gt;http://example.org/e1 -->
<!-- null _:_ -->
<g id="edge2" class="edge">
<title>&#45;attrs1&#45;&gt;http://example.org/e1</title>
<path fill="none" stroke="gray" stroke-dasharray="5,2" d="M210.74,-220.05C211.21,-230.9 211.8,-244.83 212.27,-255.65"/>
</g>
<!-- &#45;attrs2 -->
<g id="node6" class="node">
<title>&#45;attrs2</title>
<polygon fill="none" stroke="gray" points="65.5,-219.75 16.5,-219.75 16.5,-183.75 71.5,-183.75 71.5,-213.75 65.5,-219.75"/>
<polyline fill="none" stroke="gray" points="65.5,-219.75 65.5,-213.75"/>
<polyline fill="none" stroke="gray" points="71.5,-213.75 65.5,-213.75"/>
<text text-anchor="start" x="26.5" y="-197.88" font-family="Times New Roman,serif" font-size="10.00">value:</text>
<text text-anchor="start" x="52.5" y="-197.88" font-family="Times New Roman,serif" font-size="10.00">11</text>
</g>
<!-- &#45;attrs2&#45;&gt;http://example.org/e2 -->
<!-- null _:_ -->
<g id="edge3" class="edge">
<title>&#45;attrs2&#45;&gt;http://example.org/e2</title>
<path fill="none" stroke="gray" stroke-dasharray="5,2" d="M48.2,-220.05C50.84,-230.9 54.22,-244.83 56.85,-255.65"/>
</g>
<!-- http://example.org/e3 -->
<!-- PROV_ENTITY ex:e3 -->
<g id="node7" class="node">
<title>http://example.org/e3</title>
<g id="a_node7"><a xlink:href="http://example.org/e3" xlink:title="e3">
<ellipse fill="#fffc87" stroke="#808080" cx="114" cy="-129.75" rx="27" ry="18"/>
<text text-anchor="middle" x="114" y="-124.33" font-family="Times New Roman,serif" font-size="14.00">e3</text>
</a>
</g>
</g>
<!-- http://example.org/e3&#45;&gt;http://example.org/op1 -->
<!-- PROV_GENERATION _:_ -->
<g id="edge8" class="edge">
<title>http://example.org/e3&#45;&gt;http://example.org/op1</title>
<path fill="none" stroke="black" d="M119.57,-147.7C122.05,-155.23 125.03,-164.31 127.82,-172.81"/>
<polygon fill="black" stroke="black" points="124.4,-173.63 130.85,-182.04 131.05,-171.44 124.4,-173.63"/>
<text text-anchor="middle" x="134.25" y="-148.42" font-family="Times New Roman,serif" font-size="8.00">gen</text>
</g>
<!-- http://example.org/e3&#45;&gt;http://example.org/e1 -->
<!-- PROV_DERIVATION _:_ -->
<g id="edge9" class="edge">
<title>http://example.org/e3&#45;&gt;http://example.org/e1</title>
<path fill="none" stroke="black" d="M135.18,-141.12C140.02,-143.39 145.16,-145.71 150,-147.75 192.39,-165.58 220.74,-146 247,-183.75 260.9,-203.73 247.59,-230.14 233.75,-249"/>
<polygon fill="black" stroke="black" points="231.17,-246.61 227.76,-256.64 236.68,-250.93 231.17,-246.61"/>
<text text-anchor="middle" x="147.47" y="-130.17" font-family="Times New Roman,serif" font-size="8.00">der</text>
</g>
<!-- http://example.org/e3&#45;&gt;http://example.org/e2 -->
<!-- PROV_DERIVATION _:_ -->
<g id="edge10" class="edge">
<title>http://example.org/e3&#45;&gt;http://example.org/e2</title>
<path fill="none" stroke="black" d="M107.82,-147.49C101.22,-165.39 90.41,-194.59 81,-219.75 77.87,-228.11 74.45,-237.2 71.33,-245.46"/>
<polygon fill="black" stroke="black" points="68.13,-244.04 67.87,-254.63 74.67,-246.52 68.13,-244.04"/>
<text text-anchor="middle" x="117.41" y="-156.68" font-family="Times New Roman,serif" font-size="8.00">der</text>
</g>
<!-- &#45;attrs3 -->
<g id="node8" class="node">
<title>&#45;attrs3</title>
<polygon fill="none" stroke="gray" points="135.5,-75.75 86.5,-75.75 86.5,-39.75 141.5,-39.75 141.5,-69.75 135.5,-75.75"/>
<polyline fill="none" stroke="gray" points="135.5,-75.75 135.5,-69.75"/>
<polyline fill="none" stroke="gray" points="141.5,-69.75 135.5,-69.75"/>
<text text-anchor="start" x="96.5" y="-53.88" font-family="Times New Roman,serif" font-size="10.00">value:</text>
<text text-anchor="start" x="122.5" y="-53.88" font-family="Times New Roman,serif" font-size="10.00">21</text>
</g>
<!-- &#45;attrs3&#45;&gt;http://example.org/e3 -->
<!-- null _:_ -->
<g id="edge4" class="edge">
<title>&#45;attrs3&#45;&gt;http://example.org/e3</title>
<path fill="none" stroke="gray" stroke-dasharray="5,2" d="M114,-76.05C114,-86.9 114,-100.83 114,-111.65"/>
</g>
</g>
</svg>
