<?xml version="1.0" encoding="UTF-8" standalone="no"?>
<!DOCTYPE svg PUBLIC "-//W3C//DTD SVG 1.1//EN"
 "http://www.w3.org/Graphics/SVG/1.1/DTD/svg11.dtd">
<!-- Generated by graphviz version 9.0.0 (20230911.1827)
 -->
<!-- Title: title Pages: 1 -->
<svg width="1370pt" height="564pt"
 viewBox="0.00 0.00 1370.00 563.75" xmlns="http://www.w3.org/2000/svg" xmlns:xlink="http://www.w3.org/1999/xlink">
<g id="graph0" class="graph" transform="scale(1 1) rotate(0) translate(4 559.75)">
<title>title</title>
<polygon fill="white" stroke="none" points="-4,4 -4,-559.75 1366,-559.75 1366,4 -4,4"/>
<g id="clust1" class="cluster">
<title>clusterhttp://10.16.48.121:42069/api/v1/organizations/ORG/graphs/train</title>
<g id="a_clust1"><a xlink:href="http://10.16.48.121:42069/api/v1/organizations/ORG/graphs/train" xlink:title="train">
<polygon fill="none" stroke="black" points="8,-8 8,-547.75 1354,-547.75 1354,-8 8,-8"/>
<text text-anchor="middle" x="681" y="-14.45" font-family="Times New Roman,serif" font-size="14.00">train</text>
</a>
</g>
</g>
<!-- https://example.org/training -->
<!-- PROV_ACTIVITY def:training -->
<g id="node1" class="node">
<title>https://example.org/training</title>
<g id="a_node1"><a xlink:href="https://example.org/training" xlink:title="training">
<polygon fill="#9fb1fc" stroke="#0000ff" points="335.25,-389.25 278.75,-389.25 278.75,-353.25 335.25,-353.25 335.25,-389.25"/>
<text text-anchor="middle" x="307" y="-365.82" font-family="Times New Roman,serif" font-size="14.00">training</text>
</a>
</g>
</g>
<!-- http://10.16.48.121:42069/api/v1/connectors/trainTilesConnector1716200853766 -->
<!-- PROV_ENTITY conn:trainTilesConnector1716200853766 -->
<g id="node13" class="node">
<title>http://10.16.48.121:42069/api/v1/connectors/trainTilesConnector1716200853766</title>
<g id="a_node13"><a xlink:href="http://10.16.48.121:42069/api/v1/connectors/trainTilesConnector1716200853766" xlink:title="trainTilesConnector1716200853766">
<ellipse fill="#fffc87" stroke="#808080" cx="330" cy="-449.75" rx="142.38" ry="18"/>
<text text-anchor="middle" x="330" y="-444.32" font-family="Times New Roman,serif" font-size="14.00">trainTilesConnector1716200853766</text>
</a>
</g>
</g>
<!-- https://example.org/training&#45;&gt;http://10.16.48.121:42069/api/v1/connectors/trainTilesConnector1716200853766 -->
<!-- PROV_USAGE _:_ -->
<g id="edge13" class="edge">
<title>https://example.org/training&#45;&gt;http://10.16.48.121:42069/api/v1/connectors/trainTilesConnector1716200853766</title>
<path fill="none" stroke="black" d="M312.22,-389.61C314.98,-398.8 318.45,-410.32 321.58,-420.74"/>
<polygon fill="black" stroke="black" points="318.13,-421.44 324.37,-430.01 324.84,-419.43 318.13,-421.44"/>
<text text-anchor="middle" x="326.82" y="-390.7" font-family="Times New Roman,serif" font-size="8.00">use</text>
</g>
<!-- &#45;attrs0 -->
<g id="node2" class="node">
<title>&#45;attrs0</title>
<polygon fill="none" stroke="gray" points="150,-310.75 16,-310.75 16,-261.75 156,-261.75 156,-304.75 150,-310.75"/>
<polyline fill="none" stroke="gray" points="150,-310.75 150,-304.75"/>
<polyline fill="none" stroke="gray" points="156,-304.75 150,-304.75"/>
<text text-anchor="start" x="26" y="-295.25" font-family="Times New Roman,serif" font-size="10.00">type:</text>
<text text-anchor="start" x="75.75" y="-295.25" font-family="Times New Roman,serif" font-size="10.00">cpm:mainActivity</text>
<text text-anchor="start" x="25.62" y="-282.25" font-family="Times New Roman,serif" font-size="10.00">metabundle:</text>
<text text-anchor="start" x="76" y="-282.25" font-family="Times New Roman,serif" font-size="10.00">meta:trainMeta</text>
<text text-anchor="start" x="26" y="-269.25" font-family="Times New Roman,serif" font-size="10.00">hasPart:</text>
<text text-anchor="start" x="76" y="-269.25" font-family="Times New Roman,serif" font-size="10.00">def:prostateTrain</text>
</g>
<!-- &#45;attrs0&#45;&gt;https://example.org/training -->
<!-- null _:_ -->
<g id="edge1" class="edge">
<title>&#45;attrs0&#45;&gt;https://example.org/training</title>
<path fill="none" stroke="gray" stroke-dasharray="5,2" d="M156.29,-308.21C198.77,-321.24 248.54,-337.27 269,-346.75 272.94,-348.58 276.98,-350.73 280.88,-352.98"/>
</g>
<!-- https://example.org/prostateTrain -->
<!-- PROV_ACTIVITY def:prostateTrain -->
<g id="node3" class="node">
<title>https://example.org/prostateTrain</title>
<g id="a_node3"><a xlink:href="https://example.org/prostateTrain" xlink:title="prostateTrain">
<polygon fill="#9fb1fc" stroke="#0000ff" points="746.12,-304.25 655.88,-304.25 655.88,-268.25 746.12,-268.25 746.12,-304.25"/>
<text text-anchor="middle" x="701" y="-280.82" font-family="Times New Roman,serif" font-size="14.00">prostateTrain</text>
</a>
</g>
</g>
<!-- https://example.org/trainingTilesDataset -->
<!-- PROV_ENTITY def:trainingTilesDataset -->
<g id="node5" class="node">
<title>https://example.org/trainingTilesDataset</title>
<g id="a_node5"><a xlink:href="https://example.org/trainingTilesDataset" xlink:title="trainingTilesDataset">
<ellipse fill="#fffc87" stroke="#808080" cx="552" cy="-371.25" rx="83" ry="18"/>
<text text-anchor="middle" x="552" y="-365.82" font-family="Times New Roman,serif" font-size="14.00">trainingTilesDataset</text>
</a>
</g>
</g>
<!-- https://example.org/prostateTrain&#45;&gt;https://example.org/trainingTilesDataset -->
<!-- PROV_USAGE _:_ -->
<g id="edge20" class="edge">
<title>https://example.org/prostateTrain&#45;&gt;https://example.org/trainingTilesDataset</title>
<path fill="none" stroke="black" d="M669.76,-304.65C646.81,-317.43 615.48,-334.89 590.9,-348.58"/>
<polygon fill="black" stroke="black" points="589.52,-345.34 582.49,-353.26 592.93,-351.46 589.52,-345.34"/>
<text text-anchor="middle" x="669.53" y="-317.3" font-family="Times New Roman,serif" font-size="8.00">use</text>
</g>
<!-- https://example.org/configTrain -->
<!-- PROV_ENTITY def:configTrain -->
<g id="node11" class="node">
<title>https://example.org/configTrain</title>
<g id="a_node11"><a xlink:href="https://example.org/configTrain" xlink:title="configTrain">
<ellipse fill="#fffc87" stroke="#808080" cx="707" cy="-371.25" rx="53.56" ry="18"/>
<text text-anchor="middle" x="707" y="-365.82" font-family="Times New Roman,serif" font-size="14.00">configTrain</text>
</a>
</g>
</g>
<!-- https://example.org/prostateTrain&#45;&gt;https://example.org/configTrain -->
<!-- PROV_USAGE _:_ -->
<g id="edge14" class="edge">
<title>https://example.org/prostateTrain&#45;&gt;https://example.org/configTrain</title>
<path fill="none" stroke="black" d="M702.24,-304.45C703.02,-315.17 704.04,-329.24 704.93,-341.61"/>
<polygon fill="black" stroke="black" points="701.42,-341.56 705.63,-351.28 708.4,-341.05 701.42,-341.56"/>
<text text-anchor="middle" x="715.74" y="-308.64" font-family="Times New Roman,serif" font-size="8.00">use</text>
</g>
<!-- &#45;attrs1 -->
<g id="node4" class="node">
<title>&#45;attrs1</title>
<polygon fill="none" stroke="gray" points="1339.5,-225.75 738.5,-225.75 738.5,-150.75 1345.5,-150.75 1345.5,-219.75 1339.5,-225.75"/>
<polyline fill="none" stroke="gray" points="1339.5,-225.75 1339.5,-219.75"/>
<polyline fill="none" stroke="gray" points="1345.5,-219.75 1339.5,-219.75"/>
<text text-anchor="start" x="748.5" y="-210.25" font-family="Times New Roman,serif" font-size="10.00">userID:</text>
<text text-anchor="start" x="789.5" y="-210.25" font-family="Times New Roman,serif" font-size="10.00">mjakubik</text>
<text text-anchor="start" x="748.5" y="-197.25" font-family="Times New Roman,serif" font-size="10.00">metrics:</text>
<text text-anchor="start" x="789.5" y="-197.25" font-family="Times New Roman,serif" font-size="10.00">eyJ2YWxpZC9iaW5hcnlfYXVyb2MiOjAuODM2MjA0NzA3NjIyNTI4MSwidmFsaWQvYmluYXJ5X2FjY3VyYWN5IjowLjc0MjIwMDAx...</text>
<text text-anchor="start" x="748.5" y="-184.25" font-family="Times New Roman,serif" font-size="10.00">runID:</text>
<text text-anchor="start" x="789.5" y="-184.25" font-family="Times New Roman,serif" font-size="10.00">6bc00f9abbd0465d865f0c1e1fa7196a</text>
<text text-anchor="start" x="748.12" y="-171.25" font-family="Times New Roman,serif" font-size="10.00">startTime:</text>
<text text-anchor="start" x="789.5" y="-171.25" font-family="Times New Roman,serif" font-size="10.00">2024&#45;01&#45;16T15:41:01</text>
<text text-anchor="start" x="748.5" y="-158.25" font-family="Times New Roman,serif" font-size="10.00">duration:</text>
<text text-anchor="start" x="789.5" y="-158.25" font-family="Times New Roman,serif" font-size="10.00">PT9H5M40S</text>
</g>
<!-- &#45;attrs1&#45;&gt;https://example.org/prostateTrain -->
<!-- null _:_ -->
<g id="edge2" class="edge">
<title>&#45;attrs1&#45;&gt;https://example.org/prostateTrain</title>
<path fill="none" stroke="gray" stroke-dasharray="5,2" d="M876.36,-226.2C836.26,-236.48 793.79,-248.51 755,-261.75 749.77,-263.53 744.35,-265.61 739.05,-267.78"/>
</g>
<!-- https://example.org/trainingTilesDataset&#45;&gt;http://10.16.48.121:42069/api/v1/connectors/trainTilesConnector1716200853766 -->
<!-- PROV_SPECIALIZATION _:_ -->
<g id="edge11" class="edge">
<title>https://example.org/trainingTilesDataset&#45;&gt;http://10.16.48.121:42069/api/v1/connectors/trainTilesConnector1716200853766</title>
<path fill="none" stroke="black" d="M508.93,-387.09C474.62,-398.92 426.23,-415.59 388.43,-428.62"/>
<polygon fill="black" stroke="black" points="387.31,-425.3 378.99,-431.87 389.59,-431.92 387.31,-425.3"/>
<text text-anchor="middle" x="506.07" y="-399.47" font-family="Times New Roman,serif" font-size="8.00">spe</text>
</g>
<!-- &#45;attrs2 -->
<g id="node6" class="node">
<title>&#45;attrs2</title>
<polygon fill="none" stroke="gray" points="591.5,-304.25 506.5,-304.25 506.5,-268.25 597.5,-268.25 597.5,-298.25 591.5,-304.25"/>
<polyline fill="none" stroke="gray" points="591.5,-304.25 591.5,-298.25"/>
<polyline fill="none" stroke="gray" points="597.5,-298.25 591.5,-298.25"/>
<text text-anchor="start" x="516.5" y="-282.38" font-family="Times New Roman,serif" font-size="10.00">type:</text>
<text text-anchor="start" x="538.75" y="-282.38" font-family="Times New Roman,serif" font-size="10.00">repr:Dataset</text>
</g>
<!-- &#45;attrs2&#45;&gt;https://example.org/trainingTilesDataset -->
<!-- null _:_ -->
<g id="edge3" class="edge">
<title>&#45;attrs2&#45;&gt;https://example.org/trainingTilesDataset</title>
<path fill="none" stroke="gray" stroke-dasharray="5,2" d="M552,-304.45C552,-318.6 552,-338.57 552,-352.79"/>
</g>
<!-- http://10.16.48.121:42069/api/v1/connectors/trainedModelConnector1716200853766 -->
<!-- PROV_ENTITY conn:trainedModelConnector1716200853766 -->
<g id="node7" class="node">
<title>http://10.16.48.121:42069/api/v1/connectors/trainedModelConnector1716200853766</title>
<g id="a_node7"><a xlink:href="http://10.16.48.121:42069/api/v1/connectors/trainedModelConnector1716200853766" xlink:title="trainedModelConnector1716200853766">
<ellipse fill="#fffc87" stroke="#808080" cx="331" cy="-286.25" rx="157.35" ry="18"/>
<text text-anchor="middle" x="331" y="-280.82" font-family="Times New Roman,serif" font-size="14.00">trainedModelConnector1716200853766</text>
</a>
</g>
</g>
<!-- http://10.16.48.121:42069/api/v1/connectors/trainedModelConnector1716200853766&#45;&gt;https://example.org/training -->
<!-- PROV_GENERATION _:_ -->
<g id="edge22" class="edge">
<title>http://10.16.48.121:42069/api/v1/connectors/trainedModelConnector1716200853766&#45;&gt;https://example.org/training</title>
<path fill="none" stroke="black" d="M326.03,-304.45C322.89,-315.28 318.78,-329.53 315.17,-341.99"/>
<polygon fill="black" stroke="black" points="311.89,-340.76 312.47,-351.33 318.61,-342.7 311.89,-340.76"/>
<text text-anchor="middle" x="336.42" y="-312.91" font-family="Times New Roman,serif" font-size="8.00">gen</text>
</g>
<!-- http://10.16.48.121:42069/api/v1/connectors/trainedModelConnector1716200853766&#45;&gt;http://10.16.48.121:42069/api/v1/connectors/trainTilesConnector1716200853766 -->
<!-- PROV_DERIVATION _:_ -->
<g id="edge19" class="edge">
<title>http://10.16.48.121:42069/api/v1/connectors/trainedModelConnector1716200853766&#45;&gt;http://10.16.48.121:42069/api/v1/connectors/trainTilesConnector1716200853766</title>
<path fill="none" stroke="black" d="M335.81,-304.53C338.83,-316.32 342.45,-332.35 344,-346.75 346.34,-368.4 346.8,-374.15 344,-395.75 342.95,-403.87 341.02,-412.51 338.93,-420.41"/>
<polygon fill="black" stroke="black" points="335.61,-419.28 336.24,-429.85 342.34,-421.2 335.61,-419.28"/>
<text text-anchor="middle" x="350.24" y="-306.28" font-family="Times New Roman,serif" font-size="8.00">der</text>
</g>
<!-- &#45;attrs3 -->
<g id="node8" class="node">
<title>&#45;attrs3</title>
<polygon fill="none" stroke="gray" points="414.5,-206.25 241.5,-206.25 241.5,-170.25 420.5,-170.25 420.5,-200.25 414.5,-206.25"/>
<polyline fill="none" stroke="gray" points="414.5,-206.25 414.5,-200.25"/>
<polyline fill="none" stroke="gray" points="420.5,-200.25 414.5,-200.25"/>
<text text-anchor="start" x="251.5" y="-190.75" font-family="Times New Roman,serif" font-size="10.00">type:</text>
<text text-anchor="start" x="319.25" y="-190.75" font-family="Times New Roman,serif" font-size="10.00">cpm:forwardConnector</text>
<text text-anchor="start" x="251.5" y="-177.75" font-family="Times New Roman,serif" font-size="10.00">senderBundleId:</text>
<text text-anchor="start" x="319.5" y="-177.75" font-family="Times New Roman,serif" font-size="10.00">bndl:eval</text>
</g>
<!-- &#45;attrs3&#45;&gt;http://10.16.48.121:42069/api/v1/connectors/trainedModelConnector1716200853766 -->
<!-- null _:_ -->
<g id="edge4" class="edge">
<title>&#45;attrs3&#45;&gt;http://10.16.48.121:42069/api/v1/connectors/trainedModelConnector1716200853766</title>
<path fill="none" stroke="gray" stroke-dasharray="5,2" d="M331,-206.41C331,-223.78 331,-250.48 331,-267.91"/>
</g>
<!-- https://example.org/configFile -->
<!-- PROV_ENTITY def:configFile -->
<g id="node9" class="node">
<title>https://example.org/configFile</title>
<g id="a_node9"><a xlink:href="https://example.org/configFile" xlink:title="configFile">
<ellipse fill="#fffc87" stroke="#808080" cx="829" cy="-449.75" rx="47.57" ry="18"/>
<text text-anchor="middle" x="829" y="-444.32" font-family="Times New Roman,serif" font-size="14.00">configFile</text>
</a>
</g>
</g>
<!-- &#45;attrs4 -->
<g id="node10" class="node">
<title>&#45;attrs4</title>
<polygon fill="none" stroke="gray" points="1119,-395.75 779,-395.75 779,-346.75 1125,-346.75 1125,-389.75 1119,-395.75"/>
<polyline fill="none" stroke="gray" points="1119,-395.75 1119,-389.75"/>
<polyline fill="none" stroke="gray" points="1125,-389.75 1119,-389.75"/>
<text text-anchor="start" x="789" y="-380.25" font-family="Times New Roman,serif" font-size="10.00">runID:</text>
<text text-anchor="start" x="821" y="-380.25" font-family="Times New Roman,serif" font-size="10.00">6bc00f9abbd0465d865f0c1e1fa7196a</text>
<text text-anchor="start" x="789" y="-367.25" font-family="Times New Roman,serif" font-size="10.00">sha256:</text>
<text text-anchor="start" x="821" y="-367.25" font-family="Times New Roman,serif" font-size="10.00">b99a126d31e7781abae1d88fe78f3979cdd2dbd3023f2d1e67db10161dadae84</text>
<text text-anchor="start" x="789" y="-354.25" font-family="Times New Roman,serif" font-size="10.00">path:</text>
<text text-anchor="start" x="821" y="-354.25" font-family="Times New Roman,serif" font-size="10.00">conf/config_resolved.yaml</text>
</g>
<!-- &#45;attrs4&#45;&gt;https://example.org/configFile -->
<!-- null _:_ -->
<g id="edge5" class="edge">
<title>&#45;attrs4&#45;&gt;https://example.org/configFile</title>
<path fill="none" stroke="gray" stroke-dasharray="5,2" d="M913.42,-396.25C893.55,-408.6 869.96,-423.27 852.77,-433.96"/>
</g>
<!-- https://example.org/configTrain&#45;&gt;https://example.org/configFile -->
<!-- PROV_DERIVATION _:_ -->
<g id="edge12" class="edge">
<title>https://example.org/configTrain&#45;&gt;https://example.org/configFile</title>
<path fill="none" stroke="black" d="M731.4,-387.55C749.8,-399.09 775.26,-415.05 795.56,-427.78"/>
<polygon fill="black" stroke="black" points="793.45,-430.59 803.78,-432.94 797.17,-424.66 793.45,-430.59"/>
<text text-anchor="middle" x="744.65" y="-378.18" font-family="Times New Roman,serif" font-size="8.00">der</text>
</g>
<!-- &#45;attrs5 -->
<g id="node12" class="node">
<title>&#45;attrs5</title>
<polygon fill="none" stroke="gray" points="1339.75,-304.25 764.25,-304.25 764.25,-268.25 1345.75,-268.25 1345.75,-298.25 1339.75,-304.25"/>
<polyline fill="none" stroke="gray" points="1339.75,-304.25 1339.75,-298.25"/>
<polyline fill="none" stroke="gray" points="1345.75,-298.25 1339.75,-298.25"/>
<text text-anchor="start" x="774.25" y="-282.38" font-family="Times New Roman,serif" font-size="10.00">data:</text>
<text text-anchor="start" x="795.75" y="-282.38" font-family="Times New Roman,serif" font-size="10.00">bWw6CiAgX3RhcmdldF86IGhpc3RvcGlwZS5tbC5IaXN0b1BpcGVNb2R1bGUKICBuZXQ6CiAgICBmZWF0dXJlczoKICAgICAgX3Rh...</text>
</g>
<!-- &#45;attrs5&#45;&gt;https://example.org/configTrain -->
<!-- null _:_ -->
<g id="edge6" class="edge">
<title>&#45;attrs5&#45;&gt;https://example.org/configTrain</title>
<path fill="none" stroke="gray" stroke-dasharray="5,2" d="M952.85,-304.7C898.13,-315.01 829.85,-329.45 770,-346.75 760.24,-349.57 749.84,-353.19 740.36,-356.74"/>
</g>
<!-- https://example.org/researchDataCentre -->
<!-- PROV_AGENT def:researchDataCentre -->
<g id="node19" class="node">
<title>https://example.org/researchDataCentre</title>
<g id="a_node19"><a xlink:href="https://example.org/researchDataCentre" xlink:title="researchDataCentre">
<polygon fill="#fdb266" stroke="black" points="540.59,-527.31 438,-539.75 335.41,-527.31 335.5,-507.19 540.5,-507.19 540.59,-527.31"/>
<text text-anchor="middle" x="438" y="-516.33" font-family="Times New Roman,serif" font-size="14.00">researchDataCentre</text>
</a>
</g>
</g>
<!-- http://10.16.48.121:42069/api/v1/connectors/trainTilesConnector1716200853766&#45;&gt;https://example.org/researchDataCentre -->
<!-- PROV_ATTRIBUTION _:_ -->
<g id="edge23" class="edge">
<title>http://10.16.48.121:42069/api/v1/connectors/trainTilesConnector1716200853766&#45;&gt;https://example.org/researchDataCentre</title>
<path fill="none" stroke="black" d="M356.42,-467.87C371.73,-477.8 391.08,-490.34 407.09,-500.72"/>
<polygon fill="black" stroke="black" points="405,-503.53 415.29,-506.03 408.8,-497.66 405,-503.53"/>
<text text-anchor="middle" x="369.78" y="-458.7" font-family="Times New Roman,serif" font-size="8.00">att</text>
</g>
<!-- &#45;attrs6 -->
<g id="node14" class="node">
<title>&#45;attrs6</title>
<polygon fill="none" stroke="gray" points="254.5,-389.25 69.5,-389.25 69.5,-353.25 260.5,-353.25 260.5,-383.25 254.5,-389.25"/>
<polyline fill="none" stroke="gray" points="254.5,-389.25 254.5,-383.25"/>
<polyline fill="none" stroke="gray" points="260.5,-383.25 254.5,-383.25"/>
<text text-anchor="start" x="79.5" y="-373.75" font-family="Times New Roman,serif" font-size="10.00">type:</text>
<text text-anchor="start" x="151.5" y="-373.75" font-family="Times New Roman,serif" font-size="10.00">cpm:backwardConnector</text>
<text text-anchor="start" x="79.25" y="-360.75" font-family="Times New Roman,serif" font-size="10.00">receiverBundleId:</text>
<text text-anchor="start" x="151.5" y="-360.75" font-family="Times New Roman,serif" font-size="10.00">bndl:preprocTrain</text>
</g>
<!-- &#45;attrs6&#45;&gt;http://10.16.48.121:42069/api/v1/connectors/trainTilesConnector1716200853766 -->
<!-- null _:_ -->
<g id="edge7" class="edge">
<title>&#45;attrs6&#45;&gt;http://10.16.48.121:42069/api/v1/connectors/trainTilesConnector1716200853766</title>
<path fill="none" stroke="gray" stroke-dasharray="5,2" d="M202.44,-389.61C229.82,-402.31 266.76,-419.43 293.84,-431.99"/>
</g>
<!-- https://example.org/trainedModel -->
<!-- PROV_ENTITY def:trainedModel -->
<g id="node15" class="node">
<title>https://example.org/trainedModel</title>
<g id="a_node15"><a xlink:href="https://example.org/trainedModel" xlink:title="trainedModel">
<ellipse fill="#fffc87" stroke="#808080" cx="552" cy="-188.25" rx="59.55" ry="18"/>
<text text-anchor="middle" x="552" y="-182.82" font-family="Times New Roman,serif" font-size="14.00">trainedModel</text>
</a>
</g>
</g>
<!-- https://example.org/trainedModel&#45;&gt;https://example.org/prostateTrain -->
<!-- PROV_GENERATION _:_ -->
<g id="edge18" class="edge">
<title>https://example.org/trainedModel&#45;&gt;https://example.org/prostateTrain</title>
<path fill="none" stroke="black" d="M576.6,-205.1C600.53,-220.52 637.16,-244.12 664.49,-261.72"/>
<polygon fill="black" stroke="black" points="662.52,-264.62 672.82,-267.09 666.31,-258.73 662.52,-264.62"/>
<text text-anchor="middle" x="589.94" y="-195.89" font-family="Times New Roman,serif" font-size="8.00">gen</text>
</g>
<!-- https://example.org/trainedModel&#45;&gt;https://example.org/trainingTilesDataset -->
<!-- PROV_DERIVATION _:_ -->
<g id="edge17" class="edge">
<title>https://example.org/trainedModel&#45;&gt;https://example.org/trainingTilesDataset</title>
<path fill="none" stroke="black" d="M569.66,-205.79C582.79,-219.38 599.65,-239.89 607,-261.75 613.94,-282.39 614.94,-290.47 607,-310.75 601.79,-324.05 592.06,-336.17 582.21,-345.94"/>
<polygon fill="black" stroke="black" points="580.06,-343.17 575.12,-352.54 584.82,-348.29 580.06,-343.17"/>
<text text-anchor="middle" x="584.26" y="-199.98" font-family="Times New Roman,serif" font-size="8.00">der</text>
</g>
<!-- https://example.org/trainedModel&#45;&gt;http://10.16.48.121:42069/api/v1/connectors/trainedModelConnector1716200853766 -->
<!-- PROV_SPECIALIZATION _:_ -->
<g id="edge15" class="edge">
<title>https://example.org/trainedModel&#45;&gt;http://10.16.48.121:42069/api/v1/connectors/trainedModelConnector1716200853766</title>
<path fill="none" stroke="black" d="M518.91,-203.62C482.17,-219.58 422.48,-245.51 380.24,-263.86"/>
<polygon fill="black" stroke="black" points="379.07,-260.55 371.29,-267.75 381.86,-266.97 379.07,-260.55"/>
<text text-anchor="middle" x="517.21" y="-216.18" font-family="Times New Roman,serif" font-size="8.00">spe</text>
</g>
<!-- https://example.org/trainedModel&#45;&gt;https://example.org/configTrain -->
<!-- PROV_DERIVATION _:_ -->
<g id="edge16" class="edge">
<title>https://example.org/trainedModel&#45;&gt;https://example.org/configTrain</title>
<path fill="none" stroke="black" d="M567.35,-206.08C580.26,-220.48 598.96,-241.97 614,-261.75 629.89,-282.65 630.26,-290.52 647,-310.75 657.18,-323.06 669.56,-335.66 680.42,-346.08"/>
<polygon fill="black" stroke="black" points="677.96,-348.57 687.63,-352.88 682.76,-343.48 677.96,-348.57"/>
<text text-anchor="middle" x="582.04" y="-200.67" font-family="Times New Roman,serif" font-size="8.00">der</text>
</g>
<!-- &#45;attrs7 -->
<g id="node16" class="node">
<title>&#45;attrs7</title>
<polygon fill="none" stroke="gray" points="488,-101.75 304,-101.75 304,-52.75 494,-52.75 494,-95.75 488,-101.75"/>
<polyline fill="none" stroke="gray" points="488,-101.75 488,-95.75"/>
<polyline fill="none" stroke="gray" points="494,-95.75 488,-95.75"/>
<text text-anchor="start" x="314" y="-86.25" font-family="Times New Roman,serif" font-size="10.00">type:</text>
<text text-anchor="start" x="341" y="-86.25" font-family="Times New Roman,serif" font-size="10.00">repr:Model</text>
<text text-anchor="start" x="313.75" y="-73.25" font-family="Times New Roman,serif" font-size="10.00">runID:</text>
<text text-anchor="start" x="340.88" y="-73.25" font-family="Times New Roman,serif" font-size="10.00">6bc00f9abbd0465d865f0c1e1fa7196a</text>
<text text-anchor="start" x="314" y="-60.25" font-family="Times New Roman,serif" font-size="10.00">path:</text>
<text text-anchor="start" x="341" y="-60.25" font-family="Times New Roman,serif" font-size="10.00">model/</text>
</g>
<!-- &#45;attrs7&#45;&gt;https://example.org/trainedModel -->
<!-- null _:_ -->
<g id="edge8" class="edge">
<title>&#45;attrs7&#45;&gt;https://example.org/trainedModel</title>
<path fill="none" stroke="gray" stroke-dasharray="5,2" d="M432.58,-102.17C461.96,-123.1 503.83,-152.93 529.39,-171.14"/>
</g>
<!-- https://example.org/logsTrain -->
<!-- PROV_ENTITY def:logsTrain -->
<g id="node17" class="node">
<title>https://example.org/logsTrain</title>
<g id="a_node17"><a xlink:href="https://example.org/logsTrain" xlink:title="logsTrain">
<ellipse fill="#fffc87" stroke="#808080" cx="675" cy="-188.25" rx="45.57" ry="18"/>
<text text-anchor="middle" x="675" y="-182.82" font-family="Times New Roman,serif" font-size="14.00">logsTrain</text>
</a>
</g>
</g>
<!-- https://example.org/logsTrain&#45;&gt;https://example.org/prostateTrain -->
<!-- PROV_GENERATION _:_ -->
<g id="edge21" class="edge">
<title>https://example.org/logsTrain&#45;&gt;https://example.org/prostateTrain</title>
<path fill="none" stroke="black" d="M679.65,-206.41C683.47,-220.52 688.96,-240.8 693.42,-257.25"/>
<polygon fill="black" stroke="black" points="689.92,-257.71 695.91,-266.45 696.67,-255.88 689.92,-257.71"/>
<text text-anchor="middle" x="694.15" y="-207.91" font-family="Times New Roman,serif" font-size="8.00">gen</text>
</g>
<!-- &#45;attrs8 -->
<g id="node18" class="node">
<title>&#45;attrs8</title>
<polygon fill="none" stroke="gray" points="1137.5,-114.75 512.5,-114.75 512.5,-39.75 1143.5,-39.75 1143.5,-108.75 1137.5,-114.75"/>
<polyline fill="none" stroke="gray" points="1137.5,-114.75 1137.5,-108.75"/>
<polyline fill="none" stroke="gray" points="1143.5,-108.75 1137.5,-108.75"/>
<text text-anchor="start" x="522.5" y="-99.25" font-family="Times New Roman,serif" font-size="10.00">type:</text>
<text text-anchor="start" x="554.5" y="-99.25" font-family="Times New Roman,serif" font-size="10.00">repr:Log</text>
<text text-anchor="start" x="522.5" y="-86.25" font-family="Times New Roman,serif" font-size="10.00">data:</text>
<text text-anchor="start" x="554.12" y="-86.25" font-family="Times New Roman,serif" font-size="10.00">WzIwMjQtMDEtMTYgMTY6NDA6NTYsNDQ5XVt0YXNrX2NsaV1bSU5GT10gLSBbUmVwcm9kdWNpYmlsaXR5XSBTZWVkaW5nIGV2ZXJ5...</text>
<text text-anchor="start" x="522.5" y="-73.25" font-family="Times New Roman,serif" font-size="10.00">runID:</text>
<text text-anchor="start" x="554.5" y="-73.25" font-family="Times New Roman,serif" font-size="10.00">6bc00f9abbd0465d865f0c1e1fa7196a</text>
<text text-anchor="start" x="522.5" y="-60.25" font-family="Times New Roman,serif" font-size="10.00">sha256:</text>
<text text-anchor="start" x="554.5" y="-60.25" font-family="Times New Roman,serif" font-size="10.00">134caeea4a41282c7132d607c70d16b1246fa20718c6210285018fbeb972b6c0</text>
<text text-anchor="start" x="522.5" y="-47.25" font-family="Times New Roman,serif" font-size="10.00">path:</text>
<text text-anchor="start" x="554.5" y="-47.25" font-family="Times New Roman,serif" font-size="10.00">logs/task.log</text>
</g>
<!-- &#45;attrs8&#45;&gt;https://example.org/logsTrain -->
<!-- null _:_ -->
<g id="edge9" class="edge">
<title>&#45;attrs8&#45;&gt;https://example.org/logsTrain</title>
<path fill="none" stroke="gray" stroke-dasharray="5,2" d="M776.2,-115.15C748.98,-134.55 717.08,-157.27 696.49,-171.94"/>
</g>
<!-- &#45;attrs9 -->
<g id="node20" class="node">
<title>&#45;attrs9</title>
<polygon fill="none" stroke="gray" points="597.75,-467.75 490.25,-467.75 490.25,-431.75 603.75,-431.75 603.75,-461.75 597.75,-467.75"/>
<polyline fill="none" stroke="gray" points="597.75,-467.75 597.75,-461.75"/>
<polyline fill="none" stroke="gray" points="603.75,-461.75 597.75,-461.75"/>
<text text-anchor="start" x="500.25" y="-445.88" font-family="Times New Roman,serif" font-size="10.00">type:</text>
<text text-anchor="start" x="522.5" y="-445.88" font-family="Times New Roman,serif" font-size="10.00">cpm:senderAgent</text>
</g>
<!-- &#45;attrs9&#45;&gt;https://example.org/researchDataCentre -->
<!-- null _:_ -->
<g id="edge10" class="edge">
<title>&#45;attrs9&#45;&gt;https://example.org/researchDataCentre</title>
<path fill="none" stroke="gray" stroke-dasharray="5,2" d="M519.78,-468.23C501.24,-480.14 477.03,-495.69 459.77,-506.77"/>
</g>
</g>
</svg>
