<?xml version="1.0" encoding="UTF-8" standalone="no"?>
<!DOCTYPE svg PUBLIC "-//W3C//DTD SVG 1.1//EN"
 "http://www.w3.org/Graphics/SVG/1.1/DTD/svg11.dtd">
<!-- Generated by graphviz version 9.0.0 (20230911.1827)
 -->
<!-- Title: title Pages: 1 -->
<svg width="1136pt" height="499pt"
 viewBox="0.00 0.00 1136.00 498.75" xmlns="http://www.w3.org/2000/svg" xmlns:xlink="http://www.w3.org/1999/xlink">
<g id="graph0" class="graph" transform="scale(1 1) rotate(0) translate(4 494.75)">
<title>title</title>
<polygon fill="white" stroke="none" points="-4,4 -4,-494.75 1132,-494.75 1132,4 -4,4"/>
<g id="clust1" class="cluster">
<title>clusterhttp://_PLACEHOLER_:8000/api/v1/organizations/ORG/graphs/train</title>
<g id="a_clust1"><a xlink:href="http://_PLACEHOLER_:8000/api/v1/organizations/ORG/graphs/train" xlink:title="train">
<polygon fill="none" stroke="black" points="8,-8 8,-482.75 1120,-482.75 1120,-8 8,-8"/>
<text text-anchor="middle" x="564" y="-14.45" font-family="Times New Roman,serif" font-size="14.00">train</text>
</a>
</g>
</g>
<!-- https://example.org/training -->
<!-- PROV_ACTIVITY def:training -->
<g id="node1" class="node">
<title>https://example.org/training</title>
<g id="a_node1"><a xlink:href="https://example.org/training" xlink:title="training">
<polygon fill="#9fb1fc" stroke="#0000ff" points="330.25,-330.75 273.75,-330.75 273.75,-294.75 330.25,-294.75 330.25,-330.75"/>
<text text-anchor="middle" x="302" y="-307.32" font-family="Times New Roman,serif" font-size="14.00">training</text>
</a>
</g>
</g>
<!-- http://_PLACEHOLER_:8000/api/v1/connectors/trainTrainingTilesConnector -->
<!-- PROV_ENTITY conn:trainTrainingTilesConnector -->
<g id="node10" class="node">
<title>http://_PLACEHOLER_:8000/api/v1/connectors/trainTrainingTilesConnector</title>
<g id="a_node10"><a xlink:href="http://_PLACEHOLER_:8000/api/v1/connectors/trainTrainingTilesConnector" xlink:title="trainTrainingTilesConnector">
<ellipse fill="#fffc87" stroke="#808080" cx="368" cy="-384.75" rx="114.44" ry="18"/>
<text text-anchor="middle" x="368" y="-379.32" font-family="Times New Roman,serif" font-size="14.00">trainTrainingTilesConnector</text>
</a>
</g>
</g>
<!-- https://example.org/training&#45;&gt;http://_PLACEHOLER_:8000/api/v1/connectors/trainTrainingTilesConnector -->
<!-- PROV_USAGE _:_ -->
<g id="edge10" class="edge">
<title>https://example.org/training&#45;&gt;http://_PLACEHOLER_:8000/api/v1/connectors/trainTrainingTilesConnector</title>
<path fill="none" stroke="black" d="M318.31,-331.05C326.07,-339.28 335.49,-349.27 344.03,-358.33"/>
<polygon fill="black" stroke="black" points="341.43,-360.67 350.83,-365.54 346.52,-355.87 341.43,-360.67"/>
<text text-anchor="middle" x="332.91" y="-325.25" font-family="Times New Roman,serif" font-size="8.00">use</text>
</g>
<!-- &#45;attrs0 -->
<g id="node2" class="node">
<title>&#45;attrs0</title>
<polygon fill="none" stroke="gray" points="366,-258.75 232,-258.75 232,-209.75 372,-209.75 372,-252.75 366,-258.75"/>
<polyline fill="none" stroke="gray" points="366,-258.75 366,-252.75"/>
<polyline fill="none" stroke="gray" points="372,-252.75 366,-252.75"/>
<text text-anchor="start" x="242" y="-243.25" font-family="Times New Roman,serif" font-size="10.00">type:</text>
<text text-anchor="start" x="291.75" y="-243.25" font-family="Times New Roman,serif" font-size="10.00">cpm:mainActivity</text>
<text text-anchor="start" x="242" y="-230.25" font-family="Times New Roman,serif" font-size="10.00">hasPart:</text>
<text text-anchor="start" x="292" y="-230.25" font-family="Times New Roman,serif" font-size="10.00">def:prostateTrain</text>
<text text-anchor="start" x="241.62" y="-217.25" font-family="Times New Roman,serif" font-size="10.00">metabundle:</text>
<text text-anchor="start" x="292" y="-217.25" font-family="Times New Roman,serif" font-size="10.00">meta:trainMeta</text>
</g>
<!-- &#45;attrs0&#45;&gt;https://example.org/training -->
<!-- null _:_ -->
<g id="edge1" class="edge">
<title>&#45;attrs0&#45;&gt;https://example.org/training</title>
<path fill="none" stroke="gray" stroke-dasharray="5,2" d="M302,-259.04C302,-270.44 302,-283.85 302,-294.3"/>
</g>
<!-- https://example.org/prostateTrain -->
<!-- PROV_ACTIVITY def:prostateTrain -->
<g id="node3" class="node">
<title>https://example.org/prostateTrain</title>
<g id="a_node3"><a xlink:href="https://example.org/prostateTrain" xlink:title="prostateTrain">
<polygon fill="#9fb1fc" stroke="#0000ff" points="630.12,-252.25 539.88,-252.25 539.88,-216.25 630.12,-216.25 630.12,-252.25"/>
<text text-anchor="middle" x="585" y="-228.82" font-family="Times New Roman,serif" font-size="14.00">prostateTrain</text>
</a>
</g>
</g>
<!-- https://example.org/configTrain -->
<!-- PROV_ENTITY def:configTrain -->
<g id="node8" class="node">
<title>https://example.org/configTrain</title>
<g id="a_node8"><a xlink:href="https://example.org/configTrain" xlink:title="configTrain">
<ellipse fill="#fffc87" stroke="#808080" cx="796" cy="-312.75" rx="53.56" ry="18"/>
<text text-anchor="middle" x="796" y="-307.32" font-family="Times New Roman,serif" font-size="14.00">configTrain</text>
</a>
</g>
</g>
<!-- https://example.org/prostateTrain&#45;&gt;https://example.org/configTrain -->
<!-- PROV_USAGE _:_ -->
<g id="edge12" class="edge">
<title>https://example.org/prostateTrain&#45;&gt;https://example.org/configTrain</title>
<path fill="none" stroke="black" d="M624.06,-252.71C629.06,-254.81 634.13,-256.87 639,-258.75 674.78,-272.54 715.86,-286.34 747.02,-296.4"/>
<polygon fill="black" stroke="black" points="745.57,-299.61 756.16,-299.33 747.71,-292.95 745.57,-299.61"/>
<text text-anchor="middle" x="636" y="-241.27" font-family="Times New Roman,serif" font-size="8.00">use</text>
</g>
<!-- https://example.org/trainingTilesDataset -->
<!-- PROV_ENTITY def:trainingTilesDataset -->
<g id="node12" class="node">
<title>https://example.org/trainingTilesDataset</title>
<g id="a_node12"><a xlink:href="https://example.org/trainingTilesDataset" xlink:title="trainingTilesDataset">
<ellipse fill="#fffc87" stroke="#808080" cx="433" cy="-312.75" rx="83" ry="18"/>
<text text-anchor="middle" x="433" y="-307.32" font-family="Times New Roman,serif" font-size="14.00">trainingTilesDataset</text>
</a>
</g>
</g>
<!-- https://example.org/prostateTrain&#45;&gt;https://example.org/trainingTilesDataset -->
<!-- PROV_USAGE _:_ -->
<g id="edge11" class="edge">
<title>https://example.org/prostateTrain&#45;&gt;https://example.org/trainingTilesDataset</title>
<path fill="none" stroke="black" d="M550.51,-252.61C528.08,-263.9 498.69,-278.69 474.91,-290.66"/>
<polygon fill="black" stroke="black" points="473.47,-287.46 466.11,-295.08 476.62,-293.71 473.47,-287.46"/>
<text text-anchor="middle" x="549.65" y="-265.23" font-family="Times New Roman,serif" font-size="8.00">use</text>
</g>
<!-- https://example.org/configFile -->
<!-- PROV_ENTITY def:configFile -->
<g id="node4" class="node">
<title>https://example.org/configFile</title>
<g id="a_node4"><a xlink:href="https://example.org/configFile" xlink:title="configFile">
<ellipse fill="#fffc87" stroke="#808080" cx="879" cy="-384.75" rx="47.57" ry="18"/>
<text text-anchor="middle" x="879" y="-379.32" font-family="Times New Roman,serif" font-size="14.00">configFile</text>
</a>
</g>
</g>
<!-- &#45;attrs1 -->
<g id="node5" class="node">
<title>&#45;attrs1</title>
<polygon fill="none" stroke="gray" points="1052,-330.75 868,-330.75 868,-294.75 1058,-294.75 1058,-324.75 1052,-330.75"/>
<polyline fill="none" stroke="gray" points="1052,-330.75 1052,-324.75"/>
<polyline fill="none" stroke="gray" points="1058,-324.75 1052,-324.75"/>
<text text-anchor="start" x="878" y="-315.25" font-family="Times New Roman,serif" font-size="10.00">path:</text>
<text text-anchor="start" x="905" y="-315.25" font-family="Times New Roman,serif" font-size="10.00">conf/config_resolved.yaml</text>
<text text-anchor="start" x="877.75" y="-302.25" font-family="Times New Roman,serif" font-size="10.00">runID:</text>
<text text-anchor="start" x="904.88" y="-302.25" font-family="Times New Roman,serif" font-size="10.00">6bc00f9abbd0465d865f0c1e1fa7196a</text>
</g>
<!-- &#45;attrs1&#45;&gt;https://example.org/configFile -->
<!-- null _:_ -->
<g id="edge2" class="edge">
<title>&#45;attrs1&#45;&gt;https://example.org/configFile</title>
<path fill="none" stroke="gray" stroke-dasharray="5,2" d="M942.24,-331.05C928.73,-342.31 911.25,-356.88 898.09,-367.84"/>
</g>
<!-- https://example.org/logsTrain -->
<!-- PROV_ENTITY def:logsTrain -->
<g id="node6" class="node">
<title>https://example.org/logsTrain</title>
<g id="a_node6"><a xlink:href="https://example.org/logsTrain" xlink:title="logsTrain">
<ellipse fill="#fffc87" stroke="#808080" cx="678" cy="-155.75" rx="45.57" ry="18"/>
<text text-anchor="middle" x="678" y="-150.32" font-family="Times New Roman,serif" font-size="14.00">logsTrain</text>
</a>
</g>
</g>
<!-- https://example.org/logsTrain&#45;&gt;https://example.org/prostateTrain -->
<!-- PROV_GENERATION _:_ -->
<g id="edge14" class="edge">
<title>https://example.org/logsTrain&#45;&gt;https://example.org/prostateTrain</title>
<path fill="none" stroke="black" d="M659.18,-172.23C646.43,-182.72 629.32,-196.79 614.75,-208.78"/>
<polygon fill="black" stroke="black" points="612.73,-205.91 607.23,-214.96 617.18,-211.31 612.73,-205.91"/>
<text text-anchor="middle" x="661.64" y="-184.68" font-family="Times New Roman,serif" font-size="8.00">gen</text>
</g>
<!-- &#45;attrs2 -->
<g id="node7" class="node">
<title>&#45;attrs2</title>
<polygon fill="none" stroke="gray" points="1009,-101.75 559,-101.75 559,-39.75 1015,-39.75 1015,-95.75 1009,-101.75"/>
<polyline fill="none" stroke="gray" points="1009,-101.75 1009,-95.75"/>
<polyline fill="none" stroke="gray" points="1015,-95.75 1009,-95.75"/>
<text text-anchor="start" x="569" y="-86.25" font-family="Times New Roman,serif" font-size="10.00">type:</text>
<text text-anchor="start" x="596" y="-86.25" font-family="Times New Roman,serif" font-size="10.00">repr:Log</text>
<text text-anchor="start" x="569" y="-73.25" font-family="Times New Roman,serif" font-size="10.00">path:</text>
<text text-anchor="start" x="596" y="-73.25" font-family="Times New Roman,serif" font-size="10.00">logs/task.log</text>
<text text-anchor="start" x="568.75" y="-60.25" font-family="Times New Roman,serif" font-size="10.00">runID:</text>
<text text-anchor="start" x="596" y="-60.25" font-family="Times New Roman,serif" font-size="10.00">6bc00f9abbd0465d865f0c1e1fa7196a</text>
<text text-anchor="start" x="569" y="-47.25" font-family="Times New Roman,serif" font-size="10.00">data:</text>
<text text-anchor="start" x="595.75" y="-47.25" font-family="Times New Roman,serif" font-size="10.00">[2024&#45;01&#45;16 16:40:56,449][task_cli][INFO] &#45; [Reproducibility] Seeding everything. Seed=289824339. De...</text>
</g>
<!-- &#45;attrs2&#45;&gt;https://example.org/logsTrain -->
<!-- null _:_ -->
<g id="edge3" class="edge">
<title>&#45;attrs2&#45;&gt;https://example.org/logsTrain</title>
<path fill="none" stroke="gray" stroke-dasharray="5,2" d="M747.03,-102.18C730.5,-114.77 712.06,-128.82 698.39,-139.22"/>
</g>
<!-- https://example.org/configTrain&#45;&gt;https://example.org/configFile -->
<!-- PROV_DERIVATION _:_ -->
<g id="edge17" class="edge">
<title>https://example.org/configTrain&#45;&gt;https://example.org/configFile</title>
<path fill="none" stroke="black" d="M815.25,-329.99C826.01,-339.06 839.61,-350.53 851.48,-360.54"/>
<polygon fill="black" stroke="black" points="849.08,-363.1 858.98,-366.87 853.6,-357.75 849.08,-363.1"/>
<text text-anchor="middle" x="829.36" y="-322.54" font-family="Times New Roman,serif" font-size="8.00">der</text>
</g>
<!-- &#45;attrs3 -->
<g id="node9" class="node">
<title>&#45;attrs3</title>
<polygon fill="none" stroke="gray" points="1105.88,-252.25 648.12,-252.25 648.12,-216.25 1111.88,-216.25 1111.88,-246.25 1105.88,-252.25"/>
<polyline fill="none" stroke="gray" points="1105.88,-252.25 1105.88,-246.25"/>
<polyline fill="none" stroke="gray" points="1111.88,-246.25 1105.88,-246.25"/>
<text text-anchor="start" x="658.12" y="-230.38" font-family="Times New Roman,serif" font-size="10.00">data:</text>
<text text-anchor="start" x="679.62" y="-230.38" font-family="Times New Roman,serif" font-size="10.00">{&quot;ml&quot;:{&quot;_target_&quot;:&quot;histopipe.ml.HistoPipeModule&quot;,&quot;net&quot;:{&quot;features&quot;:{&quot;_target_&quot;:&quot;histopipe.ml.nets.VG...</text>
</g>
<!-- &#45;attrs3&#45;&gt;https://example.org/configTrain -->
<!-- null _:_ -->
<g id="edge4" class="edge">
<title>&#45;attrs3&#45;&gt;https://example.org/configTrain</title>
<path fill="none" stroke="gray" stroke-dasharray="5,2" d="M860.94,-252.61C846.8,-265.48 827.67,-282.91 813.84,-295.51"/>
</g>
<!-- https://example.org/researchDataCentre -->
<!-- PROV_AGENT def:researchDataCentre -->
<g id="node18" class="node">
<title>https://example.org/researchDataCentre</title>
<g id="a_node18"><a xlink:href="https://example.org/researchDataCentre" xlink:title="researchDataCentre">
<polygon fill="#fdb266" stroke="black" points="375.59,-462.31 273,-474.75 170.41,-462.31 170.5,-442.19 375.5,-442.19 375.59,-462.31"/>
<text text-anchor="middle" x="273" y="-451.32" font-family="Times New Roman,serif" font-size="14.00">researchDataCentre</text>
</a>
</g>
</g>
<!-- http://_PLACEHOLER_:8000/api/v1/connectors/trainTrainingTilesConnector&#45;&gt;https://example.org/researchDataCentre -->
<!-- PROV_ATTRIBUTION _:_ -->
<g id="edge20" class="edge">
<title>http://_PLACEHOLER_:8000/api/v1/connectors/trainTrainingTilesConnector&#45;&gt;https://example.org/researchDataCentre</title>
<path fill="none" stroke="black" d="M345,-402.7C331.8,-412.43 315.11,-424.72 301.13,-435.03"/>
<polygon fill="black" stroke="black" points="299.15,-432.14 293.17,-440.89 303.3,-437.77 299.15,-432.14"/>
<text text-anchor="middle" x="346.67" y="-415.25" font-family="Times New Roman,serif" font-size="8.00">att</text>
</g>
<!-- &#45;attrs4 -->
<g id="node11" class="node">
<title>&#45;attrs4</title>
<polygon fill="none" stroke="gray" points="718.5,-330.75 533.5,-330.75 533.5,-294.75 724.5,-294.75 724.5,-324.75 718.5,-330.75"/>
<polyline fill="none" stroke="gray" points="718.5,-330.75 718.5,-324.75"/>
<polyline fill="none" stroke="gray" points="724.5,-324.75 718.5,-324.75"/>
<text text-anchor="start" x="543.5" y="-315.25" font-family="Times New Roman,serif" font-size="10.00">type:</text>
<text text-anchor="start" x="615.5" y="-315.25" font-family="Times New Roman,serif" font-size="10.00">cpm:backwardConnector</text>
<text text-anchor="start" x="543.25" y="-302.25" font-family="Times New Roman,serif" font-size="10.00">receiverBundleId:</text>
<text text-anchor="start" x="615.5" y="-302.25" font-family="Times New Roman,serif" font-size="10.00">bndl:preprocTrain</text>
</g>
<!-- &#45;attrs4&#45;&gt;http://_PLACEHOLER_:8000/api/v1/connectors/trainTrainingTilesConnector -->
<!-- null _:_ -->
<g id="edge5" class="edge">
<title>&#45;attrs4&#45;&gt;http://_PLACEHOLER_:8000/api/v1/connectors/trainTrainingTilesConnector</title>
<path fill="none" stroke="gray" stroke-dasharray="5,2" d="M563.81,-331.23C520.78,-342.77 464.98,-357.74 423.96,-368.74"/>
</g>
<!-- https://example.org/trainingTilesDataset&#45;&gt;http://_PLACEHOLER_:8000/api/v1/connectors/trainTrainingTilesConnector -->
<!-- PROV_SPECIALIZATION _:_ -->
<g id="edge21" class="edge">
<title>https://example.org/trainingTilesDataset&#45;&gt;http://_PLACEHOLER_:8000/api/v1/connectors/trainTrainingTilesConnector</title>
<path fill="none" stroke="black" d="M417.27,-330.7C409.63,-338.91 400.31,-348.96 391.83,-358.09"/>
<polygon fill="black" stroke="black" points="389.31,-355.66 385.07,-365.37 394.44,-360.42 389.31,-355.66"/>
<text text-anchor="middle" x="421.68" y="-342.68" font-family="Times New Roman,serif" font-size="8.00">spe</text>
</g>
<!-- &#45;attrs5 -->
<g id="node13" class="node">
<title>&#45;attrs5</title>
<polygon fill="none" stroke="gray" points="475.5,-252.25 390.5,-252.25 390.5,-216.25 481.5,-216.25 481.5,-246.25 475.5,-252.25"/>
<polyline fill="none" stroke="gray" points="475.5,-252.25 475.5,-246.25"/>
<polyline fill="none" stroke="gray" points="481.5,-246.25 475.5,-246.25"/>
<text text-anchor="start" x="400.5" y="-230.38" font-family="Times New Roman,serif" font-size="10.00">type:</text>
<text text-anchor="start" x="422.75" y="-230.38" font-family="Times New Roman,serif" font-size="10.00">repr:Dataset</text>
</g>
<!-- &#45;attrs5&#45;&gt;https://example.org/trainingTilesDataset -->
<!-- null _:_ -->
<g id="edge6" class="edge">
<title>&#45;attrs5&#45;&gt;https://example.org/trainingTilesDataset</title>
<path fill="none" stroke="gray" stroke-dasharray="5,2" d="M435.32,-252.61C434.83,-265.13 434.17,-281.96 433.68,-294.46"/>
</g>
<!-- http://_PLACEHOLER_:8000/api/v1/connectors/trainedModelConnector -->
<!-- PROV_ENTITY conn:trainedModelConnector -->
<g id="node14" class="node">
<title>http://_PLACEHOLER_:8000/api/v1/connectors/trainedModelConnector</title>
<g id="a_node14"><a xlink:href="http://_PLACEHOLER_:8000/api/v1/connectors/trainedModelConnector" xlink:title="trainedModelConnector">
<ellipse fill="#fffc87" stroke="#808080" cx="115" cy="-234.25" rx="98.97" ry="18"/>
<text text-anchor="middle" x="115" y="-228.82" font-family="Times New Roman,serif" font-size="14.00">trainedModelConnector</text>
</a>
</g>
</g>
<!-- http://_PLACEHOLER_:8000/api/v1/connectors/trainedModelConnector&#45;&gt;https://example.org/training -->
<!-- PROV_GENERATION _:_ -->
<g id="edge13" class="edge">
<title>http://_PLACEHOLER_:8000/api/v1/connectors/trainedModelConnector&#45;&gt;https://example.org/training</title>
<path fill="none" stroke="black" d="M153.75,-251.1C185.75,-264.19 230.97,-282.69 263.04,-295.81"/>
<polygon fill="black" stroke="black" points="261.39,-298.92 271.97,-299.47 264.04,-292.44 261.39,-298.92"/>
<text text-anchor="middle" x="165.61" y="-239.57" font-family="Times New Roman,serif" font-size="8.00">gen</text>
</g>
<!-- http://_PLACEHOLER_:8000/api/v1/connectors/trainedModelConnector&#45;&gt;http://_PLACEHOLER_:8000/api/v1/connectors/trainTrainingTilesConnector -->
<!-- PROV_DERIVATION _:_ -->
<g id="edge16" class="edge">
<title>http://_PLACEHOLER_:8000/api/v1/connectors/trainedModelConnector&#45;&gt;http://_PLACEHOLER_:8000/api/v1/connectors/trainTrainingTilesConnector</title>
<path fill="none" stroke="black" d="M139.78,-252.02C169.18,-271.67 219.89,-304.85 265,-330.75 283.9,-341.6 305.25,-352.75 323.59,-362.02"/>
<polygon fill="black" stroke="black" points="321.85,-365.06 332.36,-366.42 324.99,-358.81 321.85,-365.06"/>
<text text-anchor="middle" x="153.22" y="-243.01" font-family="Times New Roman,serif" font-size="8.00">der</text>
</g>
<!-- &#45;attrs6 -->
<g id="node15" class="node">
<title>&#45;attrs6</title>
<polygon fill="none" stroke="gray" points="198.5,-173.75 25.5,-173.75 25.5,-137.75 204.5,-137.75 204.5,-167.75 198.5,-173.75"/>
<polyline fill="none" stroke="gray" points="198.5,-173.75 198.5,-167.75"/>
<polyline fill="none" stroke="gray" points="204.5,-167.75 198.5,-167.75"/>
<text text-anchor="start" x="35.5" y="-158.25" font-family="Times New Roman,serif" font-size="10.00">type:</text>
<text text-anchor="start" x="103.25" y="-158.25" font-family="Times New Roman,serif" font-size="10.00">cpm:forwardConnector</text>
<text text-anchor="start" x="35.5" y="-145.25" font-family="Times New Roman,serif" font-size="10.00">senderBundleId:</text>
<text text-anchor="start" x="103.5" y="-145.25" font-family="Times New Roman,serif" font-size="10.00">bndl:eval</text>
</g>
<!-- &#45;attrs6&#45;&gt;http://_PLACEHOLER_:8000/api/v1/connectors/trainedModelConnector -->
<!-- null _:_ -->
<g id="edge7" class="edge">
<title>&#45;attrs6&#45;&gt;http://_PLACEHOLER_:8000/api/v1/connectors/trainedModelConnector</title>
<path fill="none" stroke="gray" stroke-dasharray="5,2" d="M115,-174.11C115,-186.63 115,-203.46 115,-215.96"/>
</g>
<!-- https://example.org/trainedModel -->
<!-- PROV_ENTITY def:trainedModel -->
<g id="node16" class="node">
<title>https://example.org/trainedModel</title>
<g id="a_node16"><a xlink:href="https://example.org/trainedModel" xlink:title="trainedModel">
<ellipse fill="#fffc87" stroke="#808080" cx="501" cy="-155.75" rx="59.55" ry="18"/>
<text text-anchor="middle" x="501" y="-150.32" font-family="Times New Roman,serif" font-size="14.00">trainedModel</text>
</a>
</g>
</g>
<!-- https://example.org/trainedModel&#45;&gt;https://example.org/prostateTrain -->
<!-- PROV_GENERATION _:_ -->
<g id="edge15" class="edge">
<title>https://example.org/trainedModel&#45;&gt;https://example.org/prostateTrain</title>
<path fill="none" stroke="black" d="M519.23,-173.35C530.44,-183.56 545.02,-196.84 557.61,-208.3"/>
<polygon fill="black" stroke="black" points="555.07,-210.72 564.82,-214.87 559.78,-205.55 555.07,-210.72"/>
<text text-anchor="middle" x="533.52" y="-166.44" font-family="Times New Roman,serif" font-size="8.00">gen</text>
</g>
<!-- https://example.org/trainedModel&#45;&gt;https://example.org/configTrain -->
<!-- PROV_DERIVATION _:_ -->
<g id="edge19" class="edge">
<title>https://example.org/trainedModel&#45;&gt;https://example.org/configTrain</title>
<path fill="none" stroke="black" d="M500.87,-174.06C501.69,-197 506.79,-237.08 531,-258.75 599.27,-319.86 644.61,-274.61 734,-294.75 737.76,-295.6 741.64,-296.53 745.53,-297.5"/>
<polygon fill="black" stroke="black" points="744.42,-300.83 754.98,-299.94 746.18,-294.05 744.42,-300.83"/>
<text text-anchor="middle" x="514.24" y="-178.51" font-family="Times New Roman,serif" font-size="8.00">der</text>
</g>
<!-- https://example.org/trainedModel&#45;&gt;https://example.org/trainingTilesDataset -->
<!-- PROV_DERIVATION _:_ -->
<g id="edge18" class="edge">
<title>https://example.org/trainedModel&#45;&gt;https://example.org/trainingTilesDataset</title>
<path fill="none" stroke="black" d="M502.93,-174.02C504.51,-195.17 504.62,-231.54 491,-258.75 485.45,-269.84 476.52,-279.74 467.32,-287.9"/>
<polygon fill="black" stroke="black" points="465.17,-285.14 459.68,-294.2 469.62,-290.53 465.17,-285.14"/>
<text text-anchor="middle" x="516.36" y="-178.36" font-family="Times New Roman,serif" font-size="8.00">der</text>
</g>
<!-- https://example.org/trainedModel&#45;&gt;http://_PLACEHOLER_:8000/api/v1/connectors/trainedModelConnector -->
<!-- PROV_SPECIALIZATION _:_ -->
<g id="edge22" class="edge">
<title>https://example.org/trainedModel&#45;&gt;http://_PLACEHOLER_:8000/api/v1/connectors/trainedModelConnector</title>
<path fill="none" stroke="black" d="M450.95,-165.89C395.24,-176.16 302.55,-193.51 223,-209.75 211.34,-212.13 198.99,-214.74 186.97,-217.32"/>
<polygon fill="black" stroke="black" points="186.57,-213.82 177.54,-219.36 188.05,-220.67 186.57,-213.82"/>
<text text-anchor="middle" x="445.94" y="-177.68" font-family="Times New Roman,serif" font-size="8.00">spe</text>
</g>
<!-- &#45;attrs7 -->
<g id="node17" class="node">
<title>&#45;attrs7</title>
<polygon fill="none" stroke="gray" points="535,-95.25 351,-95.25 351,-46.25 541,-46.25 541,-89.25 535,-95.25"/>
<polyline fill="none" stroke="gray" points="535,-95.25 535,-89.25"/>
<polyline fill="none" stroke="gray" points="541,-89.25 535,-89.25"/>
<text text-anchor="start" x="361" y="-79.75" font-family="Times New Roman,serif" font-size="10.00">type:</text>
<text text-anchor="start" x="388" y="-79.75" font-family="Times New Roman,serif" font-size="10.00">repr:Model</text>
<text text-anchor="start" x="361" y="-66.75" font-family="Times New Roman,serif" font-size="10.00">path:</text>
<text text-anchor="start" x="388" y="-66.75" font-family="Times New Roman,serif" font-size="10.00">model/</text>
<text text-anchor="start" x="360.75" y="-53.75" font-family="Times New Roman,serif" font-size="10.00">runID:</text>
<text text-anchor="start" x="387.88" y="-53.75" font-family="Times New Roman,serif" font-size="10.00">6bc00f9abbd0465d865f0c1e1fa7196a</text>
</g>
<!-- &#45;attrs7&#45;&gt;https://example.org/trainedModel -->
<!-- null _:_ -->
<g id="edge8" class="edge">
<title>&#45;attrs7&#45;&gt;https://example.org/trainedModel</title>
<path fill="none" stroke="gray" stroke-dasharray="5,2" d="M461.61,-95.31C470.57,-108.83 481.61,-125.49 489.72,-137.73"/>
</g>
<!-- &#45;attrs8 -->
<g id="node19" class="node">
<title>&#45;attrs8</title>
<polygon fill="none" stroke="gray" points="229.75,-402.75 122.25,-402.75 122.25,-366.75 235.75,-366.75 235.75,-396.75 229.75,-402.75"/>
<polyline fill="none" stroke="gray" points="229.75,-402.75 229.75,-396.75"/>
<polyline fill="none" stroke="gray" points="235.75,-396.75 229.75,-396.75"/>
<text text-anchor="start" x="132.25" y="-380.88" font-family="Times New Roman,serif" font-size="10.00">type:</text>
<text text-anchor="start" x="154.5" y="-380.88" font-family="Times New Roman,serif" font-size="10.00">cpm:senderAgent</text>
</g>
<!-- &#45;attrs8&#45;&gt;https://example.org/researchDataCentre -->
<!-- null _:_ -->
<g id="edge9" class="edge">
<title>&#45;attrs8&#45;&gt;https://example.org/researchDataCentre</title>
<path fill="none" stroke="gray" stroke-dasharray="5,2" d="M202.24,-403.05C218.22,-414.96 239.18,-430.57 254.13,-441.7"/>
</g>
</g>
</svg>
