<?xml version="1.0" encoding="UTF-8" standalone="no"?>
<!DOCTYPE svg PUBLIC "-//W3C//DTD SVG 1.1//EN"
 "http://www.w3.org/Graphics/SVG/1.1/DTD/svg11.dtd">
<!-- Generated by graphviz version 9.0.0 (20230911.1827)
 -->
<!-- Title: title Pages: 1 -->
<svg width="1254pt" height="499pt"
 viewBox="0.00 0.00 1254.00 498.75" xmlns="http://www.w3.org/2000/svg" xmlns:xlink="http://www.w3.org/1999/xlink">
<g id="graph0" class="graph" transform="scale(1 1) rotate(0) translate(4 494.75)">
<title>title</title>
<polygon fill="white" stroke="none" points="-4,4 -4,-494.75 1250,-494.75 1250,4 -4,4"/>
<g id="clust1" class="cluster">
<title>clusterhttp://10.16.48.121:42069/api/v1/organizations/ORG/graphs/train</title>
<g id="a_clust1"><a xlink:href="http://10.16.48.121:42069/api/v1/organizations/ORG/graphs/train" xlink:title="train">
<polygon fill="none" stroke="black" points="8,-8 8,-482.75 1238,-482.75 1238,-8 8,-8"/>
<text text-anchor="middle" x="623" y="-14.45" font-family="Times New Roman,serif" font-size="14.00">train</text>
</a>
</g>
</g>
<!-- https://example.org/prostateTrain -->
<!-- PROV_ACTIVITY def:prostateTrain -->
<g id="node1" class="node">
<title>https://example.org/prostateTrain</title>
<g id="a_node1"><a xlink:href="https://example.org/prostateTrain" xlink:title="prostateTrain">
<polygon fill="#9fb1fc" stroke="#0000ff" points="216.12,-252.25 125.88,-252.25 125.88,-216.25 216.12,-216.25 216.12,-252.25"/>
<text text-anchor="middle" x="171" y="-228.82" font-family="Times New Roman,serif" font-size="14.00">prostateTrain</text>
</a>
</g>
</g>
<!-- https://example.org/trainingTilesDataset -->
<!-- PROV_ENTITY def:trainingTilesDataset -->
<g id="node7" class="node">
<title>https://example.org/trainingTilesDataset</title>
<g id="a_node7"><a xlink:href="https://example.org/trainingTilesDataset" xlink:title="trainingTilesDataset">
<ellipse fill="#fffc87" stroke="#808080" cx="186" cy="-312.75" rx="83" ry="18"/>
<text text-anchor="middle" x="186" y="-307.32" font-family="Times New Roman,serif" font-size="14.00">trainingTilesDataset</text>
</a>
</g>
</g>
<!-- https://example.org/prostateTrain&#45;&gt;https://example.org/trainingTilesDataset -->
<!-- PROV_USAGE _:_ -->
<g id="edge15" class="edge">
<title>https://example.org/prostateTrain&#45;&gt;https://example.org/trainingTilesDataset</title>
<path fill="none" stroke="black" d="M174.4,-252.61C176.19,-261.71 178.42,-273.08 180.44,-283.41"/>
<polygon fill="black" stroke="black" points="176.96,-283.83 182.32,-292.97 183.83,-282.49 176.96,-283.83"/>
<text text-anchor="middle" x="188.59" y="-255.12" font-family="Times New Roman,serif" font-size="8.00">use</text>
</g>
<!-- https://example.org/configTrain -->
<!-- PROV_ENTITY def:configTrain -->
<g id="node9" class="node">
<title>https://example.org/configTrain</title>
<g id="a_node9"><a xlink:href="https://example.org/configTrain" xlink:title="configTrain">
<ellipse fill="#fffc87" stroke="#808080" cx="565" cy="-312.75" rx="53.56" ry="18"/>
<text text-anchor="middle" x="565" y="-307.32" font-family="Times New Roman,serif" font-size="14.00">configTrain</text>
</a>
</g>
</g>
<!-- https://example.org/prostateTrain&#45;&gt;https://example.org/configTrain -->
<!-- PROV_USAGE _:_ -->
<g id="edge21" class="edge">
<title>https://example.org/prostateTrain&#45;&gt;https://example.org/configTrain</title>
<path fill="none" stroke="black" d="M216.24,-249.95C227.21,-253.17 238.96,-256.33 250,-258.75 360.52,-282.94 391.18,-271.97 502,-294.75 506.07,-295.59 510.26,-296.53 514.46,-297.54"/>
<polygon fill="black" stroke="black" points="513.5,-300.9 524.05,-299.94 515.2,-294.11 513.5,-300.9"/>
<text text-anchor="middle" x="227.07" y="-237.22" font-family="Times New Roman,serif" font-size="8.00">use</text>
</g>
<!-- &#45;attrs0 -->
<g id="node2" class="node">
<title>&#45;attrs0</title>
<polygon fill="none" stroke="gray" points="718,-173.75 126,-173.75 126,-137.75 724,-137.75 724,-167.75 718,-173.75"/>
<polyline fill="none" stroke="gray" points="718,-173.75 718,-167.75"/>
<polyline fill="none" stroke="gray" points="724,-167.75 718,-167.75"/>
<text text-anchor="start" x="136" y="-158.25" font-family="Times New Roman,serif" font-size="10.00">runID:</text>
<text text-anchor="start" x="168" y="-158.25" font-family="Times New Roman,serif" font-size="10.00">6bc00f9abbd0465d865f0c1e1fa7196a</text>
<text text-anchor="start" x="135.62" y="-145.25" font-family="Times New Roman,serif" font-size="10.00">metrics:</text>
<text text-anchor="start" x="168" y="-145.25" font-family="Times New Roman,serif" font-size="10.00">eyJ2YWxpZC9iaW5hcnlfYXVyb2MiOjAuODM2MjA0NzA3NjIyNTI4MSwidmFsaWQvYmluYXJ5X2FjY3VyYWN5IjowLjc0MjIwMDAx...</text>
</g>
<!-- &#45;attrs0&#45;&gt;https://example.org/prostateTrain -->
<!-- null _:_ -->
<g id="edge1" class="edge">
<title>&#45;attrs0&#45;&gt;https://example.org/prostateTrain</title>
<path fill="none" stroke="gray" stroke-dasharray="5,2" d="M353.1,-174.21C316.03,-183.73 270.27,-196.31 230,-209.75 224.46,-211.6 218.68,-213.69 213,-215.85"/>
</g>
<!-- https://example.org/training -->
<!-- PROV_ACTIVITY def:training -->
<g id="node3" class="node">
<title>https://example.org/training</title>
<g id="a_node3"><a xlink:href="https://example.org/training" xlink:title="training">
<polygon fill="#9fb1fc" stroke="#0000ff" points="944.25,-330.75 887.75,-330.75 887.75,-294.75 944.25,-294.75 944.25,-330.75"/>
<text text-anchor="middle" x="916" y="-307.32" font-family="Times New Roman,serif" font-size="14.00">training</text>
</a>
</g>
</g>
<!-- http://10.16.48.121:42069/api/v1/connectors/trainTilesConnector -->
<!-- PROV_ENTITY conn:trainTilesConnector -->
<g id="node15" class="node">
<title>http://10.16.48.121:42069/api/v1/connectors/trainTilesConnector</title>
<g id="a_node15"><a xlink:href="http://10.16.48.121:42069/api/v1/connectors/trainTilesConnector" xlink:title="trainTilesConnector">
<ellipse fill="#fffc87" stroke="#808080" cx="888" cy="-384.75" rx="84" ry="18"/>
<text text-anchor="middle" x="888" y="-379.32" font-family="Times New Roman,serif" font-size="14.00">trainTilesConnector</text>
</a>
</g>
</g>
<!-- https://example.org/training&#45;&gt;http://10.16.48.121:42069/api/v1/connectors/trainTilesConnector -->
<!-- PROV_USAGE _:_ -->
<g id="edge14" class="edge">
<title>https://example.org/training&#45;&gt;http://10.16.48.121:42069/api/v1/connectors/trainTilesConnector</title>
<path fill="none" stroke="black" d="M909.08,-331.05C906.06,-338.6 902.45,-347.63 899.07,-356.07"/>
<polygon fill="black" stroke="black" points="895.87,-354.66 895.4,-365.24 902.37,-357.26 895.87,-354.66"/>
<text text-anchor="middle" x="918.35" y="-340.49" font-family="Times New Roman,serif" font-size="8.00">use</text>
</g>
<!-- &#45;attrs1 -->
<g id="node4" class="node">
<title>&#45;attrs1</title>
<polygon fill="none" stroke="gray" points="1008,-258.75 874,-258.75 874,-209.75 1014,-209.75 1014,-252.75 1008,-258.75"/>
<polyline fill="none" stroke="gray" points="1008,-258.75 1008,-252.75"/>
<polyline fill="none" stroke="gray" points="1014,-252.75 1008,-252.75"/>
<text text-anchor="start" x="884" y="-243.25" font-family="Times New Roman,serif" font-size="10.00">type:</text>
<text text-anchor="start" x="933.75" y="-243.25" font-family="Times New Roman,serif" font-size="10.00">cpm:mainActivity</text>
<text text-anchor="start" x="883.62" y="-230.25" font-family="Times New Roman,serif" font-size="10.00">metabundle:</text>
<text text-anchor="start" x="934" y="-230.25" font-family="Times New Roman,serif" font-size="10.00">meta:trainMeta</text>
<text text-anchor="start" x="884" y="-217.25" font-family="Times New Roman,serif" font-size="10.00">hasPart:</text>
<text text-anchor="start" x="934" y="-217.25" font-family="Times New Roman,serif" font-size="10.00">def:prostateTrain</text>
</g>
<!-- &#45;attrs1&#45;&gt;https://example.org/training -->
<!-- null _:_ -->
<g id="edge2" class="edge">
<title>&#45;attrs1&#45;&gt;https://example.org/training</title>
<path fill="none" stroke="gray" stroke-dasharray="5,2" d="M935.29,-259.04C931.12,-270.44 926.21,-283.85 922.39,-294.3"/>
</g>
<!-- https://example.org/logsTrain -->
<!-- PROV_ENTITY def:logsTrain -->
<g id="node5" class="node">
<title>https://example.org/logsTrain</title>
<g id="a_node5"><a xlink:href="https://example.org/logsTrain" xlink:title="logsTrain">
<ellipse fill="#fffc87" stroke="#808080" cx="62" cy="-155.75" rx="45.57" ry="18"/>
<text text-anchor="middle" x="62" y="-150.32" font-family="Times New Roman,serif" font-size="14.00">logsTrain</text>
</a>
</g>
</g>
<!-- https://example.org/logsTrain&#45;&gt;https://example.org/prostateTrain -->
<!-- PROV_GENERATION _:_ -->
<g id="edge18" class="edge">
<title>https://example.org/logsTrain&#45;&gt;https://example.org/prostateTrain</title>
<path fill="none" stroke="black" d="M83.8,-172.05C99,-182.72 119.59,-197.17 136.94,-209.35"/>
<polygon fill="black" stroke="black" points="134.76,-212.09 144.96,-214.97 138.78,-206.36 134.76,-212.09"/>
<text text-anchor="middle" x="97.4" y="-163.37" font-family="Times New Roman,serif" font-size="8.00">gen</text>
</g>
<!-- &#45;attrs2 -->
<g id="node6" class="node">
<title>&#45;attrs2</title>
<polygon fill="none" stroke="gray" points="636,-101.75 16,-101.75 16,-39.75 642,-39.75 642,-95.75 636,-101.75"/>
<polyline fill="none" stroke="gray" points="636,-101.75 636,-95.75"/>
<polyline fill="none" stroke="gray" points="642,-95.75 636,-95.75"/>
<text text-anchor="start" x="26" y="-86.25" font-family="Times New Roman,serif" font-size="10.00">type:</text>
<text text-anchor="start" x="53" y="-86.25" font-family="Times New Roman,serif" font-size="10.00">repr:Log</text>
<text text-anchor="start" x="26" y="-73.25" font-family="Times New Roman,serif" font-size="10.00">data:</text>
<text text-anchor="start" x="52.62" y="-73.25" font-family="Times New Roman,serif" font-size="10.00">WzIwMjQtMDEtMTYgMTY6NDA6NTYsNDQ5XVt0YXNrX2NsaV1bSU5GT10gLSBbUmVwcm9kdWNpYmlsaXR5XSBTZWVkaW5nIGV2ZXJ5...</text>
<text text-anchor="start" x="25.75" y="-60.25" font-family="Times New Roman,serif" font-size="10.00">runID:</text>
<text text-anchor="start" x="53" y="-60.25" font-family="Times New Roman,serif" font-size="10.00">6bc00f9abbd0465d865f0c1e1fa7196a</text>
<text text-anchor="start" x="26" y="-47.25" font-family="Times New Roman,serif" font-size="10.00">path:</text>
<text text-anchor="start" x="53" y="-47.25" font-family="Times New Roman,serif" font-size="10.00">logs/task.log</text>
</g>
<!-- &#45;attrs2&#45;&gt;https://example.org/logsTrain -->
<!-- null _:_ -->
<g id="edge3" class="edge">
<title>&#45;attrs2&#45;&gt;https://example.org/logsTrain</title>
<path fill="none" stroke="gray" stroke-dasharray="5,2" d="M231.1,-102.18C184.21,-116.76 131.01,-133.3 97.01,-143.87"/>
</g>
<!-- http://10.16.48.121:42069/api/v1/connectors/trainTrainingTilesConnector -->
<g id="node21" class="node">
<title>http://10.16.48.121:42069/api/v1/connectors/trainTrainingTilesConnector</title>
<ellipse fill="none" stroke="black" cx="450" cy="-384.75" rx="279.6" ry="18"/>
<text text-anchor="middle" x="450" y="-379.32" font-family="Times New Roman,serif" font-size="14.00">http://10.16.48.121:42069/api/v1/connectors/trainTrainingTilesConnector</text>
</g>
<!-- https://example.org/trainingTilesDataset&#45;&gt;http://10.16.48.121:42069/api/v1/connectors/trainTrainingTilesConnector -->
<!-- PROV_SPECIALIZATION _:_ -->
<g id="edge23" class="edge">
<title>https://example.org/trainingTilesDataset&#45;&gt;http://10.16.48.121:42069/api/v1/connectors/trainTrainingTilesConnector</title>
<path fill="none" stroke="black" d="M237.21,-327.33C276.47,-337.74 331.22,-352.26 375.35,-363.96"/>
<polygon fill="black" stroke="black" points="374.3,-367.3 384.86,-366.48 376.1,-360.53 374.3,-367.3"/>
<text text-anchor="middle" x="247.79" y="-314.35" font-family="Times New Roman,serif" font-size="8.00">spe</text>
</g>
<!-- &#45;attrs3 -->
<g id="node8" class="node">
<title>&#45;attrs3</title>
<polygon fill="none" stroke="gray" points="101.5,-252.25 16.5,-252.25 16.5,-216.25 107.5,-216.25 107.5,-246.25 101.5,-252.25"/>
<polyline fill="none" stroke="gray" points="101.5,-252.25 101.5,-246.25"/>
<polyline fill="none" stroke="gray" points="107.5,-246.25 101.5,-246.25"/>
<text text-anchor="start" x="26.5" y="-230.38" font-family="Times New Roman,serif" font-size="10.00">type:</text>
<text text-anchor="start" x="48.75" y="-230.38" font-family="Times New Roman,serif" font-size="10.00">repr:Dataset</text>
</g>
<!-- &#45;attrs3&#45;&gt;https://example.org/trainingTilesDataset -->
<!-- null _:_ -->
<g id="edge4" class="edge">
<title>&#45;attrs3&#45;&gt;https://example.org/trainingTilesDataset</title>
<path fill="none" stroke="gray" stroke-dasharray="5,2" d="M90.14,-252.61C110.86,-265.39 138.86,-282.67 159.25,-295.25"/>
</g>
<!-- https://example.org/configFile -->
<!-- PROV_ENTITY def:configFile -->
<g id="node11" class="node">
<title>https://example.org/configFile</title>
<g id="a_node11"><a xlink:href="https://example.org/configFile" xlink:title="configFile">
<ellipse fill="#fffc87" stroke="#808080" cx="1072" cy="-384.75" rx="47.57" ry="18"/>
<text text-anchor="middle" x="1072" y="-379.32" font-family="Times New Roman,serif" font-size="14.00">configFile</text>
</a>
</g>
</g>
<!-- https://example.org/configTrain&#45;&gt;https://example.org/configFile -->
<!-- PROV_DERIVATION _:_ -->
<g id="edge11" class="edge">
<title>https://example.org/configTrain&#45;&gt;https://example.org/configFile</title>
<path fill="none" stroke="black" d="M615.4,-319.22C693.78,-327.93 849.56,-346.12 981,-366.75 993.52,-368.72 1006.96,-371.08 1019.57,-373.42"/>
<polygon fill="black" stroke="black" points="1018.9,-376.85 1029.38,-375.26 1020.2,-369.97 1018.9,-376.85"/>
<text text-anchor="middle" x="624.3" y="-304.8" font-family="Times New Roman,serif" font-size="8.00">der</text>
</g>
<!-- &#45;attrs4 -->
<g id="node10" class="node">
<title>&#45;attrs4</title>
<polygon fill="none" stroke="gray" points="849.75,-252.25 274.25,-252.25 274.25,-216.25 855.75,-216.25 855.75,-246.25 849.75,-252.25"/>
<polyline fill="none" stroke="gray" points="849.75,-252.25 849.75,-246.25"/>
<polyline fill="none" stroke="gray" points="855.75,-246.25 849.75,-246.25"/>
<text text-anchor="start" x="284.25" y="-230.38" font-family="Times New Roman,serif" font-size="10.00">data:</text>
<text text-anchor="start" x="305.75" y="-230.38" font-family="Times New Roman,serif" font-size="10.00">bWw6CiAgX3RhcmdldF86IGhpc3RvcGlwZS5tbC5IaXN0b1BpcGVNb2R1bGUKICBuZXQ6CiAgICBmZWF0dXJlczoKICAgICAgX3Rh...</text>
</g>
<!-- &#45;attrs4&#45;&gt;https://example.org/configTrain -->
<!-- null _:_ -->
<g id="edge5" class="edge">
<title>&#45;attrs4&#45;&gt;https://example.org/configTrain</title>
<path fill="none" stroke="gray" stroke-dasharray="5,2" d="M565,-252.61C565,-265.13 565,-281.96 565,-294.46"/>
</g>
<!-- &#45;attrs5 -->
<g id="node12" class="node">
<title>&#45;attrs5</title>
<polygon fill="none" stroke="gray" points="1166,-330.75 982,-330.75 982,-294.75 1172,-294.75 1172,-324.75 1166,-330.75"/>
<polyline fill="none" stroke="gray" points="1166,-330.75 1166,-324.75"/>
<polyline fill="none" stroke="gray" points="1172,-324.75 1166,-324.75"/>
<text text-anchor="start" x="991.75" y="-315.25" font-family="Times New Roman,serif" font-size="10.00">runID:</text>
<text text-anchor="start" x="1018.88" y="-315.25" font-family="Times New Roman,serif" font-size="10.00">6bc00f9abbd0465d865f0c1e1fa7196a</text>
<text text-anchor="start" x="992" y="-302.25" font-family="Times New Roman,serif" font-size="10.00">path:</text>
<text text-anchor="start" x="1019" y="-302.25" font-family="Times New Roman,serif" font-size="10.00">conf/config_resolved.yaml</text>
</g>
<!-- &#45;attrs5&#45;&gt;https://example.org/configFile -->
<!-- null _:_ -->
<g id="edge6" class="edge">
<title>&#45;attrs5&#45;&gt;https://example.org/configFile</title>
<path fill="none" stroke="gray" stroke-dasharray="5,2" d="M1075.76,-331.05C1074.99,-341.9 1073.99,-355.83 1073.22,-366.65"/>
</g>
<!-- http://10.16.48.121:42069/api/v1/connectors/trainedModelConnector -->
<!-- PROV_ENTITY conn:trainedModelConnector -->
<g id="node13" class="node">
<title>http://10.16.48.121:42069/api/v1/connectors/trainedModelConnector</title>
<g id="a_node13"><a xlink:href="http://10.16.48.121:42069/api/v1/connectors/trainedModelConnector" xlink:title="trainedModelConnector">
<ellipse fill="#fffc87" stroke="#808080" cx="1131" cy="-234.25" rx="98.97" ry="18"/>
<text text-anchor="middle" x="1131" y="-228.82" font-family="Times New Roman,serif" font-size="14.00">trainedModelConnector</text>
</a>
</g>
</g>
<!-- http://10.16.48.121:42069/api/v1/connectors/trainedModelConnector&#45;&gt;https://example.org/training -->
<!-- PROV_GENERATION _:_ -->
<g id="edge19" class="edge">
<title>http://10.16.48.121:42069/api/v1/connectors/trainedModelConnector&#45;&gt;https://example.org/training</title>
<path fill="none" stroke="black" d="M1084.5,-250.49C1049.54,-262.14 1000.54,-278.84 958,-294.75 957.03,-295.11 956.05,-295.48 955.07,-295.86"/>
<polygon fill="black" stroke="black" points="953.84,-292.58 945.8,-299.47 956.38,-299.1 953.84,-292.58"/>
<text text-anchor="middle" x="1081.5" y="-262.84" font-family="Times New Roman,serif" font-size="8.00">gen</text>
</g>
<!-- http://10.16.48.121:42069/api/v1/connectors/trainedModelConnector&#45;&gt;http://10.16.48.121:42069/api/v1/connectors/trainTilesConnector -->
<!-- PROV_DERIVATION _:_ -->
<g id="edge20" class="edge">
<title>http://10.16.48.121:42069/api/v1/connectors/trainedModelConnector&#45;&gt;http://10.16.48.121:42069/api/v1/connectors/trainTilesConnector</title>
<path fill="none" stroke="black" d="M1067.15,-248.33C1036.01,-257.26 999.63,-271.77 973,-294.75 959.14,-306.71 964.75,-316.71 953,-330.75 943.87,-341.65 932.25,-351.95 921.37,-360.52"/>
<polygon fill="black" stroke="black" points="919.51,-357.53 913.67,-366.37 923.75,-363.1 919.51,-357.53"/>
<text text-anchor="middle" x="1063.71" y="-260.58" font-family="Times New Roman,serif" font-size="8.00">der</text>
</g>
<!-- &#45;attrs6 -->
<g id="node14" class="node">
<title>&#45;attrs6</title>
<polygon fill="none" stroke="gray" points="1214.5,-173.75 1041.5,-173.75 1041.5,-137.75 1220.5,-137.75 1220.5,-167.75 1214.5,-173.75"/>
<polyline fill="none" stroke="gray" points="1214.5,-173.75 1214.5,-167.75"/>
<polyline fill="none" stroke="gray" points="1220.5,-167.75 1214.5,-167.75"/>
<text text-anchor="start" x="1051.5" y="-158.25" font-family="Times New Roman,serif" font-size="10.00">type:</text>
<text text-anchor="start" x="1119.25" y="-158.25" font-family="Times New Roman,serif" font-size="10.00">cpm:forwardConnector</text>
<text text-anchor="start" x="1051.5" y="-145.25" font-family="Times New Roman,serif" font-size="10.00">senderBundleId:</text>
<text text-anchor="start" x="1119.5" y="-145.25" font-family="Times New Roman,serif" font-size="10.00">bndl:eval</text>
</g>
<!-- &#45;attrs6&#45;&gt;http://10.16.48.121:42069/api/v1/connectors/trainedModelConnector -->
<!-- null _:_ -->
<g id="edge7" class="edge">
<title>&#45;attrs6&#45;&gt;http://10.16.48.121:42069/api/v1/connectors/trainedModelConnector</title>
<path fill="none" stroke="gray" stroke-dasharray="5,2" d="M1131,-174.11C1131,-186.63 1131,-203.46 1131,-215.96"/>
</g>
<!-- https://example.org/researchDataCentre -->
<!-- PROV_AGENT def:researchDataCentre -->
<g id="node19" class="node">
<title>https://example.org/researchDataCentre</title>
<g id="a_node19"><a xlink:href="https://example.org/researchDataCentre" xlink:title="researchDataCentre">
<polygon fill="#fdb266" stroke="black" points="605.59,-462.31 503,-474.75 400.41,-462.31 400.5,-442.19 605.5,-442.19 605.59,-462.31"/>
<text text-anchor="middle" x="503" y="-451.32" font-family="Times New Roman,serif" font-size="14.00">researchDataCentre</text>
</a>
</g>
</g>
<!-- http://10.16.48.121:42069/api/v1/connectors/trainTilesConnector&#45;&gt;https://example.org/researchDataCentre -->
<!-- PROV_ATTRIBUTION _:_ -->
<g id="edge16" class="edge">
<title>http://10.16.48.121:42069/api/v1/connectors/trainTilesConnector&#45;&gt;https://example.org/researchDataCentre</title>
<path fill="none" stroke="black" d="M825.72,-397.07C762.18,-408.63 663.03,-426.65 591.39,-439.68"/>
<polygon fill="black" stroke="black" points="590.84,-436.22 581.62,-441.45 592.09,-443.11 590.84,-436.22"/>
<text text-anchor="middle" x="820.66" y="-408.85" font-family="Times New Roman,serif" font-size="8.00">att</text>
</g>
<!-- &#45;attrs7 -->
<g id="node16" class="node">
<title>&#45;attrs7</title>
<polygon fill="none" stroke="gray" points="487.5,-330.75 302.5,-330.75 302.5,-294.75 493.5,-294.75 493.5,-324.75 487.5,-330.75"/>
<polyline fill="none" stroke="gray" points="487.5,-330.75 487.5,-324.75"/>
<polyline fill="none" stroke="gray" points="493.5,-324.75 487.5,-324.75"/>
<text text-anchor="start" x="312.5" y="-315.25" font-family="Times New Roman,serif" font-size="10.00">type:</text>
<text text-anchor="start" x="384.5" y="-315.25" font-family="Times New Roman,serif" font-size="10.00">cpm:backwardConnector</text>
<text text-anchor="start" x="312.25" y="-302.25" font-family="Times New Roman,serif" font-size="10.00">receiverBundleId:</text>
<text text-anchor="start" x="384.5" y="-302.25" font-family="Times New Roman,serif" font-size="10.00">bndl:preprocTrain</text>
</g>
<!-- &#45;attrs7&#45;&gt;http://10.16.48.121:42069/api/v1/connectors/trainTilesConnector -->
<!-- null _:_ -->
<g id="edge8" class="edge">
<title>&#45;attrs7&#45;&gt;http://10.16.48.121:42069/api/v1/connectors/trainTilesConnector</title>
<path fill="none" stroke="gray" stroke-dasharray="5,2" d="M493.76,-329.5C496.53,-329.92 499.29,-330.34 502,-330.75 612.04,-347.29 740.04,-364.46 817.49,-374.62"/>
</g>
<!-- https://example.org/trainedModel -->
<!-- PROV_ENTITY def:trainedModel -->
<g id="node17" class="node">
<title>https://example.org/trainedModel</title>
<g id="a_node17"><a xlink:href="https://example.org/trainedModel" xlink:title="trainedModel">
<ellipse fill="#fffc87" stroke="#808080" cx="802" cy="-155.75" rx="59.55" ry="18"/>
<text text-anchor="middle" x="802" y="-150.32" font-family="Times New Roman,serif" font-size="14.00">trainedModel</text>
</a>
</g>
</g>
<!-- https://example.org/trainedModel&#45;&gt;https://example.org/prostateTrain -->
<!-- PROV_GENERATION _:_ -->
<g id="edge22" class="edge">
<title>https://example.org/trainedModel&#45;&gt;https://example.org/prostateTrain</title>
<path fill="none" stroke="black" d="M758.8,-168.59C750.3,-170.58 741.41,-172.42 733,-173.75 511.61,-208.68 448.47,-159.69 230,-209.75 226.88,-210.47 223.7,-211.32 220.53,-212.28"/>
<polygon fill="black" stroke="black" points="219.63,-208.89 211.25,-215.37 221.84,-215.53 219.63,-208.89"/>
<text text-anchor="middle" x="754.42" y="-180.58" font-family="Times New Roman,serif" font-size="8.00">gen</text>
</g>
<!-- https://example.org/trainedModel&#45;&gt;https://example.org/trainingTilesDataset -->
<!-- PROV_DERIVATION _:_ -->
<g id="edge13" class="edge">
<title>https://example.org/trainedModel&#45;&gt;https://example.org/trainingTilesDataset</title>
<path fill="none" stroke="black" d="M758.79,-168.57C750.29,-170.56 741.41,-172.41 733,-173.75 626.93,-190.66 340.92,-151 251,-209.75 230.36,-223.24 238.12,-237.88 225,-258.75 219.35,-267.75 212.65,-277.2 206.42,-285.59"/>
<polygon fill="black" stroke="black" points="203.81,-283.24 200.58,-293.33 209.4,-287.46 203.81,-283.24"/>
<text text-anchor="middle" x="754.42" y="-180.56" font-family="Times New Roman,serif" font-size="8.00">der</text>
</g>
<!-- https://example.org/trainedModel&#45;&gt;https://example.org/configTrain -->
<!-- PROV_DERIVATION _:_ -->
<g id="edge12" class="edge">
<title>https://example.org/trainedModel&#45;&gt;https://example.org/configTrain</title>
<path fill="none" stroke="black" d="M758.79,-168.55C750.29,-170.54 741.41,-172.4 733,-173.75 681.51,-182.02 300.44,-171.48 265,-209.75 250.2,-225.73 250.8,-242.23 265,-258.75 299.72,-299.15 449.87,-283.79 502,-294.75 506,-295.59 510.13,-296.53 514.27,-297.53"/>
<polygon fill="black" stroke="black" points="513.15,-300.86 523.7,-299.91 514.86,-294.07 513.15,-300.86"/>
<text text-anchor="middle" x="754.42" y="-180.55" font-family="Times New Roman,serif" font-size="8.00">der</text>
</g>
<!-- https://example.org/trainedModel&#45;&gt;http://10.16.48.121:42069/api/v1/connectors/trainedModelConnector -->
<!-- PROV_SPECIALIZATION _:_ -->
<g id="edge17" class="edge">
<title>https://example.org/trainedModel&#45;&gt;http://10.16.48.121:42069/api/v1/connectors/trainedModelConnector</title>
<path fill="none" stroke="black" d="M848.09,-167.47C903.34,-180.31 996.51,-201.98 1060.74,-216.91"/>
<polygon fill="black" stroke="black" points="1059.58,-220.24 1070.11,-219.09 1061.16,-213.42 1059.58,-220.24"/>
<text text-anchor="middle" x="858.34" y="-154.16" font-family="Times New Roman,serif" font-size="8.00">spe</text>
</g>
<!-- &#45;attrs8 -->
<g id="node18" class="node">
<title>&#45;attrs8</title>
<polygon fill="none" stroke="gray" points="891,-95.25 707,-95.25 707,-46.25 897,-46.25 897,-89.25 891,-95.25"/>
<polyline fill="none" stroke="gray" points="891,-95.25 891,-89.25"/>
<polyline fill="none" stroke="gray" points="897,-89.25 891,-89.25"/>
<text text-anchor="start" x="717" y="-79.75" font-family="Times New Roman,serif" font-size="10.00">type:</text>
<text text-anchor="start" x="744" y="-79.75" font-family="Times New Roman,serif" font-size="10.00">repr:Model</text>
<text text-anchor="start" x="716.75" y="-66.75" font-family="Times New Roman,serif" font-size="10.00">runID:</text>
<text text-anchor="start" x="743.88" y="-66.75" font-family="Times New Roman,serif" font-size="10.00">6bc00f9abbd0465d865f0c1e1fa7196a</text>
<text text-anchor="start" x="717" y="-53.75" font-family="Times New Roman,serif" font-size="10.00">path:</text>
<text text-anchor="start" x="744" y="-53.75" font-family="Times New Roman,serif" font-size="10.00">model/</text>
</g>
<!-- &#45;attrs8&#45;&gt;https://example.org/trainedModel -->
<!-- null _:_ -->
<g id="edge9" class="edge">
<title>&#45;attrs8&#45;&gt;https://example.org/trainedModel</title>
<path fill="none" stroke="gray" stroke-dasharray="5,2" d="M802,-95.31C802,-108.73 802,-125.25 802,-137.46"/>
</g>
<!-- &#45;attrs9 -->
<g id="node20" class="node">
<title>&#45;attrs9</title>
<polygon fill="none" stroke="gray" points="146.75,-402.75 39.25,-402.75 39.25,-366.75 152.75,-366.75 152.75,-396.75 146.75,-402.75"/>
<polyline fill="none" stroke="gray" points="146.75,-402.75 146.75,-396.75"/>
<polyline fill="none" stroke="gray" points="152.75,-396.75 146.75,-396.75"/>
<text text-anchor="start" x="49.25" y="-380.88" font-family="Times New Roman,serif" font-size="10.00">type:</text>
<text text-anchor="start" x="71.5" y="-380.88" font-family="Times New Roman,serif" font-size="10.00">cpm:senderAgent</text>
</g>
<!-- &#45;attrs9&#45;&gt;https://example.org/researchDataCentre -->
<!-- null _:_ -->
<g id="edge10" class="edge">
<title>&#45;attrs9&#45;&gt;https://example.org/researchDataCentre</title>
<path fill="none" stroke="gray" stroke-dasharray="5,2" d="M152.99,-401.01C155.69,-401.62 158.37,-402.2 161,-402.75 240.86,-419.34 332.19,-433.23 400.37,-442.63"/>
</g>
</g>
</svg>
