<?xml version="1.0" encoding="UTF-8" standalone="no"?>
<!DOCTYPE svg PUBLIC "-//W3C//DTD SVG 1.1//EN"
 "http://www.w3.org/Graphics/SVG/1.1/DTD/svg11.dtd">
<!-- Generated by graphviz version 9.0.0 (20230911.1827)
 -->
<!-- Title: title Pages: 1 -->
<svg width="1065pt" height="388pt"
 viewBox="0.00 0.00 1065.00 387.75" xmlns="http://www.w3.org/2000/svg" xmlns:xlink="http://www.w3.org/1999/xlink">
<g id="graph0" class="graph" transform="scale(1 1) rotate(0) translate(4 383.75)">
<title>title</title>
<polygon fill="white" stroke="none" points="-4,4 -4,-383.75 1061,-383.75 1061,4 -4,4"/>
<g id="clust1" class="cluster">
<title>clusterhttps://gitlab.ics.muni.cz/422328/pid&#45;test/&#45;/blob/master/provn/train.provn</title>
<g id="a_clust1"><a xlink:href="https://gitlab.ics.muni.cz/422328/pid-test/-/blob/master/provn/train.provn" xlink:title="train.provn">
<polygon fill="none" stroke="black" points="8,-8 8,-371.75 1049,-371.75 1049,-8 8,-8"/>
<text text-anchor="middle" x="528.5" y="-14.45" font-family="Times New Roman,serif" font-size="14.00">train.provn</text>
</a>
</g>
</g>
<!-- https://gitlab.ics.muni.cz/422328/pid&#45;test/&#45;/blob/master/training -->
<!-- PROV_ACTIVITY null:training -->
<g id="node1" class="node">
<title>https://gitlab.ics.muni.cz/422328/pid&#45;test/&#45;/blob/master/training</title>
<g id="a_node1"><a xlink:href="https://gitlab.ics.muni.cz/422328/pid-test/-/blob/master/training" xlink:title="training">
<polygon fill="#9fb1fc" stroke="#0000ff" points="825.25,-219.75 768.75,-219.75 768.75,-183.75 825.25,-183.75 825.25,-219.75"/>
<text text-anchor="middle" x="797" y="-196.32" font-family="Times New Roman,serif" font-size="14.00">training</text>
</a>
</g>
</g>
<!-- https://doi.org/10.58092/trainTrainingTilesConnector -->
<!-- PROV_ENTITY doi:trainTrainingTilesConnector -->
<g id="node4" class="node">
<title>https://doi.org/10.58092/trainTrainingTilesConnector</title>
<g id="a_node4"><a xlink:href="https://doi.org/10.58092/trainTrainingTilesConnector" xlink:title="trainTrainingTilesConnector">
<ellipse fill="#fffc87" stroke="#808080" cx="750" cy="-273.75" rx="114.44" ry="18"/>
<text text-anchor="middle" x="750" y="-268.32" font-family="Times New Roman,serif" font-size="14.00">trainTrainingTilesConnector</text>
</a>
</g>
</g>
<!-- https://gitlab.ics.muni.cz/422328/pid&#45;test/&#45;/blob/master/training&#45;&gt;https://doi.org/10.58092/trainTrainingTilesConnector -->
<!-- PROV_USAGE _:_ -->
<g id="edge8" class="edge">
<title>https://gitlab.ics.muni.cz/422328/pid&#45;test/&#45;/blob/master/training&#45;&gt;https://doi.org/10.58092/trainTrainingTilesConnector</title>
<path fill="none" stroke="black" d="M785.38,-220.05C780.09,-227.94 773.7,-237.45 767.82,-246.2"/>
<polygon fill="black" stroke="black" points="765,-244.14 762.33,-254.39 770.81,-248.04 765,-244.14"/>
<text text-anchor="middle" x="791.99" y="-231.17" font-family="Times New Roman,serif" font-size="8.00">use</text>
</g>
<!-- &#45;attrs0 -->
<g id="node2" class="node">
<title>&#45;attrs0</title>
<polygon fill="none" stroke="gray" points="1008,-147.75 890,-147.75 890,-111.75 1014,-111.75 1014,-141.75 1008,-147.75"/>
<polyline fill="none" stroke="gray" points="1008,-147.75 1008,-141.75"/>
<polyline fill="none" stroke="gray" points="1014,-141.75 1008,-141.75"/>
<text text-anchor="start" x="900" y="-132.25" font-family="Times New Roman,serif" font-size="10.00">type:</text>
<text text-anchor="start" x="933.75" y="-132.25" font-family="Times New Roman,serif" font-size="10.00">cpm:mainActivity</text>
<text text-anchor="start" x="899.88" y="-119.25" font-family="Times New Roman,serif" font-size="10.00">hasPart:</text>
<text text-anchor="start" x="934" y="-119.25" font-family="Times New Roman,serif" font-size="10.00">prostateTrain</text>
</g>
<!-- &#45;attrs0&#45;&gt;https://gitlab.ics.muni.cz/422328/pid&#45;test/&#45;/blob/master/training -->
<!-- null _:_ -->
<g id="edge1" class="edge">
<title>&#45;attrs0&#45;&gt;https://gitlab.ics.muni.cz/422328/pid&#45;test/&#45;/blob/master/training</title>
<path fill="none" stroke="gray" stroke-dasharray="5,2" d="M912.9,-148.21C889.9,-158.51 860.27,-171.81 834,-183.75 831.3,-184.98 828.48,-186.26 825.67,-187.55"/>
</g>
<!-- https://gitlab.ics.muni.cz/422328/pid&#45;test/&#45;/blob/master/prostateTrain -->
<!-- PROV_ACTIVITY null:prostateTrain -->
<g id="node3" class="node">
<title>https://gitlab.ics.muni.cz/422328/pid&#45;test/&#45;/blob/master/prostateTrain</title>
<g id="a_node3"><a xlink:href="https://gitlab.ics.muni.cz/422328/pid-test/-/blob/master/prostateTrain" xlink:title="prostateTrain">
<polygon fill="#9fb1fc" stroke="#0000ff" points="527.12,-147.75 436.88,-147.75 436.88,-111.75 527.12,-111.75 527.12,-147.75"/>
<text text-anchor="middle" x="482" y="-124.33" font-family="Times New Roman,serif" font-size="14.00">prostateTrain</text>
</a>
</g>
</g>
<!-- https://gitlab.ics.muni.cz/422328/pid&#45;test/&#45;/blob/master/trainingTilesDataset -->
<!-- PROV_ENTITY null:trainingTilesDataset -->
<g id="node8" class="node">
<title>https://gitlab.ics.muni.cz/422328/pid&#45;test/&#45;/blob/master/trainingTilesDataset</title>
<g id="a_node8"><a xlink:href="https://gitlab.ics.muni.cz/422328/pid-test/-/blob/master/trainingTilesDataset" xlink:title="trainingTilesDataset">
<ellipse fill="#fffc87" stroke="#808080" cx="648" cy="-201.75" rx="83" ry="18"/>
<text text-anchor="middle" x="648" y="-196.32" font-family="Times New Roman,serif" font-size="14.00">trainingTilesDataset</text>
</a>
</g>
</g>
<!-- https://gitlab.ics.muni.cz/422328/pid&#45;test/&#45;/blob/master/prostateTrain&#45;&gt;https://gitlab.ics.muni.cz/422328/pid&#45;test/&#45;/blob/master/trainingTilesDataset -->
<!-- PROV_USAGE _:_ -->
<g id="edge16" class="edge">
<title>https://gitlab.ics.muni.cz/422328/pid&#45;test/&#45;/blob/master/prostateTrain&#45;&gt;https://gitlab.ics.muni.cz/422328/pid&#45;test/&#45;/blob/master/trainingTilesDataset</title>
<path fill="none" stroke="black" d="M523.46,-148.23C546.97,-158.15 576.46,-170.58 600.85,-180.87"/>
<polygon fill="black" stroke="black" points="599.33,-184.03 609.91,-184.69 602.05,-177.58 599.33,-184.03"/>
<text text-anchor="middle" x="535.42" y="-136.83" font-family="Times New Roman,serif" font-size="8.00">use</text>
</g>
<!-- https://gitlab.ics.muni.cz/422328/pid&#45;test/&#45;/blob/master/configTrain -->
<!-- PROV_ENTITY null:configTrain -->
<g id="node12" class="node">
<title>https://gitlab.ics.muni.cz/422328/pid&#45;test/&#45;/blob/master/configTrain</title>
<g id="a_node12"><a xlink:href="https://gitlab.ics.muni.cz/422328/pid-test/-/blob/master/configTrain" xlink:title="configTrain">
<ellipse fill="#fffc87" stroke="#808080" cx="70" cy="-201.75" rx="53.56" ry="18"/>
<text text-anchor="middle" x="70" y="-196.32" font-family="Times New Roman,serif" font-size="14.00">configTrain</text>
</a>
</g>
</g>
<!-- https://gitlab.ics.muni.cz/422328/pid&#45;test/&#45;/blob/master/prostateTrain&#45;&gt;https://gitlab.ics.muni.cz/422328/pid&#45;test/&#45;/blob/master/configTrain -->
<!-- PROV_USAGE _:_ -->
<g id="edge17" class="edge">
<title>https://gitlab.ics.muni.cz/422328/pid&#45;test/&#45;/blob/master/prostateTrain&#45;&gt;https://gitlab.ics.muni.cz/422328/pid&#45;test/&#45;/blob/master/configTrain</title>
<path fill="none" stroke="black" d="M436.39,-135.92C369.29,-143.92 240.22,-160.8 132,-183.75 128.23,-184.55 124.35,-185.44 120.45,-186.39"/>
<polygon fill="black" stroke="black" points="119.82,-182.94 110.99,-188.8 121.54,-189.72 119.82,-182.94"/>
<text text-anchor="middle" x="430.51" y="-147.37" font-family="Times New Roman,serif" font-size="8.00">use</text>
</g>
<!-- https://gitlab.ics.muni.cz/422328/pid&#45;test/&#45;/blob/master/researchDataCentre -->
<!-- PROV_AGENT null:researchDataCentre -->
<g id="node14" class="node">
<title>https://gitlab.ics.muni.cz/422328/pid&#45;test/&#45;/blob/master/researchDataCentre</title>
<g id="a_node14"><a xlink:href="https://gitlab.ics.muni.cz/422328/pid-test/-/blob/master/researchDataCentre" xlink:title="researchDataCentre">
<polygon fill="#fdb266" stroke="black" points="588.59,-351.31 486,-363.75 383.41,-351.31 383.5,-331.19 588.5,-331.19 588.59,-351.31"/>
<text text-anchor="middle" x="486" y="-340.32" font-family="Times New Roman,serif" font-size="14.00">researchDataCentre</text>
</a>
</g>
</g>
<!-- https://doi.org/10.58092/trainTrainingTilesConnector&#45;&gt;https://gitlab.ics.muni.cz/422328/pid&#45;test/&#45;/blob/master/researchDataCentre -->
<!-- PROV_ATTRIBUTION _:_ -->
<g id="edge7" class="edge">
<title>https://doi.org/10.58092/trainTrainingTilesConnector&#45;&gt;https://gitlab.ics.muni.cz/422328/pid&#45;test/&#45;/blob/master/researchDataCentre</title>
<path fill="none" stroke="black" d="M693.37,-289.77C651.27,-300.93 593.81,-316.16 550.04,-327.77"/>
<polygon fill="black" stroke="black" points="549.18,-324.38 540.41,-330.32 550.97,-331.14 549.18,-324.38"/>
<text text-anchor="middle" x="689.45" y="-301.9" font-family="Times New Roman,serif" font-size="8.00">att</text>
</g>
<!-- &#45;attrs1 -->
<g id="node5" class="node">
<title>&#45;attrs1</title>
<polygon fill="none" stroke="gray" points="1035,-219.75 843,-219.75 843,-183.75 1041,-183.75 1041,-213.75 1035,-219.75"/>
<polyline fill="none" stroke="gray" points="1035,-219.75 1035,-213.75"/>
<polyline fill="none" stroke="gray" points="1041,-213.75 1035,-213.75"/>
<text text-anchor="start" x="853" y="-204.25" font-family="Times New Roman,serif" font-size="10.00">type:</text>
<text text-anchor="start" x="921" y="-204.25" font-family="Times New Roman,serif" font-size="10.00">cpm:backwardConnector</text>
<text text-anchor="start" x="853" y="-191.25" font-family="Times New Roman,serif" font-size="10.00">senderBundleId:</text>
<text text-anchor="start" x="920.88" y="-191.25" font-family="Times New Roman,serif" font-size="10.00">fi_muni:preprocTrain.provn</text>
</g>
<!-- &#45;attrs1&#45;&gt;https://doi.org/10.58092/trainTrainingTilesConnector -->
<!-- null _:_ -->
<g id="edge2" class="edge">
<title>&#45;attrs1&#45;&gt;https://doi.org/10.58092/trainTrainingTilesConnector</title>
<path fill="none" stroke="gray" stroke-dasharray="5,2" d="M894.05,-220.23C863.39,-231.41 823.93,-245.8 794.06,-256.69"/>
</g>
<!-- https://doi.org/10.58092/trainedModelConnector -->
<!-- PROV_ENTITY doi:trainedModelConnector -->
<g id="node6" class="node">
<title>https://doi.org/10.58092/trainedModelConnector</title>
<g id="a_node6"><a xlink:href="https://doi.org/10.58092/trainedModelConnector" xlink:title="trainedModelConnector">
<ellipse fill="#fffc87" stroke="#808080" cx="773" cy="-129.75" rx="98.97" ry="18"/>
<text text-anchor="middle" x="773" y="-124.33" font-family="Times New Roman,serif" font-size="14.00">trainedModelConnector</text>
</a>
</g>
</g>
<!-- https://doi.org/10.58092/trainedModelConnector&#45;&gt;https://gitlab.ics.muni.cz/422328/pid&#45;test/&#45;/blob/master/training -->
<!-- PROV_GENERATION _:_ -->
<g id="edge9" class="edge">
<title>https://doi.org/10.58092/trainedModelConnector&#45;&gt;https://gitlab.ics.muni.cz/422328/pid&#45;test/&#45;/blob/master/training</title>
<path fill="none" stroke="black" d="M778.93,-148.05C781.49,-155.51 784.55,-164.43 787.41,-172.78"/>
<polygon fill="black" stroke="black" points="784.09,-173.89 790.64,-182.21 790.71,-171.62 784.09,-173.89"/>
<text text-anchor="middle" x="793.65" y="-148.58" font-family="Times New Roman,serif" font-size="8.00">gen</text>
</g>
<!-- https://doi.org/10.58092/trainedModelConnector&#45;&gt;https://doi.org/10.58092/trainTrainingTilesConnector -->
<!-- PROV_DERIVATION _:_ -->
<g id="edge10" class="edge">
<title>https://doi.org/10.58092/trainedModelConnector&#45;&gt;https://doi.org/10.58092/trainTrainingTilesConnector</title>
<path fill="none" stroke="black" d="M768.22,-147.82C765.48,-158.15 762.16,-171.62 760,-183.75 756.45,-203.68 753.93,-226.35 752.3,-243.83"/>
<polygon fill="black" stroke="black" points="748.82,-243.48 751.43,-253.75 755.79,-244.1 748.82,-243.48"/>
<text text-anchor="middle" x="778.88" y="-156.02" font-family="Times New Roman,serif" font-size="8.00">der</text>
</g>
<!-- &#45;attrs2 -->
<g id="node7" class="node">
<title>&#45;attrs2</title>
<polygon fill="none" stroke="gray" points="858.5,-75.75 681.5,-75.75 681.5,-39.75 864.5,-39.75 864.5,-69.75 858.5,-75.75"/>
<polyline fill="none" stroke="gray" points="858.5,-75.75 858.5,-69.75"/>
<polyline fill="none" stroke="gray" points="864.5,-69.75 858.5,-69.75"/>
<text text-anchor="start" x="691.5" y="-60.25" font-family="Times New Roman,serif" font-size="10.00">type:</text>
<text text-anchor="start" x="763.25" y="-60.25" font-family="Times New Roman,serif" font-size="10.00">cpm:forwardConnector</text>
<text text-anchor="start" x="691.25" y="-47.25" font-family="Times New Roman,serif" font-size="10.00">receiverBundleId:</text>
<text text-anchor="start" x="763.5" y="-47.25" font-family="Times New Roman,serif" font-size="10.00">fi_muni:eval.provn</text>
</g>
<!-- &#45;attrs2&#45;&gt;https://doi.org/10.58092/trainedModelConnector -->
<!-- null _:_ -->
<g id="edge3" class="edge">
<title>&#45;attrs2&#45;&gt;https://doi.org/10.58092/trainedModelConnector</title>
<path fill="none" stroke="gray" stroke-dasharray="5,2" d="M773,-76.05C773,-86.9 773,-100.83 773,-111.65"/>
</g>
<!-- https://gitlab.ics.muni.cz/422328/pid&#45;test/&#45;/blob/master/trainingTilesDataset&#45;&gt;https://doi.org/10.58092/trainTrainingTilesConnector -->
<!-- PROV_SPECIALIZATION _:_ -->
<g id="edge11" class="edge">
<title>https://gitlab.ics.muni.cz/422328/pid&#45;test/&#45;/blob/master/trainingTilesDataset&#45;&gt;https://doi.org/10.58092/trainTrainingTilesConnector</title>
<path fill="none" stroke="black" d="M672.17,-219.34C685.32,-228.36 701.79,-239.66 716.18,-249.54"/>
<polygon fill="black" stroke="black" points="713.82,-252.16 724.04,-254.94 717.78,-246.39 713.82,-252.16"/>
<text text-anchor="middle" x="685.71" y="-210.52" font-family="Times New Roman,serif" font-size="8.00">spe</text>
</g>
<!-- &#45;attrs3 -->
<g id="node9" class="node">
<title>&#45;attrs3</title>
<polygon fill="none" stroke="gray" points="650.5,-147.75 565.5,-147.75 565.5,-111.75 656.5,-111.75 656.5,-141.75 650.5,-147.75"/>
<polyline fill="none" stroke="gray" points="650.5,-147.75 650.5,-141.75"/>
<polyline fill="none" stroke="gray" points="656.5,-141.75 650.5,-141.75"/>
<text text-anchor="start" x="575.5" y="-125.88" font-family="Times New Roman,serif" font-size="10.00">type:</text>
<text text-anchor="start" x="597.75" y="-125.88" font-family="Times New Roman,serif" font-size="10.00">repr:Dataset</text>
</g>
<!-- &#45;attrs3&#45;&gt;https://gitlab.ics.muni.cz/422328/pid&#45;test/&#45;/blob/master/trainingTilesDataset -->
<!-- null _:_ -->
<g id="edge4" class="edge">
<title>&#45;attrs3&#45;&gt;https://gitlab.ics.muni.cz/422328/pid&#45;test/&#45;/blob/master/trainingTilesDataset</title>
<path fill="none" stroke="gray" stroke-dasharray="5,2" d="M620.15,-148.05C625.88,-158.9 633.24,-172.83 638.96,-183.65"/>
</g>
<!-- https://gitlab.ics.muni.cz/422328/pid&#45;test/&#45;/blob/master/configFile -->
<!-- PROV_ENTITY null:configFile -->
<g id="node10" class="node">
<title>https://gitlab.ics.muni.cz/422328/pid&#45;test/&#45;/blob/master/configFile</title>
<g id="a_node10"><a xlink:href="https://gitlab.ics.muni.cz/422328/pid-test/-/blob/master/configFile" xlink:title="configFile">
<ellipse fill="#fffc87" stroke="#808080" cx="344" cy="-273.75" rx="47.57" ry="18"/>
<text text-anchor="middle" x="344" y="-268.32" font-family="Times New Roman,serif" font-size="14.00">configFile</text>
</a>
</g>
</g>
<!-- &#45;attrs4 -->
<g id="node11" class="node">
<title>&#45;attrs4</title>
<polygon fill="none" stroke="gray" points="540.62,-219.75 141.38,-219.75 141.38,-183.75 546.62,-183.75 546.62,-213.75 540.62,-219.75"/>
<polyline fill="none" stroke="gray" points="540.62,-219.75 540.62,-213.75"/>
<polyline fill="none" stroke="gray" points="546.62,-213.75 540.62,-213.75"/>
<text text-anchor="start" x="151.38" y="-197.88" font-family="Times New Roman,serif" font-size="10.00">path:</text>
<text text-anchor="start" x="173.62" y="-197.88" font-family="Times New Roman,serif" font-size="10.00">mlflow&#45;artifacts:/4/6bc00f9abbd0465d865f0c1e1fa7196a/artifacts/conf/config_resolved.yaml</text>
</g>
<!-- &#45;attrs4&#45;&gt;https://gitlab.ics.muni.cz/422328/pid&#45;test/&#45;/blob/master/configFile -->
<!-- null _:_ -->
<g id="edge5" class="edge">
<title>&#45;attrs4&#45;&gt;https://gitlab.ics.muni.cz/422328/pid&#45;test/&#45;/blob/master/configFile</title>
<path fill="none" stroke="gray" stroke-dasharray="5,2" d="M344,-220.05C344,-230.9 344,-244.83 344,-255.65"/>
</g>
<!-- https://gitlab.ics.muni.cz/422328/pid&#45;test/&#45;/blob/master/configTrain&#45;&gt;https://gitlab.ics.muni.cz/422328/pid&#45;test/&#45;/blob/master/configFile -->
<!-- PROV_DERIVATION _:_ -->
<g id="edge12" class="edge">
<title>https://gitlab.ics.muni.cz/422328/pid&#45;test/&#45;/blob/master/configTrain&#45;&gt;https://gitlab.ics.muni.cz/422328/pid&#45;test/&#45;/blob/master/configFile</title>
<path fill="none" stroke="black" d="M110.29,-214.05C117.51,-216.01 124.97,-217.97 132,-219.75 200.99,-237.16 219.25,-237.4 288,-255.75 291.08,-256.57 294.25,-257.45 297.44,-258.35"/>
<polygon fill="black" stroke="black" points="296.22,-261.64 306.8,-261.08 298.18,-254.92 296.22,-261.64"/>
<text text-anchor="middle" x="120.92" y="-201.12" font-family="Times New Roman,serif" font-size="8.00">der</text>
</g>
<!-- https://gitlab.ics.muni.cz/422328/pid&#45;test/&#45;/blob/master/trainedModel -->
<!-- PROV_ENTITY null:trainedModel -->
<g id="node13" class="node">
<title>https://gitlab.ics.muni.cz/422328/pid&#45;test/&#45;/blob/master/trainedModel</title>
<g id="a_node13"><a xlink:href="https://gitlab.ics.muni.cz/422328/pid-test/-/blob/master/trainedModel" xlink:title="trainedModel">
<ellipse fill="#fffc87" stroke="#808080" cx="514" cy="-57.75" rx="59.55" ry="18"/>
<text text-anchor="middle" x="514" y="-52.33" font-family="Times New Roman,serif" font-size="14.00">trainedModel</text>
</a>
</g>
</g>
<!-- https://gitlab.ics.muni.cz/422328/pid&#45;test/&#45;/blob/master/trainedModel&#45;&gt;https://gitlab.ics.muni.cz/422328/pid&#45;test/&#45;/blob/master/prostateTrain -->
<!-- PROV_GENERATION _:_ -->
<g id="edge13" class="edge">
<title>https://gitlab.ics.muni.cz/422328/pid&#45;test/&#45;/blob/master/trainedModel&#45;&gt;https://gitlab.ics.muni.cz/422328/pid&#45;test/&#45;/blob/master/prostateTrain</title>
<path fill="none" stroke="black" d="M506.09,-76.05C502.6,-83.68 498.42,-92.83 494.52,-101.35"/>
<polygon fill="black" stroke="black" points="491.42,-99.72 490.45,-110.27 497.79,-102.63 491.42,-99.72"/>
<text text-anchor="middle" x="514.79" y="-85.93" font-family="Times New Roman,serif" font-size="8.00">gen</text>
</g>
<!-- https://gitlab.ics.muni.cz/422328/pid&#45;test/&#45;/blob/master/trainedModel&#45;&gt;https://doi.org/10.58092/trainedModelConnector -->
<!-- PROV_SPECIALIZATION _:_ -->
<g id="edge18" class="edge">
<title>https://gitlab.ics.muni.cz/422328/pid&#45;test/&#45;/blob/master/trainedModel&#45;&gt;https://doi.org/10.58092/trainedModelConnector</title>
<path fill="none" stroke="black" d="M557.35,-70.47C598.55,-81.6 661.03,-98.49 708.15,-111.22"/>
<polygon fill="black" stroke="black" points="707.14,-114.58 717.71,-113.81 708.97,-107.82 707.14,-114.58"/>
<text text-anchor="middle" x="567.98" y="-57.53" font-family="Times New Roman,serif" font-size="8.00">spe</text>
</g>
<!-- https://gitlab.ics.muni.cz/422328/pid&#45;test/&#45;/blob/master/trainedModel&#45;&gt;https://gitlab.ics.muni.cz/422328/pid&#45;test/&#45;/blob/master/trainingTilesDataset -->
<!-- PROV_DERIVATION _:_ -->
<g id="edge14" class="edge">
<title>https://gitlab.ics.muni.cz/422328/pid&#45;test/&#45;/blob/master/trainedModel&#45;&gt;https://gitlab.ics.muni.cz/422328/pid&#45;test/&#45;/blob/master/trainingTilesDataset</title>
<path fill="none" stroke="black" d="M520.81,-75.76C530.08,-98.33 546.68,-136.6 557,-147.75 569.22,-160.96 585.5,-171.85 600.91,-180.24"/>
<polygon fill="black" stroke="black" points="599.03,-183.21 609.51,-184.7 602.25,-176.99 599.03,-183.21"/>
<text text-anchor="middle" x="535.68" y="-75.36" font-family="Times New Roman,serif" font-size="8.00">der</text>
</g>
<!-- https://gitlab.ics.muni.cz/422328/pid&#45;test/&#45;/blob/master/trainedModel&#45;&gt;https://gitlab.ics.muni.cz/422328/pid&#45;test/&#45;/blob/master/configTrain -->
<!-- PROV_DERIVATION _:_ -->
<g id="edge15" class="edge">
<title>https://gitlab.ics.muni.cz/422328/pid&#45;test/&#45;/blob/master/trainedModel&#45;&gt;https://gitlab.ics.muni.cz/422328/pid&#45;test/&#45;/blob/master/configTrain</title>
<path fill="none" stroke="black" d="M474.21,-71.48C392.76,-97.52 207.3,-156.84 118.78,-185.15"/>
<polygon fill="black" stroke="black" points="117.87,-181.77 109.41,-188.15 120,-188.43 117.87,-181.77"/>
<text text-anchor="middle" x="471.02" y="-83.78" font-family="Times New Roman,serif" font-size="8.00">der</text>
</g>
<!-- &#45;attrs5 -->
<g id="node15" class="node">
<title>&#45;attrs5</title>
<polygon fill="none" stroke="gray" points="272.75,-291.75 165.25,-291.75 165.25,-255.75 278.75,-255.75 278.75,-285.75 272.75,-291.75"/>
<polyline fill="none" stroke="gray" points="272.75,-291.75 272.75,-285.75"/>
<polyline fill="none" stroke="gray" points="278.75,-285.75 272.75,-285.75"/>
<text text-anchor="start" x="175.25" y="-269.88" font-family="Times New Roman,serif" font-size="10.00">type:</text>
<text text-anchor="start" x="197.5" y="-269.88" font-family="Times New Roman,serif" font-size="10.00">cpm:senderAgent</text>
</g>
<!-- &#45;attrs5&#45;&gt;https://gitlab.ics.muni.cz/422328/pid&#45;test/&#45;/blob/master/researchDataCentre -->
<!-- null _:_ -->
<g id="edge6" class="edge">
<title>&#45;attrs5&#45;&gt;https://gitlab.ics.muni.cz/422328/pid&#45;test/&#45;/blob/master/researchDataCentre</title>
<path fill="none" stroke="gray" stroke-dasharray="5,2" d="M278.96,-289.85C324.74,-301.99 388.54,-318.91 433.18,-330.75"/>
</g>
</g>
</svg>
