<?xml version="1.0" encoding="UTF-8" standalone="no"?>
<!DOCTYPE svg PUBLIC "-//W3C//DTD SVG 1.1//EN"
 "http://www.w3.org/Graphics/SVG/1.1/DTD/svg11.dtd">
<!-- Generated by graphviz version 9.0.0 (20230911.1827)
 -->
<!-- Title: title Pages: 1 -->
<svg width="1253pt" height="499pt"
 viewBox="0.00 0.00 1253.00 498.75" xmlns="http://www.w3.org/2000/svg" xmlns:xlink="http://www.w3.org/1999/xlink">
<g id="graph0" class="graph" transform="scale(1 1) rotate(0) translate(4 494.75)">
<title>title</title>
<polygon fill="white" stroke="none" points="-4,4 -4,-494.75 1249,-494.75 1249,4 -4,4"/>
<g id="clust1" class="cluster">
<title>clusterhttp://10.16.48.121:42069/api/v1/organizations/ORG/graphs/train</title>
<g id="a_clust1"><a xlink:href="http://10.16.48.121:42069/api/v1/organizations/ORG/graphs/train" xlink:title="train">
<polygon fill="none" stroke="black" points="8,-8 8,-482.75 1237,-482.75 1237,-8 8,-8"/>
<text text-anchor="middle" x="622.5" y="-14.45" font-family="Times New Roman,serif" font-size="14.00">train</text>
</a>
</g>
</g>
<!-- https://example.org/prostateTrain -->
<!-- PROV_ACTIVITY def:prostateTrain -->
<g id="node1" class="node">
<title>https://example.org/prostateTrain</title>
<g id="a_node1"><a xlink:href="https://example.org/prostateTrain" xlink:title="prostateTrain">
<polygon fill="#9fb1fc" stroke="#0000ff" points="629.12,-252.25 538.88,-252.25 538.88,-216.25 629.12,-216.25 629.12,-252.25"/>
<text text-anchor="middle" x="584" y="-228.82" font-family="Times New Roman,serif" font-size="14.00">prostateTrain</text>
</a>
</g>
</g>
<!-- https://example.org/trainingTilesDataset -->
<!-- PROV_ENTITY def:trainingTilesDataset -->
<g id="node7" class="node">
<title>https://example.org/trainingTilesDataset</title>
<g id="a_node7"><a xlink:href="https://example.org/trainingTilesDataset" xlink:title="trainingTilesDataset">
<ellipse fill="#fffc87" stroke="#808080" cx="435" cy="-312.75" rx="83" ry="18"/>
<text text-anchor="middle" x="435" y="-307.32" font-family="Times New Roman,serif" font-size="14.00">trainingTilesDataset</text>
</a>
</g>
</g>
<!-- https://example.org/prostateTrain&#45;&gt;https://example.org/trainingTilesDataset -->
<!-- PROV_USAGE _:_ -->
<g id="edge17" class="edge">
<title>https://example.org/prostateTrain&#45;&gt;https://example.org/trainingTilesDataset</title>
<path fill="none" stroke="black" d="M550.19,-252.61C528.28,-263.86 499.58,-278.59 476.32,-290.54"/>
<polygon fill="black" stroke="black" points="475.03,-287.26 467.73,-294.94 478.23,-293.49 475.03,-287.26"/>
<text text-anchor="middle" x="549.45" y="-265.24" font-family="Times New Roman,serif" font-size="8.00">use</text>
</g>
<!-- https://example.org/configTrain -->
<!-- PROV_ENTITY def:configTrain -->
<g id="node9" class="node">
<title>https://example.org/configTrain</title>
<g id="a_node9"><a xlink:href="https://example.org/configTrain" xlink:title="configTrain">
<ellipse fill="#fffc87" stroke="#808080" cx="590" cy="-312.75" rx="53.56" ry="18"/>
<text text-anchor="middle" x="590" y="-307.32" font-family="Times New Roman,serif" font-size="14.00">configTrain</text>
</a>
</g>
</g>
<!-- https://example.org/prostateTrain&#45;&gt;https://example.org/configTrain -->
<!-- PROV_USAGE _:_ -->
<g id="edge23" class="edge">
<title>https://example.org/prostateTrain&#45;&gt;https://example.org/configTrain</title>
<path fill="none" stroke="black" d="M585.36,-252.61C586.07,-261.61 586.95,-272.83 587.75,-283.08"/>
<polygon fill="black" stroke="black" points="584.25,-283.26 588.53,-292.95 591.23,-282.71 584.25,-283.26"/>
<text text-anchor="middle" x="598.9" y="-256.72" font-family="Times New Roman,serif" font-size="8.00">use</text>
</g>
<!-- &#45;attrs0 -->
<g id="node2" class="node">
<title>&#45;attrs0</title>
<polygon fill="none" stroke="gray" points="1223,-173.75 631,-173.75 631,-137.75 1229,-137.75 1229,-167.75 1223,-173.75"/>
<polyline fill="none" stroke="gray" points="1223,-173.75 1223,-167.75"/>
<polyline fill="none" stroke="gray" points="1229,-167.75 1223,-167.75"/>
<text text-anchor="start" x="641" y="-158.25" font-family="Times New Roman,serif" font-size="10.00">runID:</text>
<text text-anchor="start" x="673" y="-158.25" font-family="Times New Roman,serif" font-size="10.00">6bc00f9abbd0465d865f0c1e1fa7196a</text>
<text text-anchor="start" x="640.62" y="-145.25" font-family="Times New Roman,serif" font-size="10.00">metrics:</text>
<text text-anchor="start" x="673" y="-145.25" font-family="Times New Roman,serif" font-size="10.00">eyJ2YWxpZC9iaW5hcnlfYXVyb2MiOjAuODM2MjA0NzA3NjIyNTI4MSwidmFsaWQvYmluYXJ5X2FjY3VyYWN5IjowLjc0MjIwMDAx...</text>
</g>
<!-- &#45;attrs0&#45;&gt;https://example.org/prostateTrain -->
<!-- null _:_ -->
<g id="edge1" class="edge">
<title>&#45;attrs0&#45;&gt;https://example.org/prostateTrain</title>
<path fill="none" stroke="gray" stroke-dasharray="5,2" d="M797.28,-174.2C746.8,-182.56 689.15,-194.21 638,-209.75 632.42,-211.44 626.65,-213.55 621.05,-215.8"/>
</g>
<!-- https://example.org/training -->
<!-- PROV_ACTIVITY def:training -->
<g id="node3" class="node">
<title>https://example.org/training</title>
<g id="a_node3"><a xlink:href="https://example.org/training" xlink:title="training">
<polygon fill="#9fb1fc" stroke="#0000ff" points="292.25,-330.75 235.75,-330.75 235.75,-294.75 292.25,-294.75 292.25,-330.75"/>
<text text-anchor="middle" x="264" y="-307.32" font-family="Times New Roman,serif" font-size="14.00">training</text>
</a>
</g>
</g>
<!-- http://10.16.48.121:42069/api/v1/connectors/trainTilesConnector -->
<!-- PROV_ENTITY conn:trainTilesConnector -->
<g id="node15" class="node">
<title>http://10.16.48.121:42069/api/v1/connectors/trainTilesConnector</title>
<g id="a_node15"><a xlink:href="http://10.16.48.121:42069/api/v1/connectors/trainTilesConnector" xlink:title="trainTilesConnector">
<ellipse fill="#fffc87" stroke="#808080" cx="286" cy="-384.75" rx="84" ry="18"/>
<text text-anchor="middle" x="286" y="-379.32" font-family="Times New Roman,serif" font-size="14.00">trainTilesConnector</text>
</a>
</g>
</g>
<!-- https://example.org/training&#45;&gt;http://10.16.48.121:42069/api/v1/connectors/trainTilesConnector -->
<!-- PROV_USAGE _:_ -->
<g id="edge16" class="edge">
<title>https://example.org/training&#45;&gt;http://10.16.48.121:42069/api/v1/connectors/trainTilesConnector</title>
<path fill="none" stroke="black" d="M269.44,-331.05C271.78,-338.51 274.58,-347.43 277.21,-355.78"/>
<polygon fill="black" stroke="black" points="273.83,-356.71 280.17,-365.2 280.51,-354.61 273.83,-356.71"/>
<text text-anchor="middle" x="284.08" y="-331.96" font-family="Times New Roman,serif" font-size="8.00">use</text>
</g>
<!-- &#45;attrs1 -->
<g id="node4" class="node">
<title>&#45;attrs1</title>
<polygon fill="none" stroke="gray" points="150,-258.75 16,-258.75 16,-209.75 156,-209.75 156,-252.75 150,-258.75"/>
<polyline fill="none" stroke="gray" points="150,-258.75 150,-252.75"/>
<polyline fill="none" stroke="gray" points="156,-252.75 150,-252.75"/>
<text text-anchor="start" x="26" y="-243.25" font-family="Times New Roman,serif" font-size="10.00">type:</text>
<text text-anchor="start" x="75.75" y="-243.25" font-family="Times New Roman,serif" font-size="10.00">cpm:mainActivity</text>
<text text-anchor="start" x="25.62" y="-230.25" font-family="Times New Roman,serif" font-size="10.00">metabundle:</text>
<text text-anchor="start" x="76" y="-230.25" font-family="Times New Roman,serif" font-size="10.00">meta:trainMeta</text>
<text text-anchor="start" x="26" y="-217.25" font-family="Times New Roman,serif" font-size="10.00">hasPart:</text>
<text text-anchor="start" x="76" y="-217.25" font-family="Times New Roman,serif" font-size="10.00">def:prostateTrain</text>
</g>
<!-- &#45;attrs1&#45;&gt;https://example.org/training -->
<!-- null _:_ -->
<g id="edge2" class="edge">
<title>&#45;attrs1&#45;&gt;https://example.org/training</title>
<path fill="none" stroke="gray" stroke-dasharray="5,2" d="M143.8,-259.16C169.38,-269.86 199.77,-282.75 227,-294.75 229.72,-295.95 232.54,-297.21 235.36,-298.48"/>
</g>
<!-- https://example.org/logsTrain -->
<!-- PROV_ENTITY def:logsTrain -->
<g id="node5" class="node">
<title>https://example.org/logsTrain</title>
<g id="a_node5"><a xlink:href="https://example.org/logsTrain" xlink:title="logsTrain">
<ellipse fill="#fffc87" stroke="#808080" cx="567" cy="-155.75" rx="45.57" ry="18"/>
<text text-anchor="middle" x="567" y="-150.32" font-family="Times New Roman,serif" font-size="14.00">logsTrain</text>
</a>
</g>
</g>
<!-- https://example.org/logsTrain&#45;&gt;https://example.org/prostateTrain -->
<!-- PROV_GENERATION _:_ -->
<g id="edge20" class="edge">
<title>https://example.org/logsTrain&#45;&gt;https://example.org/prostateTrain</title>
<path fill="none" stroke="black" d="M570.86,-174.11C572.88,-183.21 575.41,-194.58 577.7,-204.91"/>
<polygon fill="black" stroke="black" points="574.24,-205.48 579.83,-214.48 581.08,-203.96 574.24,-205.48"/>
<text text-anchor="middle" x="585.17" y="-176.26" font-family="Times New Roman,serif" font-size="8.00">gen</text>
</g>
<!-- &#45;attrs2 -->
<g id="node6" class="node">
<title>&#45;attrs2</title>
<polygon fill="none" stroke="gray" points="1025,-101.75 405,-101.75 405,-39.75 1031,-39.75 1031,-95.75 1025,-101.75"/>
<polyline fill="none" stroke="gray" points="1025,-101.75 1025,-95.75"/>
<polyline fill="none" stroke="gray" points="1031,-95.75 1025,-95.75"/>
<text text-anchor="start" x="415" y="-86.25" font-family="Times New Roman,serif" font-size="10.00">type:</text>
<text text-anchor="start" x="442" y="-86.25" font-family="Times New Roman,serif" font-size="10.00">repr:Log</text>
<text text-anchor="start" x="415" y="-73.25" font-family="Times New Roman,serif" font-size="10.00">data:</text>
<text text-anchor="start" x="441.62" y="-73.25" font-family="Times New Roman,serif" font-size="10.00">WzIwMjQtMDEtMTYgMTY6NDA6NTYsNDQ5XVt0YXNrX2NsaV1bSU5GT10gLSBbUmVwcm9kdWNpYmlsaXR5XSBTZWVkaW5nIGV2ZXJ5...</text>
<text text-anchor="start" x="414.75" y="-60.25" font-family="Times New Roman,serif" font-size="10.00">runID:</text>
<text text-anchor="start" x="442" y="-60.25" font-family="Times New Roman,serif" font-size="10.00">6bc00f9abbd0465d865f0c1e1fa7196a</text>
<text text-anchor="start" x="415" y="-47.25" font-family="Times New Roman,serif" font-size="10.00">path:</text>
<text text-anchor="start" x="442" y="-47.25" font-family="Times New Roman,serif" font-size="10.00">logs/task.log</text>
</g>
<!-- &#45;attrs2&#45;&gt;https://example.org/logsTrain -->
<!-- null _:_ -->
<g id="edge3" class="edge">
<title>&#45;attrs2&#45;&gt;https://example.org/logsTrain</title>
<path fill="none" stroke="gray" stroke-dasharray="5,2" d="M662.63,-102.18C638.73,-115.32 611.92,-130.06 592.78,-140.58"/>
</g>
<!-- https://example.org/trainingTilesDataset&#45;&gt;http://10.16.48.121:42069/api/v1/connectors/trainTilesConnector -->
<!-- PROV_SPECIALIZATION _:_ -->
<g id="edge15" class="edge">
<title>https://example.org/trainingTilesDataset&#45;&gt;http://10.16.48.121:42069/api/v1/connectors/trainTilesConnector</title>
<path fill="none" stroke="black" d="M401.19,-329.63C380.21,-339.49 353.03,-352.26 330.34,-362.92"/>
<polygon fill="black" stroke="black" points="328.87,-359.74 321.3,-367.16 331.84,-366.08 328.87,-359.74"/>
<text text-anchor="middle" x="399.93" y="-342.23" font-family="Times New Roman,serif" font-size="8.00">spe</text>
</g>
<!-- &#45;attrs3 -->
<g id="node8" class="node">
<title>&#45;attrs3</title>
<polygon fill="none" stroke="gray" points="474.5,-252.25 389.5,-252.25 389.5,-216.25 480.5,-216.25 480.5,-246.25 474.5,-252.25"/>
<polyline fill="none" stroke="gray" points="474.5,-252.25 474.5,-246.25"/>
<polyline fill="none" stroke="gray" points="480.5,-246.25 474.5,-246.25"/>
<text text-anchor="start" x="399.5" y="-230.38" font-family="Times New Roman,serif" font-size="10.00">type:</text>
<text text-anchor="start" x="421.75" y="-230.38" font-family="Times New Roman,serif" font-size="10.00">repr:Dataset</text>
</g>
<!-- &#45;attrs3&#45;&gt;https://example.org/trainingTilesDataset -->
<!-- null _:_ -->
<g id="edge4" class="edge">
<title>&#45;attrs3&#45;&gt;https://example.org/trainingTilesDataset</title>
<path fill="none" stroke="gray" stroke-dasharray="5,2" d="M435,-252.61C435,-265.13 435,-281.96 435,-294.46"/>
</g>
<!-- https://example.org/configFile -->
<!-- PROV_ENTITY def:configFile -->
<g id="node11" class="node">
<title>https://example.org/configFile</title>
<g id="a_node11"><a xlink:href="https://example.org/configFile" xlink:title="configFile">
<ellipse fill="#fffc87" stroke="#808080" cx="673" cy="-384.75" rx="47.57" ry="18"/>
<text text-anchor="middle" x="673" y="-379.32" font-family="Times New Roman,serif" font-size="14.00">configFile</text>
</a>
</g>
</g>
<!-- https://example.org/configTrain&#45;&gt;https://example.org/configFile -->
<!-- PROV_DERIVATION _:_ -->
<g id="edge11" class="edge">
<title>https://example.org/configTrain&#45;&gt;https://example.org/configFile</title>
<path fill="none" stroke="black" d="M609.25,-329.99C620.01,-339.06 633.61,-350.53 645.48,-360.54"/>
<polygon fill="black" stroke="black" points="643.08,-363.1 652.98,-366.87 647.6,-357.75 643.08,-363.1"/>
<text text-anchor="middle" x="623.36" y="-322.54" font-family="Times New Roman,serif" font-size="8.00">der</text>
</g>
<!-- &#45;attrs4 -->
<g id="node10" class="node">
<title>&#45;attrs4</title>
<polygon fill="none" stroke="gray" points="1222.75,-252.25 647.25,-252.25 647.25,-216.25 1228.75,-216.25 1228.75,-246.25 1222.75,-252.25"/>
<polyline fill="none" stroke="gray" points="1222.75,-252.25 1222.75,-246.25"/>
<polyline fill="none" stroke="gray" points="1228.75,-246.25 1222.75,-246.25"/>
<text text-anchor="start" x="657.25" y="-230.38" font-family="Times New Roman,serif" font-size="10.00">data:</text>
<text text-anchor="start" x="678.75" y="-230.38" font-family="Times New Roman,serif" font-size="10.00">bWw6CiAgX3RhcmdldF86IGhpc3RvcGlwZS5tbC5IaXN0b1BpcGVNb2R1bGUKICBuZXQ6CiAgICBmZWF0dXJlczoKICAgICAgX3Rh...</text>
</g>
<!-- &#45;attrs4&#45;&gt;https://example.org/configTrain -->
<!-- null _:_ -->
<g id="edge5" class="edge">
<title>&#45;attrs4&#45;&gt;https://example.org/configTrain</title>
<path fill="none" stroke="gray" stroke-dasharray="5,2" d="M847.53,-252.75C791.36,-263.96 717.77,-279.26 653,-294.75 645.62,-296.52 637.78,-298.52 630.24,-300.52"/>
</g>
<!-- &#45;attrs5 -->
<g id="node12" class="node">
<title>&#45;attrs5</title>
<polygon fill="none" stroke="gray" points="846,-330.75 662,-330.75 662,-294.75 852,-294.75 852,-324.75 846,-330.75"/>
<polyline fill="none" stroke="gray" points="846,-330.75 846,-324.75"/>
<polyline fill="none" stroke="gray" points="852,-324.75 846,-324.75"/>
<text text-anchor="start" x="671.75" y="-315.25" font-family="Times New Roman,serif" font-size="10.00">runID:</text>
<text text-anchor="start" x="698.88" y="-315.25" font-family="Times New Roman,serif" font-size="10.00">6bc00f9abbd0465d865f0c1e1fa7196a</text>
<text text-anchor="start" x="672" y="-302.25" font-family="Times New Roman,serif" font-size="10.00">path:</text>
<text text-anchor="start" x="699" y="-302.25" font-family="Times New Roman,serif" font-size="10.00">conf/config_resolved.yaml</text>
</g>
<!-- &#45;attrs5&#45;&gt;https://example.org/configFile -->
<!-- null _:_ -->
<g id="edge6" class="edge">
<title>&#45;attrs5&#45;&gt;https://example.org/configFile</title>
<path fill="none" stroke="gray" stroke-dasharray="5,2" d="M736.24,-331.05C722.73,-342.31 705.25,-356.88 692.09,-367.84"/>
</g>
<!-- http://10.16.48.121:42069/api/v1/connectors/trainedModelConnector -->
<!-- PROV_ENTITY conn:trainedModelConnector -->
<g id="node13" class="node">
<title>http://10.16.48.121:42069/api/v1/connectors/trainedModelConnector</title>
<g id="a_node13"><a xlink:href="http://10.16.48.121:42069/api/v1/connectors/trainedModelConnector" xlink:title="trainedModelConnector">
<ellipse fill="#fffc87" stroke="#808080" cx="273" cy="-234.25" rx="98.97" ry="18"/>
<text text-anchor="middle" x="273" y="-228.82" font-family="Times New Roman,serif" font-size="14.00">trainedModelConnector</text>
</a>
</g>
</g>
<!-- http://10.16.48.121:42069/api/v1/connectors/trainedModelConnector&#45;&gt;https://example.org/training -->
<!-- PROV_GENERATION _:_ -->
<g id="edge21" class="edge">
<title>http://10.16.48.121:42069/api/v1/connectors/trainedModelConnector&#45;&gt;https://example.org/training</title>
<path fill="none" stroke="black" d="M270.96,-252.61C269.9,-261.61 268.58,-272.83 267.37,-283.08"/>
<polygon fill="black" stroke="black" points="263.9,-282.62 266.21,-292.96 270.86,-283.43 263.9,-282.62"/>
<text text-anchor="middle" x="282.98" y="-259.23" font-family="Times New Roman,serif" font-size="8.00">gen</text>
</g>
<!-- http://10.16.48.121:42069/api/v1/connectors/trainedModelConnector&#45;&gt;http://10.16.48.121:42069/api/v1/connectors/trainTilesConnector -->
<!-- PROV_DERIVATION _:_ -->
<g id="edge22" class="edge">
<title>http://10.16.48.121:42069/api/v1/connectors/trainedModelConnector&#45;&gt;http://10.16.48.121:42069/api/v1/connectors/trainTilesConnector</title>
<path fill="none" stroke="black" d="M283.6,-252.48C290.04,-263.99 297.64,-279.71 301,-294.75 305.52,-314.97 301.37,-338.06 296.29,-355.65"/>
<polygon fill="black" stroke="black" points="292.97,-354.55 293.28,-365.14 299.64,-356.67 292.97,-354.55"/>
<text text-anchor="middle" x="298.6" y="-250.46" font-family="Times New Roman,serif" font-size="8.00">der</text>
</g>
<!-- &#45;attrs6 -->
<g id="node14" class="node">
<title>&#45;attrs6</title>
<polygon fill="none" stroke="gray" points="356.5,-173.75 183.5,-173.75 183.5,-137.75 362.5,-137.75 362.5,-167.75 356.5,-173.75"/>
<polyline fill="none" stroke="gray" points="356.5,-173.75 356.5,-167.75"/>
<polyline fill="none" stroke="gray" points="362.5,-167.75 356.5,-167.75"/>
<text text-anchor="start" x="193.5" y="-158.25" font-family="Times New Roman,serif" font-size="10.00">type:</text>
<text text-anchor="start" x="261.25" y="-158.25" font-family="Times New Roman,serif" font-size="10.00">cpm:forwardConnector</text>
<text text-anchor="start" x="193.5" y="-145.25" font-family="Times New Roman,serif" font-size="10.00">senderBundleId:</text>
<text text-anchor="start" x="261.5" y="-145.25" font-family="Times New Roman,serif" font-size="10.00">bndl:eval</text>
</g>
<!-- &#45;attrs6&#45;&gt;http://10.16.48.121:42069/api/v1/connectors/trainedModelConnector -->
<!-- null _:_ -->
<g id="edge7" class="edge">
<title>&#45;attrs6&#45;&gt;http://10.16.48.121:42069/api/v1/connectors/trainedModelConnector</title>
<path fill="none" stroke="gray" stroke-dasharray="5,2" d="M273,-174.11C273,-186.63 273,-203.46 273,-215.96"/>
</g>
<!-- https://example.org/researchDataCentre -->
<!-- PROV_AGENT def:researchDataCentre -->
<g id="node19" class="node">
<title>https://example.org/researchDataCentre</title>
<g id="a_node19"><a xlink:href="https://example.org/researchDataCentre" xlink:title="researchDataCentre">
<polygon fill="#fdb266" stroke="black" points="467.59,-462.31 365,-474.75 262.41,-462.31 262.5,-442.19 467.5,-442.19 467.59,-462.31"/>
<text text-anchor="middle" x="365" y="-451.32" font-family="Times New Roman,serif" font-size="14.00">researchDataCentre</text>
</a>
</g>
</g>
<!-- http://10.16.48.121:42069/api/v1/connectors/trainTilesConnector&#45;&gt;https://example.org/researchDataCentre -->
<!-- PROV_ATTRIBUTION _:_ -->
<g id="edge18" class="edge">
<title>http://10.16.48.121:42069/api/v1/connectors/trainTilesConnector&#45;&gt;https://example.org/researchDataCentre</title>
<path fill="none" stroke="black" d="M305.12,-402.7C315.89,-412.24 329.45,-424.25 340.94,-434.43"/>
<polygon fill="black" stroke="black" points="338.3,-436.77 348.11,-440.78 342.94,-431.53 338.3,-436.77"/>
<text text-anchor="middle" x="319.35" y="-395.6" font-family="Times New Roman,serif" font-size="8.00">att</text>
</g>
<!-- &#45;attrs7 -->
<g id="node16" class="node">
<title>&#45;attrs7</title>
<polygon fill="none" stroke="gray" points="211.5,-330.75 26.5,-330.75 26.5,-294.75 217.5,-294.75 217.5,-324.75 211.5,-330.75"/>
<polyline fill="none" stroke="gray" points="211.5,-330.75 211.5,-324.75"/>
<polyline fill="none" stroke="gray" points="217.5,-324.75 211.5,-324.75"/>
<text text-anchor="start" x="36.5" y="-315.25" font-family="Times New Roman,serif" font-size="10.00">type:</text>
<text text-anchor="start" x="108.5" y="-315.25" font-family="Times New Roman,serif" font-size="10.00">cpm:backwardConnector</text>
<text text-anchor="start" x="36.25" y="-302.25" font-family="Times New Roman,serif" font-size="10.00">receiverBundleId:</text>
<text text-anchor="start" x="108.5" y="-302.25" font-family="Times New Roman,serif" font-size="10.00">bndl:preprocTrain</text>
</g>
<!-- &#45;attrs7&#45;&gt;http://10.16.48.121:42069/api/v1/connectors/trainTilesConnector -->
<!-- null _:_ -->
<g id="edge8" class="edge">
<title>&#45;attrs7&#45;&gt;http://10.16.48.121:42069/api/v1/connectors/trainTilesConnector</title>
<path fill="none" stroke="gray" stroke-dasharray="5,2" d="M162.96,-331.23C189.53,-342.57 223.83,-357.22 249.47,-368.16"/>
</g>
<!-- https://example.org/trainedModel -->
<!-- PROV_ENTITY def:trainedModel -->
<g id="node17" class="node">
<title>https://example.org/trainedModel</title>
<g id="a_node17"><a xlink:href="https://example.org/trainedModel" xlink:title="trainedModel">
<ellipse fill="#fffc87" stroke="#808080" cx="444" cy="-155.75" rx="59.55" ry="18"/>
<text text-anchor="middle" x="444" y="-150.32" font-family="Times New Roman,serif" font-size="14.00">trainedModel</text>
</a>
</g>
</g>
<!-- https://example.org/trainedModel&#45;&gt;https://example.org/prostateTrain -->
<!-- PROV_GENERATION _:_ -->
<g id="edge14" class="edge">
<title>https://example.org/trainedModel&#45;&gt;https://example.org/prostateTrain</title>
<path fill="none" stroke="black" d="M471.99,-172.05C492.06,-183.01 519.44,-197.97 542.1,-210.36"/>
<polygon fill="black" stroke="black" points="540.36,-213.39 550.81,-215.12 543.71,-207.25 540.36,-213.39"/>
<text text-anchor="middle" x="484.81" y="-161.89" font-family="Times New Roman,serif" font-size="8.00">gen</text>
</g>
<!-- https://example.org/trainedModel&#45;&gt;https://example.org/trainingTilesDataset -->
<!-- PROV_DERIVATION _:_ -->
<g id="edge13" class="edge">
<title>https://example.org/trainedModel&#45;&gt;https://example.org/trainingTilesDataset</title>
<path fill="none" stroke="black" d="M463.86,-173.2C473.76,-182.72 484.71,-195.6 490,-209.75 497.62,-230.15 498.52,-238.71 490,-258.75 485.33,-269.73 477.15,-279.54 468.5,-287.65"/>
<polygon fill="black" stroke="black" points="466.22,-284.99 460.95,-294.18 470.8,-290.28 466.22,-284.99"/>
<text text-anchor="middle" x="478.32" y="-166.87" font-family="Times New Roman,serif" font-size="8.00">der</text>
</g>
<!-- https://example.org/trainedModel&#45;&gt;https://example.org/configTrain -->
<!-- PROV_DERIVATION _:_ -->
<g id="edge12" class="edge">
<title>https://example.org/trainedModel&#45;&gt;https://example.org/configTrain</title>
<path fill="none" stroke="black" d="M462.75,-173.26C473.63,-183.29 487.26,-196.64 498,-209.75 514.49,-229.87 512.99,-239.07 530,-258.75 539.14,-269.32 550.36,-279.76 560.61,-288.55"/>
<polygon fill="black" stroke="black" points="558.21,-291.11 568.13,-294.83 562.7,-285.74 558.21,-291.11"/>
<text text-anchor="middle" x="477.09" y="-166.5" font-family="Times New Roman,serif" font-size="8.00">der</text>
</g>
<!-- https://example.org/trainedModel&#45;&gt;http://10.16.48.121:42069/api/v1/connectors/trainedModelConnector -->
<!-- PROV_SPECIALIZATION _:_ -->
<g id="edge19" class="edge">
<title>https://example.org/trainedModel&#45;&gt;http://10.16.48.121:42069/api/v1/connectors/trainedModelConnector</title>
<path fill="none" stroke="black" d="M411.84,-171.14C385.81,-182.78 348.82,-199.33 319.56,-212.42"/>
<polygon fill="black" stroke="black" points="318.24,-209.17 310.55,-216.45 321.1,-215.56 318.24,-209.17"/>
<text text-anchor="middle" x="410.29" y="-183.71" font-family="Times New Roman,serif" font-size="8.00">spe</text>
</g>
<!-- &#45;attrs8 -->
<g id="node18" class="node">
<title>&#45;attrs8</title>
<polygon fill="none" stroke="gray" points="381,-95.25 197,-95.25 197,-46.25 387,-46.25 387,-89.25 381,-95.25"/>
<polyline fill="none" stroke="gray" points="381,-95.25 381,-89.25"/>
<polyline fill="none" stroke="gray" points="387,-89.25 381,-89.25"/>
<text text-anchor="start" x="207" y="-79.75" font-family="Times New Roman,serif" font-size="10.00">type:</text>
<text text-anchor="start" x="234" y="-79.75" font-family="Times New Roman,serif" font-size="10.00">repr:Model</text>
<text text-anchor="start" x="206.75" y="-66.75" font-family="Times New Roman,serif" font-size="10.00">runID:</text>
<text text-anchor="start" x="233.88" y="-66.75" font-family="Times New Roman,serif" font-size="10.00">6bc00f9abbd0465d865f0c1e1fa7196a</text>
<text text-anchor="start" x="207" y="-53.75" font-family="Times New Roman,serif" font-size="10.00">path:</text>
<text text-anchor="start" x="234" y="-53.75" font-family="Times New Roman,serif" font-size="10.00">model/</text>
</g>
<!-- &#45;attrs8&#45;&gt;https://example.org/trainedModel -->
<!-- null _:_ -->
<g id="edge9" class="edge">
<title>&#45;attrs8&#45;&gt;https://example.org/trainedModel</title>
<path fill="none" stroke="gray" stroke-dasharray="5,2" d="M335.56,-95.53C361.52,-109.71 393.71,-127.29 416.25,-139.6"/>
</g>
<!-- &#45;attrs9 -->
<g id="node20" class="node">
<title>&#45;attrs9</title>
<polygon fill="none" stroke="gray" points="495.75,-402.75 388.25,-402.75 388.25,-366.75 501.75,-366.75 501.75,-396.75 495.75,-402.75"/>
<polyline fill="none" stroke="gray" points="495.75,-402.75 495.75,-396.75"/>
<polyline fill="none" stroke="gray" points="501.75,-396.75 495.75,-396.75"/>
<text text-anchor="start" x="398.25" y="-380.88" font-family="Times New Roman,serif" font-size="10.00">type:</text>
<text text-anchor="start" x="420.5" y="-380.88" font-family="Times New Roman,serif" font-size="10.00">cpm:senderAgent</text>
</g>
<!-- &#45;attrs9&#45;&gt;https://example.org/researchDataCentre -->
<!-- null _:_ -->
<g id="edge10" class="edge">
<title>&#45;attrs9&#45;&gt;https://example.org/researchDataCentre</title>
<path fill="none" stroke="gray" stroke-dasharray="5,2" d="M425.22,-403.05C411.62,-414.96 393.78,-430.57 381.06,-441.7"/>
</g>
</g>
</svg>
