<?xml version="1.0" encoding="UTF-8" standalone="no"?>
<!DOCTYPE svg PUBLIC "-//W3C//DTD SVG 1.1//EN"
 "http://www.w3.org/Graphics/SVG/1.1/DTD/svg11.dtd">
<!-- Generated by graphviz version 9.0.0 (20230911.1827)
 -->
<!-- Title: title Pages: 1 -->
<svg width="1253pt" height="564pt"
 viewBox="0.00 0.00 1253.00 563.75" xmlns="http://www.w3.org/2000/svg" xmlns:xlink="http://www.w3.org/1999/xlink">
<g id="graph0" class="graph" transform="scale(1 1) rotate(0) translate(4 559.75)">
<title>title</title>
<polygon fill="white" stroke="none" points="-4,4 -4,-559.75 1249,-559.75 1249,4 -4,4"/>
<g id="clust1" class="cluster">
<title>clusterhttp://10.16.48.121:42069/api/v1/organizations/ORG/graphs/train</title>
<g id="a_clust1"><a xlink:href="http://10.16.48.121:42069/api/v1/organizations/ORG/graphs/train" xlink:title="train">
<polygon fill="none" stroke="black" points="8,-8 8,-547.75 1237,-547.75 1237,-8 8,-8"/>
<text text-anchor="middle" x="622.5" y="-14.45" font-family="Times New Roman,serif" font-size="14.00">train</text>
</a>
</g>
</g>
<!-- https://example.org/training -->
<!-- PROV_ACTIVITY def:training -->
<g id="node1" class="node">
<title>https://example.org/training</title>
<g id="a_node1"><a xlink:href="https://example.org/training" xlink:title="training">
<polygon fill="#9fb1fc" stroke="#0000ff" points="1187.25,-389.25 1130.75,-389.25 1130.75,-353.25 1187.25,-353.25 1187.25,-389.25"/>
<text text-anchor="middle" x="1159" y="-365.82" font-family="Times New Roman,serif" font-size="14.00">training</text>
</a>
</g>
</g>
<!-- http://10.16.48.121:42069/api/v1/connectors/trainTilesConnector -->
<!-- PROV_ENTITY conn:trainTilesConnector -->
<g id="node7" class="node">
<title>http://10.16.48.121:42069/api/v1/connectors/trainTilesConnector</title>
<g id="a_node7"><a xlink:href="http://10.16.48.121:42069/api/v1/connectors/trainTilesConnector" xlink:title="trainTilesConnector">
<ellipse fill="#fffc87" stroke="#808080" cx="997" cy="-449.75" rx="84" ry="18"/>
<text text-anchor="middle" x="997" y="-444.32" font-family="Times New Roman,serif" font-size="14.00">trainTilesConnector</text>
</a>
</g>
</g>
<!-- https://example.org/training&#45;&gt;http://10.16.48.121:42069/api/v1/connectors/trainTilesConnector -->
<!-- PROV_USAGE _:_ -->
<g id="edge16" class="edge">
<title>https://example.org/training&#45;&gt;http://10.16.48.121:42069/api/v1/connectors/trainTilesConnector</title>
<path fill="none" stroke="black" d="M1130.27,-388.79C1125.86,-391.2 1121.34,-393.59 1117,-395.75 1093.62,-407.42 1067.1,-419.28 1044.94,-428.8"/>
<polygon fill="black" stroke="black" points="1043.66,-425.55 1035.84,-432.69 1046.41,-431.98 1043.66,-425.55"/>
<text text-anchor="middle" x="1129.88" y="-401.44" font-family="Times New Roman,serif" font-size="8.00">use</text>
</g>
<!-- &#45;attrs0 -->
<g id="node2" class="node">
<title>&#45;attrs0</title>
<polygon fill="none" stroke="gray" points="1223,-310.75 1089,-310.75 1089,-261.75 1229,-261.75 1229,-304.75 1223,-310.75"/>
<polyline fill="none" stroke="gray" points="1223,-310.75 1223,-304.75"/>
<polyline fill="none" stroke="gray" points="1229,-304.75 1223,-304.75"/>
<text text-anchor="start" x="1099" y="-295.25" font-family="Times New Roman,serif" font-size="10.00">type:</text>
<text text-anchor="start" x="1148.75" y="-295.25" font-family="Times New Roman,serif" font-size="10.00">cpm:mainActivity</text>
<text text-anchor="start" x="1098.62" y="-282.25" font-family="Times New Roman,serif" font-size="10.00">metabundle:</text>
<text text-anchor="start" x="1149" y="-282.25" font-family="Times New Roman,serif" font-size="10.00">meta:trainMeta</text>
<text text-anchor="start" x="1099" y="-269.25" font-family="Times New Roman,serif" font-size="10.00">hasPart:</text>
<text text-anchor="start" x="1149" y="-269.25" font-family="Times New Roman,serif" font-size="10.00">def:prostateTrain</text>
</g>
<!-- &#45;attrs0&#45;&gt;https://example.org/training -->
<!-- null _:_ -->
<g id="edge1" class="edge">
<title>&#45;attrs0&#45;&gt;https://example.org/training</title>
<path fill="none" stroke="gray" stroke-dasharray="5,2" d="M1159,-310.81C1159,-324.23 1159,-340.75 1159,-352.96"/>
</g>
<!-- https://example.org/prostateTrain -->
<!-- PROV_ACTIVITY def:prostateTrain -->
<g id="node3" class="node">
<title>https://example.org/prostateTrain</title>
<g id="a_node3"><a xlink:href="https://example.org/prostateTrain" xlink:title="prostateTrain">
<polygon fill="#9fb1fc" stroke="#0000ff" points="706.12,-304.25 615.88,-304.25 615.88,-268.25 706.12,-268.25 706.12,-304.25"/>
<text text-anchor="middle" x="661" y="-280.82" font-family="Times New Roman,serif" font-size="14.00">prostateTrain</text>
</a>
</g>
</g>
<!-- https://example.org/trainingTilesDataset -->
<!-- PROV_ENTITY def:trainingTilesDataset -->
<g id="node5" class="node">
<title>https://example.org/trainingTilesDataset</title>
<g id="a_node5"><a xlink:href="https://example.org/trainingTilesDataset" xlink:title="trainingTilesDataset">
<ellipse fill="#fffc87" stroke="#808080" cx="801" cy="-371.25" rx="83" ry="18"/>
<text text-anchor="middle" x="801" y="-365.82" font-family="Times New Roman,serif" font-size="14.00">trainingTilesDataset</text>
</a>
</g>
</g>
<!-- https://example.org/prostateTrain&#45;&gt;https://example.org/trainingTilesDataset -->
<!-- PROV_USAGE _:_ -->
<g id="edge17" class="edge">
<title>https://example.org/prostateTrain&#45;&gt;https://example.org/trainingTilesDataset</title>
<path fill="none" stroke="black" d="M690.35,-304.65C711.72,-317.32 740.83,-334.58 763.83,-348.21"/>
<polygon fill="black" stroke="black" points="761.9,-351.14 772.29,-353.23 765.47,-345.12 761.9,-351.14"/>
<text text-anchor="middle" x="703.42" y="-294.95" font-family="Times New Roman,serif" font-size="8.00">use</text>
</g>
<!-- https://example.org/configTrain -->
<!-- PROV_ENTITY def:configTrain -->
<g id="node11" class="node">
<title>https://example.org/configTrain</title>
<g id="a_node11"><a xlink:href="https://example.org/configTrain" xlink:title="configTrain">
<ellipse fill="#fffc87" stroke="#808080" cx="282" cy="-371.25" rx="53.56" ry="18"/>
<text text-anchor="middle" x="282" y="-365.82" font-family="Times New Roman,serif" font-size="14.00">configTrain</text>
</a>
</g>
</g>
<!-- https://example.org/prostateTrain&#45;&gt;https://example.org/configTrain -->
<!-- PROV_USAGE _:_ -->
<g id="edge12" class="edge">
<title>https://example.org/prostateTrain&#45;&gt;https://example.org/configTrain</title>
<path fill="none" stroke="black" d="M624.6,-304.69C618.81,-306.99 612.81,-309.12 607,-310.75 493.83,-342.5 458.98,-318.04 345,-346.75 338.55,-348.38 331.84,-350.44 325.32,-352.67"/>
<polygon fill="black" stroke="black" points="324.24,-349.34 316.01,-356.02 326.61,-355.93 324.24,-349.34"/>
<text text-anchor="middle" x="622.38" y="-317.17" font-family="Times New Roman,serif" font-size="8.00">use</text>
</g>
<!-- &#45;attrs1 -->
<g id="node4" class="node">
<title>&#45;attrs1</title>
<polygon fill="none" stroke="gray" points="807.5,-225.75 206.5,-225.75 206.5,-150.75 813.5,-150.75 813.5,-219.75 807.5,-225.75"/>
<polyline fill="none" stroke="gray" points="807.5,-225.75 807.5,-219.75"/>
<polyline fill="none" stroke="gray" points="813.5,-219.75 807.5,-219.75"/>
<text text-anchor="start" x="216.5" y="-210.25" font-family="Times New Roman,serif" font-size="10.00">userID:</text>
<text text-anchor="start" x="257.5" y="-210.25" font-family="Times New Roman,serif" font-size="10.00">mjakubik</text>
<text text-anchor="start" x="216.5" y="-197.25" font-family="Times New Roman,serif" font-size="10.00">metrics:</text>
<text text-anchor="start" x="257.5" y="-197.25" font-family="Times New Roman,serif" font-size="10.00">eyJ2YWxpZC9iaW5hcnlfYXVyb2MiOjAuODM2MjA0NzA3NjIyNTI4MSwidmFsaWQvYmluYXJ5X2FjY3VyYWN5IjowLjc0MjIwMDAx...</text>
<text text-anchor="start" x="216.5" y="-184.25" font-family="Times New Roman,serif" font-size="10.00">runID:</text>
<text text-anchor="start" x="257.5" y="-184.25" font-family="Times New Roman,serif" font-size="10.00">6bc00f9abbd0465d865f0c1e1fa7196a</text>
<text text-anchor="start" x="216.12" y="-171.25" font-family="Times New Roman,serif" font-size="10.00">startTime:</text>
<text text-anchor="start" x="257.5" y="-171.25" font-family="Times New Roman,serif" font-size="10.00">2024&#45;01&#45;16T15:41:01</text>
<text text-anchor="start" x="216.5" y="-158.25" font-family="Times New Roman,serif" font-size="10.00">duration:</text>
<text text-anchor="start" x="257.5" y="-158.25" font-family="Times New Roman,serif" font-size="10.00">PT9H5M40S</text>
</g>
<!-- &#45;attrs1&#45;&gt;https://example.org/prostateTrain -->
<!-- null _:_ -->
<g id="edge2" class="edge">
<title>&#45;attrs1&#45;&gt;https://example.org/prostateTrain</title>
<path fill="none" stroke="gray" stroke-dasharray="5,2" d="M567.95,-226.09C590.57,-240.47 615.42,-256.27 633.74,-267.92"/>
</g>
<!-- https://example.org/trainingTilesDataset&#45;&gt;http://10.16.48.121:42069/api/v1/connectors/trainTilesConnector -->
<!-- PROV_SPECIALIZATION _:_ -->
<g id="edge15" class="edge">
<title>https://example.org/trainingTilesDataset&#45;&gt;http://10.16.48.121:42069/api/v1/connectors/trainTilesConnector</title>
<path fill="none" stroke="black" d="M840.19,-387.55C871.04,-399.59 914.22,-416.44 947.46,-429.41"/>
<polygon fill="black" stroke="black" points="945.88,-432.55 956.47,-432.93 948.42,-426.03 945.88,-432.55"/>
<text text-anchor="middle" x="851.9" y="-375.82" font-family="Times New Roman,serif" font-size="8.00">spe</text>
</g>
<!-- &#45;attrs2 -->
<g id="node6" class="node">
<title>&#45;attrs2</title>
<polygon fill="none" stroke="gray" points="849.5,-304.25 764.5,-304.25 764.5,-268.25 855.5,-268.25 855.5,-298.25 849.5,-304.25"/>
<polyline fill="none" stroke="gray" points="849.5,-304.25 849.5,-298.25"/>
<polyline fill="none" stroke="gray" points="855.5,-298.25 849.5,-298.25"/>
<text text-anchor="start" x="774.5" y="-282.38" font-family="Times New Roman,serif" font-size="10.00">type:</text>
<text text-anchor="start" x="796.75" y="-282.38" font-family="Times New Roman,serif" font-size="10.00">repr:Dataset</text>
</g>
<!-- &#45;attrs2&#45;&gt;https://example.org/trainingTilesDataset -->
<!-- null _:_ -->
<g id="edge3" class="edge">
<title>&#45;attrs2&#45;&gt;https://example.org/trainingTilesDataset</title>
<path fill="none" stroke="gray" stroke-dasharray="5,2" d="M808.14,-304.45C806.6,-318.6 804.44,-338.57 802.89,-352.79"/>
</g>
<!-- https://example.org/researchDataCentre -->
<!-- PROV_AGENT def:researchDataCentre -->
<g id="node19" class="node">
<title>https://example.org/researchDataCentre</title>
<g id="a_node19"><a xlink:href="https://example.org/researchDataCentre" xlink:title="researchDataCentre">
<polygon fill="#fdb266" stroke="black" points="803.59,-527.31 701,-539.75 598.41,-527.31 598.5,-507.19 803.5,-507.19 803.59,-527.31"/>
<text text-anchor="middle" x="701" y="-516.33" font-family="Times New Roman,serif" font-size="14.00">researchDataCentre</text>
</a>
</g>
</g>
<!-- http://10.16.48.121:42069/api/v1/connectors/trainTilesConnector&#45;&gt;https://example.org/researchDataCentre -->
<!-- PROV_ATTRIBUTION _:_ -->
<g id="edge18" class="edge">
<title>http://10.16.48.121:42069/api/v1/connectors/trainTilesConnector&#45;&gt;https://example.org/researchDataCentre</title>
<path fill="none" stroke="black" d="M942.02,-463.75C893.89,-475.13 823.69,-491.74 771.45,-504.09"/>
<polygon fill="black" stroke="black" points="770.66,-500.68 761.73,-506.39 772.27,-507.49 770.66,-500.68"/>
<text text-anchor="middle" x="937.71" y="-475.77" font-family="Times New Roman,serif" font-size="8.00">att</text>
</g>
<!-- &#45;attrs3 -->
<g id="node8" class="node">
<title>&#45;attrs3</title>
<polygon fill="none" stroke="gray" points="1086.5,-389.25 901.5,-389.25 901.5,-353.25 1092.5,-353.25 1092.5,-383.25 1086.5,-389.25"/>
<polyline fill="none" stroke="gray" points="1086.5,-389.25 1086.5,-383.25"/>
<polyline fill="none" stroke="gray" points="1092.5,-383.25 1086.5,-383.25"/>
<text text-anchor="start" x="911.5" y="-373.75" font-family="Times New Roman,serif" font-size="10.00">type:</text>
<text text-anchor="start" x="983.5" y="-373.75" font-family="Times New Roman,serif" font-size="10.00">cpm:backwardConnector</text>
<text text-anchor="start" x="911.25" y="-360.75" font-family="Times New Roman,serif" font-size="10.00">receiverBundleId:</text>
<text text-anchor="start" x="983.5" y="-360.75" font-family="Times New Roman,serif" font-size="10.00">bndl:preprocTrain</text>
</g>
<!-- &#45;attrs3&#45;&gt;http://10.16.48.121:42069/api/v1/connectors/trainTilesConnector -->
<!-- null _:_ -->
<g id="edge4" class="edge">
<title>&#45;attrs3&#45;&gt;http://10.16.48.121:42069/api/v1/connectors/trainTilesConnector</title>
<path fill="none" stroke="gray" stroke-dasharray="5,2" d="M997,-389.61C997,-402.13 997,-418.96 997,-431.46"/>
</g>
<!-- https://example.org/configFile -->
<!-- PROV_ENTITY def:configFile -->
<g id="node9" class="node">
<title>https://example.org/configFile</title>
<g id="a_node9"><a xlink:href="https://example.org/configFile" xlink:title="configFile">
<ellipse fill="#fffc87" stroke="#808080" cx="527" cy="-449.75" rx="47.57" ry="18"/>
<text text-anchor="middle" x="527" y="-444.32" font-family="Times New Roman,serif" font-size="14.00">configFile</text>
</a>
</g>
</g>
<!-- &#45;attrs4 -->
<g id="node10" class="node">
<title>&#45;attrs4</title>
<polygon fill="none" stroke="gray" points="694,-395.75 354,-395.75 354,-346.75 700,-346.75 700,-389.75 694,-395.75"/>
<polyline fill="none" stroke="gray" points="694,-395.75 694,-389.75"/>
<polyline fill="none" stroke="gray" points="700,-389.75 694,-389.75"/>
<text text-anchor="start" x="364" y="-380.25" font-family="Times New Roman,serif" font-size="10.00">runID:</text>
<text text-anchor="start" x="396" y="-380.25" font-family="Times New Roman,serif" font-size="10.00">6bc00f9abbd0465d865f0c1e1fa7196a</text>
<text text-anchor="start" x="364" y="-367.25" font-family="Times New Roman,serif" font-size="10.00">sha256:</text>
<text text-anchor="start" x="396" y="-367.25" font-family="Times New Roman,serif" font-size="10.00">b99a126d31e7781abae1d88fe78f3979cdd2dbd3023f2d1e67db10161dadae84</text>
<text text-anchor="start" x="364" y="-354.25" font-family="Times New Roman,serif" font-size="10.00">path:</text>
<text text-anchor="start" x="396" y="-354.25" font-family="Times New Roman,serif" font-size="10.00">conf/config_resolved.yaml</text>
</g>
<!-- &#45;attrs4&#45;&gt;https://example.org/configFile -->
<!-- null _:_ -->
<g id="edge5" class="edge">
<title>&#45;attrs4&#45;&gt;https://example.org/configFile</title>
<path fill="none" stroke="gray" stroke-dasharray="5,2" d="M527,-396.04C527,-407.44 527,-420.85 527,-431.3"/>
</g>
<!-- https://example.org/configTrain&#45;&gt;https://example.org/configFile -->
<!-- PROV_DERIVATION _:_ -->
<g id="edge11" class="edge">
<title>https://example.org/configTrain&#45;&gt;https://example.org/configFile</title>
<path fill="none" stroke="black" d="M316.16,-385.55C325.46,-389.02 335.57,-392.65 345,-395.75 400.33,-413.94 415.13,-415.29 471,-431.75 473.91,-432.61 476.91,-433.5 479.93,-434.4"/>
<polygon fill="black" stroke="black" points="478.84,-437.73 489.43,-437.25 480.86,-431.02 478.84,-437.73"/>
<text text-anchor="middle" x="327.71" y="-373.63" font-family="Times New Roman,serif" font-size="8.00">der</text>
</g>
<!-- &#45;attrs5 -->
<g id="node12" class="node">
<title>&#45;attrs5</title>
<polygon fill="none" stroke="gray" points="591.75,-304.25 16.25,-304.25 16.25,-268.25 597.75,-268.25 597.75,-298.25 591.75,-304.25"/>
<polyline fill="none" stroke="gray" points="591.75,-304.25 591.75,-298.25"/>
<polyline fill="none" stroke="gray" points="597.75,-298.25 591.75,-298.25"/>
<text text-anchor="start" x="26.25" y="-282.38" font-family="Times New Roman,serif" font-size="10.00">data:</text>
<text text-anchor="start" x="47.75" y="-282.38" font-family="Times New Roman,serif" font-size="10.00">bWw6CiAgX3RhcmdldF86IGhpc3RvcGlwZS5tbC5IaXN0b1BpcGVNb2R1bGUKICBuZXQ6CiAgICBmZWF0dXJlczoKICAgICAgX3Rh...</text>
</g>
<!-- &#45;attrs5&#45;&gt;https://example.org/configTrain -->
<!-- null _:_ -->
<g id="edge6" class="edge">
<title>&#45;attrs5&#45;&gt;https://example.org/configTrain</title>
<path fill="none" stroke="gray" stroke-dasharray="5,2" d="M301.82,-304.45C297.53,-318.69 291.46,-338.84 287.17,-353.07"/>
</g>
<!-- http://10.16.48.121:42069/api/v1/connectors/trainedModelConnector -->
<!-- PROV_ENTITY conn:trainedModelConnector -->
<g id="node13" class="node">
<title>http://10.16.48.121:42069/api/v1/connectors/trainedModelConnector</title>
<g id="a_node13"><a xlink:href="http://10.16.48.121:42069/api/v1/connectors/trainedModelConnector" xlink:title="trainedModelConnector">
<ellipse fill="#fffc87" stroke="#808080" cx="972" cy="-286.25" rx="98.97" ry="18"/>
<text text-anchor="middle" x="972" y="-280.82" font-family="Times New Roman,serif" font-size="14.00">trainedModelConnector</text>
</a>
</g>
</g>
<!-- http://10.16.48.121:42069/api/v1/connectors/trainedModelConnector&#45;&gt;https://example.org/training -->
<!-- PROV_GENERATION _:_ -->
<g id="edge21" class="edge">
<title>http://10.16.48.121:42069/api/v1/connectors/trainedModelConnector&#45;&gt;https://example.org/training</title>
<path fill="none" stroke="black" d="M1014.15,-302.99C1043.4,-314.29 1083.06,-330.37 1117,-346.75 1118.09,-347.28 1119.19,-347.82 1120.3,-348.37"/>
<polygon fill="black" stroke="black" points="1118.5,-351.38 1128.98,-352.9 1121.73,-345.17 1118.5,-351.38"/>
<text text-anchor="middle" x="1025.85" y="-291.26" font-family="Times New Roman,serif" font-size="8.00">gen</text>
</g>
<!-- http://10.16.48.121:42069/api/v1/connectors/trainedModelConnector&#45;&gt;http://10.16.48.121:42069/api/v1/connectors/trainTilesConnector -->
<!-- PROV_DERIVATION _:_ -->
<g id="edge22" class="edge">
<title>http://10.16.48.121:42069/api/v1/connectors/trainedModelConnector&#45;&gt;http://10.16.48.121:42069/api/v1/connectors/trainTilesConnector</title>
<path fill="none" stroke="black" d="M1035.21,-300.46C1060.46,-309.17 1087.05,-323.46 1102,-346.75 1113.77,-365.08 1113.41,-377.2 1102,-395.75 1092.3,-411.52 1076.29,-422.77 1059.67,-430.72"/>
<polygon fill="black" stroke="black" points="1058.44,-427.44 1050.68,-434.65 1061.24,-433.85 1058.44,-427.44"/>
<text text-anchor="middle" x="1046.72" y="-288.49" font-family="Times New Roman,serif" font-size="8.00">der</text>
</g>
<!-- &#45;attrs6 -->
<g id="node14" class="node">
<title>&#45;attrs6</title>
<polygon fill="none" stroke="gray" points="1141.5,-206.25 968.5,-206.25 968.5,-170.25 1147.5,-170.25 1147.5,-200.25 1141.5,-206.25"/>
<polyline fill="none" stroke="gray" points="1141.5,-206.25 1141.5,-200.25"/>
<polyline fill="none" stroke="gray" points="1147.5,-200.25 1141.5,-200.25"/>
<text text-anchor="start" x="978.5" y="-190.75" font-family="Times New Roman,serif" font-size="10.00">type:</text>
<text text-anchor="start" x="1046.25" y="-190.75" font-family="Times New Roman,serif" font-size="10.00">cpm:forwardConnector</text>
<text text-anchor="start" x="978.5" y="-177.75" font-family="Times New Roman,serif" font-size="10.00">senderBundleId:</text>
<text text-anchor="start" x="1046.5" y="-177.75" font-family="Times New Roman,serif" font-size="10.00">bndl:eval</text>
</g>
<!-- &#45;attrs6&#45;&gt;http://10.16.48.121:42069/api/v1/connectors/trainedModelConnector -->
<!-- null _:_ -->
<g id="edge7" class="edge">
<title>&#45;attrs6&#45;&gt;http://10.16.48.121:42069/api/v1/connectors/trainedModelConnector</title>
<path fill="none" stroke="gray" stroke-dasharray="5,2" d="M1042.62,-206.41C1026.97,-223.89 1002.85,-250.82 987.24,-268.24"/>
</g>
<!-- https://example.org/trainedModel -->
<!-- PROV_ENTITY def:trainedModel -->
<g id="node15" class="node">
<title>https://example.org/trainedModel</title>
<g id="a_node15"><a xlink:href="https://example.org/trainedModel" xlink:title="trainedModel">
<ellipse fill="#fffc87" stroke="#808080" cx="891" cy="-188.25" rx="59.55" ry="18"/>
<text text-anchor="middle" x="891" y="-182.82" font-family="Times New Roman,serif" font-size="14.00">trainedModel</text>
</a>
</g>
</g>
<!-- https://example.org/trainedModel&#45;&gt;https://example.org/prostateTrain -->
<!-- PROV_GENERATION _:_ -->
<g id="edge23" class="edge">
<title>https://example.org/trainedModel&#45;&gt;https://example.org/prostateTrain</title>
<path fill="none" stroke="black" d="M864.35,-204.8C852,-211.69 836.98,-219.6 823,-225.75 778.61,-245.28 765.42,-244.77 720,-261.75 718.22,-262.41 716.42,-263.09 714.6,-263.79"/>
<polygon fill="black" stroke="black" points="713.58,-260.43 705.51,-267.29 716.1,-266.96 713.58,-260.43"/>
<text text-anchor="middle" x="864.08" y="-217.45" font-family="Times New Roman,serif" font-size="8.00">gen</text>
</g>
<!-- https://example.org/trainedModel&#45;&gt;https://example.org/trainingTilesDataset -->
<!-- PROV_DERIVATION _:_ -->
<g id="edge14" class="edge">
<title>https://example.org/trainedModel&#45;&gt;https://example.org/trainingTilesDataset</title>
<path fill="none" stroke="black" d="M862.71,-204.43C823.14,-225.66 756.05,-261.67 756,-261.75 744.82,-280.44 749.07,-290.1 756,-310.75 760.16,-323.16 768.05,-335.04 776.08,-344.88"/>
<polygon fill="black" stroke="black" points="773.19,-346.9 782.39,-352.16 778.48,-342.31 773.19,-346.9"/>
<text text-anchor="middle" x="862.25" y="-217.07" font-family="Times New Roman,serif" font-size="8.00">der</text>
</g>
<!-- https://example.org/trainedModel&#45;&gt;https://example.org/configTrain -->
<!-- PROV_DERIVATION _:_ -->
<g id="edge13" class="edge">
<title>https://example.org/trainedModel&#45;&gt;https://example.org/configTrain</title>
<path fill="none" stroke="black" d="M863.41,-204.55C851.12,-211.23 836.43,-219.05 823,-225.75 788.83,-242.79 773.53,-236.38 745,-261.75 725.92,-278.72 736.65,-297.2 715,-310.75 644.97,-354.58 425.49,-328.16 345,-346.75 338.28,-348.3 331.31,-350.39 324.56,-352.68"/>
<polygon fill="black" stroke="black" points="323.85,-349.22 315.63,-355.89 326.22,-355.8 323.85,-349.22"/>
<text text-anchor="middle" x="863.01" y="-217.19" font-family="Times New Roman,serif" font-size="8.00">der</text>
</g>
<!-- https://example.org/trainedModel&#45;&gt;http://10.16.48.121:42069/api/v1/connectors/trainedModelConnector -->
<!-- PROV_SPECIALIZATION _:_ -->
<g id="edge19" class="edge">
<title>https://example.org/trainedModel&#45;&gt;http://10.16.48.121:42069/api/v1/connectors/trainedModelConnector</title>
<path fill="none" stroke="black" d="M905.11,-205.97C917.61,-220.79 936.07,-242.66 950.43,-259.68"/>
<polygon fill="black" stroke="black" points="947.41,-261.53 956.53,-266.92 952.76,-257.02 947.41,-261.53"/>
<text text-anchor="middle" x="919.87" y="-200.98" font-family="Times New Roman,serif" font-size="8.00">spe</text>
</g>
<!-- &#45;attrs7 -->
<g id="node16" class="node">
<title>&#45;attrs7</title>
<polygon fill="none" stroke="gray" points="980,-101.75 796,-101.75 796,-52.75 986,-52.75 986,-95.75 980,-101.75"/>
<polyline fill="none" stroke="gray" points="980,-101.75 980,-95.75"/>
<polyline fill="none" stroke="gray" points="986,-95.75 980,-95.75"/>
<text text-anchor="start" x="806" y="-86.25" font-family="Times New Roman,serif" font-size="10.00">type:</text>
<text text-anchor="start" x="833" y="-86.25" font-family="Times New Roman,serif" font-size="10.00">repr:Model</text>
<text text-anchor="start" x="805.75" y="-73.25" font-family="Times New Roman,serif" font-size="10.00">runID:</text>
<text text-anchor="start" x="832.88" y="-73.25" font-family="Times New Roman,serif" font-size="10.00">6bc00f9abbd0465d865f0c1e1fa7196a</text>
<text text-anchor="start" x="806" y="-60.25" font-family="Times New Roman,serif" font-size="10.00">path:</text>
<text text-anchor="start" x="833" y="-60.25" font-family="Times New Roman,serif" font-size="10.00">model/</text>
</g>
<!-- &#45;attrs7&#45;&gt;https://example.org/trainedModel -->
<!-- null _:_ -->
<g id="edge8" class="edge">
<title>&#45;attrs7&#45;&gt;https://example.org/trainedModel</title>
<path fill="none" stroke="gray" stroke-dasharray="5,2" d="M891,-102.17C891,-122.6 891,-151.51 891,-169.81"/>
</g>
<!-- https://example.org/logsTrain -->
<!-- PROV_ENTITY def:logsTrain -->
<g id="node17" class="node">
<title>https://example.org/logsTrain</title>
<g id="a_node17"><a xlink:href="https://example.org/logsTrain" xlink:title="logsTrain">
<ellipse fill="#fffc87" stroke="#808080" cx="143" cy="-188.25" rx="45.57" ry="18"/>
<text text-anchor="middle" x="143" y="-182.82" font-family="Times New Roman,serif" font-size="14.00">logsTrain</text>
</a>
</g>
</g>
<!-- https://example.org/logsTrain&#45;&gt;https://example.org/prostateTrain -->
<!-- PROV_GENERATION _:_ -->
<g id="edge20" class="edge">
<title>https://example.org/logsTrain&#45;&gt;https://example.org/prostateTrain</title>
<path fill="none" stroke="black" d="M161.59,-204.98C171.69,-212.62 184.8,-221.13 198,-225.75 370.23,-286.06 430.15,-216.76 607,-261.75 609.46,-262.37 611.94,-263.1 614.43,-263.9"/>
<polygon fill="black" stroke="black" points="613.24,-267.19 623.83,-267.28 615.61,-260.6 613.24,-267.19"/>
<text text-anchor="middle" x="175.35" y="-196.67" font-family="Times New Roman,serif" font-size="8.00">gen</text>
</g>
<!-- &#45;attrs8 -->
<g id="node18" class="node">
<title>&#45;attrs8</title>
<polygon fill="none" stroke="gray" points="641.5,-114.75 16.5,-114.75 16.5,-39.75 647.5,-39.75 647.5,-108.75 641.5,-114.75"/>
<polyline fill="none" stroke="gray" points="641.5,-114.75 641.5,-108.75"/>
<polyline fill="none" stroke="gray" points="647.5,-108.75 641.5,-108.75"/>
<text text-anchor="start" x="26.5" y="-99.25" font-family="Times New Roman,serif" font-size="10.00">type:</text>
<text text-anchor="start" x="58.5" y="-99.25" font-family="Times New Roman,serif" font-size="10.00">repr:Log</text>
<text text-anchor="start" x="26.5" y="-86.25" font-family="Times New Roman,serif" font-size="10.00">data:</text>
<text text-anchor="start" x="58.12" y="-86.25" font-family="Times New Roman,serif" font-size="10.00">WzIwMjQtMDEtMTYgMTY6NDA6NTYsNDQ5XVt0YXNrX2NsaV1bSU5GT10gLSBbUmVwcm9kdWNpYmlsaXR5XSBTZWVkaW5nIGV2ZXJ5...</text>
<text text-anchor="start" x="26.5" y="-73.25" font-family="Times New Roman,serif" font-size="10.00">runID:</text>
<text text-anchor="start" x="58.5" y="-73.25" font-family="Times New Roman,serif" font-size="10.00">6bc00f9abbd0465d865f0c1e1fa7196a</text>
<text text-anchor="start" x="26.5" y="-60.25" font-family="Times New Roman,serif" font-size="10.00">sha256:</text>
<text text-anchor="start" x="58.5" y="-60.25" font-family="Times New Roman,serif" font-size="10.00">134caeea4a41282c7132d607c70d16b1246fa20718c6210285018fbeb972b6c0</text>
<text text-anchor="start" x="26.5" y="-47.25" font-family="Times New Roman,serif" font-size="10.00">path:</text>
<text text-anchor="start" x="58.5" y="-47.25" font-family="Times New Roman,serif" font-size="10.00">logs/task.log</text>
</g>
<!-- &#45;attrs8&#45;&gt;https://example.org/logsTrain -->
<!-- null _:_ -->
<g id="edge9" class="edge">
<title>&#45;attrs8&#45;&gt;https://example.org/logsTrain</title>
<path fill="none" stroke="gray" stroke-dasharray="5,2" d="M261.09,-115.08C240.52,-126.17 218.18,-138.63 198,-150.75 186.9,-157.42 174.88,-165.31 164.92,-172.05"/>
</g>
<!-- &#45;attrs9 -->
<g id="node20" class="node">
<title>&#45;attrs9</title>
<polygon fill="none" stroke="gray" points="455.75,-467.75 348.25,-467.75 348.25,-431.75 461.75,-431.75 461.75,-461.75 455.75,-467.75"/>
<polyline fill="none" stroke="gray" points="455.75,-467.75 455.75,-461.75"/>
<polyline fill="none" stroke="gray" points="461.75,-461.75 455.75,-461.75"/>
<text text-anchor="start" x="358.25" y="-445.88" font-family="Times New Roman,serif" font-size="10.00">type:</text>
<text text-anchor="start" x="380.5" y="-445.88" font-family="Times New Roman,serif" font-size="10.00">cpm:senderAgent</text>
</g>
<!-- &#45;attrs9&#45;&gt;https://example.org/researchDataCentre -->
<!-- null _:_ -->
<g id="edge10" class="edge">
<title>&#45;attrs9&#45;&gt;https://example.org/researchDataCentre</title>
<path fill="none" stroke="gray" stroke-dasharray="5,2" d="M462.05,-465.77C464.73,-466.45 467.39,-467.11 470,-467.75 526.54,-481.63 591.15,-496.36 637.64,-506.76"/>
</g>
</g>
</svg>
