<?xml version="1.0" encoding="UTF-8" standalone="no"?>
<!DOCTYPE svg PUBLIC "-//W3C//DTD SVG 1.1//EN"
 "http://www.w3.org/Graphics/SVG/1.1/DTD/svg11.dtd">
<!-- Generated by graphviz version 9.0.0 (20230911.1827)
 -->
<!-- Title: title Pages: 1 -->
<svg width="1254pt" height="499pt"
 viewBox="0.00 0.00 1254.00 498.75" xmlns="http://www.w3.org/2000/svg" xmlns:xlink="http://www.w3.org/1999/xlink">
<g id="graph0" class="graph" transform="scale(1 1) rotate(0) translate(4 494.75)">
<title>title</title>
<polygon fill="white" stroke="none" points="-4,4 -4,-494.75 1250,-494.75 1250,4 -4,4"/>
<g id="clust1" class="cluster">
<title>clusterhttp://10.16.48.121:42069/api/v1/organizations/ORG/graphs/train</title>
<g id="a_clust1"><a xlink:href="http://10.16.48.121:42069/api/v1/organizations/ORG/graphs/train" xlink:title="train">
<polygon fill="none" stroke="black" points="8,-8 8,-482.75 1238,-482.75 1238,-8 8,-8"/>
<text text-anchor="middle" x="623" y="-14.45" font-family="Times New Roman,serif" font-size="14.00">train</text>
</a>
</g>
</g>
<!-- https://example.org/training -->
<!-- PROV_ACTIVITY def:training -->
<g id="node1" class="node">
<title>https://example.org/training</title>
<g id="a_node1"><a xlink:href="https://example.org/training" xlink:title="training">
<polygon fill="#9fb1fc" stroke="#0000ff" points="330.25,-330.75 273.75,-330.75 273.75,-294.75 330.25,-294.75 330.25,-330.75"/>
<text text-anchor="middle" x="302" y="-307.32" font-family="Times New Roman,serif" font-size="14.00">training</text>
</a>
</g>
</g>
<!-- http://10.16.48.121:42069/api/v1/connectors/trainTrainingTilesConnector -->
<!-- PROV_ENTITY conn:trainTrainingTilesConnector -->
<g id="node11" class="node">
<title>http://10.16.48.121:42069/api/v1/connectors/trainTrainingTilesConnector</title>
<g id="a_node11"><a xlink:href="http://10.16.48.121:42069/api/v1/connectors/trainTrainingTilesConnector" xlink:title="trainTrainingTilesConnector">
<ellipse fill="#fffc87" stroke="#808080" cx="368" cy="-384.75" rx="114.44" ry="18"/>
<text text-anchor="middle" x="368" y="-379.32" font-family="Times New Roman,serif" font-size="14.00">trainTrainingTilesConnector</text>
</a>
</g>
</g>
<!-- https://example.org/training&#45;&gt;http://10.16.48.121:42069/api/v1/connectors/trainTrainingTilesConnector -->
<!-- PROV_USAGE _:_ -->
<g id="edge11" class="edge">
<title>https://example.org/training&#45;&gt;http://10.16.48.121:42069/api/v1/connectors/trainTrainingTilesConnector</title>
<path fill="none" stroke="black" d="M318.31,-331.05C326.07,-339.28 335.49,-349.27 344.03,-358.33"/>
<polygon fill="black" stroke="black" points="341.43,-360.67 350.83,-365.54 346.52,-355.87 341.43,-360.67"/>
<text text-anchor="middle" x="332.91" y="-325.25" font-family="Times New Roman,serif" font-size="8.00">use</text>
</g>
<!-- &#45;attrs0 -->
<g id="node2" class="node">
<title>&#45;attrs0</title>
<polygon fill="none" stroke="gray" points="366,-258.75 232,-258.75 232,-209.75 372,-209.75 372,-252.75 366,-258.75"/>
<polyline fill="none" stroke="gray" points="366,-258.75 366,-252.75"/>
<polyline fill="none" stroke="gray" points="372,-252.75 366,-252.75"/>
<text text-anchor="start" x="242" y="-243.25" font-family="Times New Roman,serif" font-size="10.00">type:</text>
<text text-anchor="start" x="291.75" y="-243.25" font-family="Times New Roman,serif" font-size="10.00">cpm:mainActivity</text>
<text text-anchor="start" x="242" y="-230.25" font-family="Times New Roman,serif" font-size="10.00">hasPart:</text>
<text text-anchor="start" x="292" y="-230.25" font-family="Times New Roman,serif" font-size="10.00">def:prostateTrain</text>
<text text-anchor="start" x="241.62" y="-217.25" font-family="Times New Roman,serif" font-size="10.00">metabundle:</text>
<text text-anchor="start" x="292" y="-217.25" font-family="Times New Roman,serif" font-size="10.00">meta:trainMeta</text>
</g>
<!-- &#45;attrs0&#45;&gt;https://example.org/training -->
<!-- null _:_ -->
<g id="edge1" class="edge">
<title>&#45;attrs0&#45;&gt;https://example.org/training</title>
<path fill="none" stroke="gray" stroke-dasharray="5,2" d="M302,-259.04C302,-270.44 302,-283.85 302,-294.3"/>
</g>
<!-- https://example.org/prostateTrain -->
<!-- PROV_ACTIVITY def:prostateTrain -->
<g id="node3" class="node">
<title>https://example.org/prostateTrain</title>
<g id="a_node3"><a xlink:href="https://example.org/prostateTrain" xlink:title="prostateTrain">
<polygon fill="#9fb1fc" stroke="#0000ff" points="630.12,-252.25 539.88,-252.25 539.88,-216.25 630.12,-216.25 630.12,-252.25"/>
<text text-anchor="middle" x="585" y="-228.82" font-family="Times New Roman,serif" font-size="14.00">prostateTrain</text>
</a>
</g>
</g>
<!-- https://example.org/configTrain -->
<!-- PROV_ENTITY def:configTrain -->
<g id="node9" class="node">
<title>https://example.org/configTrain</title>
<g id="a_node9"><a xlink:href="https://example.org/configTrain" xlink:title="configTrain">
<ellipse fill="#fffc87" stroke="#808080" cx="796" cy="-312.75" rx="53.56" ry="18"/>
<text text-anchor="middle" x="796" y="-307.32" font-family="Times New Roman,serif" font-size="14.00">configTrain</text>
</a>
</g>
</g>
<!-- https://example.org/prostateTrain&#45;&gt;https://example.org/configTrain -->
<!-- PROV_USAGE _:_ -->
<g id="edge13" class="edge">
<title>https://example.org/prostateTrain&#45;&gt;https://example.org/configTrain</title>
<path fill="none" stroke="black" d="M624.06,-252.71C629.06,-254.81 634.13,-256.87 639,-258.75 674.78,-272.54 715.86,-286.34 747.02,-296.4"/>
<polygon fill="black" stroke="black" points="745.57,-299.61 756.16,-299.33 747.71,-292.95 745.57,-299.61"/>
<text text-anchor="middle" x="636" y="-241.27" font-family="Times New Roman,serif" font-size="8.00">use</text>
</g>
<!-- https://example.org/trainingTilesDataset -->
<!-- PROV_ENTITY def:trainingTilesDataset -->
<g id="node13" class="node">
<title>https://example.org/trainingTilesDataset</title>
<g id="a_node13"><a xlink:href="https://example.org/trainingTilesDataset" xlink:title="trainingTilesDataset">
<ellipse fill="#fffc87" stroke="#808080" cx="433" cy="-312.75" rx="83" ry="18"/>
<text text-anchor="middle" x="433" y="-307.32" font-family="Times New Roman,serif" font-size="14.00">trainingTilesDataset</text>
</a>
</g>
</g>
<!-- https://example.org/prostateTrain&#45;&gt;https://example.org/trainingTilesDataset -->
<!-- PROV_USAGE _:_ -->
<g id="edge12" class="edge">
<title>https://example.org/prostateTrain&#45;&gt;https://example.org/trainingTilesDataset</title>
<path fill="none" stroke="black" d="M550.51,-252.61C528.08,-263.9 498.69,-278.69 474.91,-290.66"/>
<polygon fill="black" stroke="black" points="473.47,-287.46 466.11,-295.08 476.62,-293.71 473.47,-287.46"/>
<text text-anchor="middle" x="549.65" y="-265.23" font-family="Times New Roman,serif" font-size="8.00">use</text>
</g>
<!-- &#45;attrs1 -->
<g id="node4" class="node">
<title>&#45;attrs1</title>
<polygon fill="none" stroke="gray" points="1140,-173.75 668,-173.75 668,-137.75 1146,-137.75 1146,-167.75 1140,-173.75"/>
<polyline fill="none" stroke="gray" points="1140,-173.75 1140,-167.75"/>
<polyline fill="none" stroke="gray" points="1146,-167.75 1140,-167.75"/>
<text text-anchor="start" x="677.62" y="-158.25" font-family="Times New Roman,serif" font-size="10.00">metrics:</text>
<text text-anchor="start" x="709.62" y="-158.25" font-family="Times New Roman,serif" font-size="10.00">{&quot;valid/binary_auroc&quot;:0.8362047076225281,&quot;valid/binary_accuracy&quot;:0.7422000169754028,&quot;epoch&quot;:49,&quot;vali...</text>
<text text-anchor="start" x="678" y="-145.25" font-family="Times New Roman,serif" font-size="10.00">runID:</text>
<text text-anchor="start" x="710" y="-145.25" font-family="Times New Roman,serif" font-size="10.00">6bc00f9abbd0465d865f0c1e1fa7196a</text>
</g>
<!-- &#45;attrs1&#45;&gt;https://example.org/prostateTrain -->
<!-- null _:_ -->
<g id="edge2" class="edge">
<title>&#45;attrs1&#45;&gt;https://example.org/prostateTrain</title>
<path fill="none" stroke="gray" stroke-dasharray="5,2" d="M790.21,-174.21C742.72,-182.76 687.67,-194.54 639,-209.75 633.53,-211.46 627.88,-213.54 622.37,-215.76"/>
</g>
<!-- https://example.org/configFile -->
<!-- PROV_ENTITY def:configFile -->
<g id="node5" class="node">
<title>https://example.org/configFile</title>
<g id="a_node5"><a xlink:href="https://example.org/configFile" xlink:title="configFile">
<ellipse fill="#fffc87" stroke="#808080" cx="879" cy="-384.75" rx="47.57" ry="18"/>
<text text-anchor="middle" x="879" y="-379.32" font-family="Times New Roman,serif" font-size="14.00">configFile</text>
</a>
</g>
</g>
<!-- &#45;attrs2 -->
<g id="node6" class="node">
<title>&#45;attrs2</title>
<polygon fill="none" stroke="gray" points="1052,-330.75 868,-330.75 868,-294.75 1058,-294.75 1058,-324.75 1052,-330.75"/>
<polyline fill="none" stroke="gray" points="1052,-330.75 1052,-324.75"/>
<polyline fill="none" stroke="gray" points="1058,-324.75 1052,-324.75"/>
<text text-anchor="start" x="878" y="-315.25" font-family="Times New Roman,serif" font-size="10.00">path:</text>
<text text-anchor="start" x="905" y="-315.25" font-family="Times New Roman,serif" font-size="10.00">conf/config_resolved.yaml</text>
<text text-anchor="start" x="877.75" y="-302.25" font-family="Times New Roman,serif" font-size="10.00">runID:</text>
<text text-anchor="start" x="904.88" y="-302.25" font-family="Times New Roman,serif" font-size="10.00">6bc00f9abbd0465d865f0c1e1fa7196a</text>
</g>
<!-- &#45;attrs2&#45;&gt;https://example.org/configFile -->
<!-- null _:_ -->
<g id="edge3" class="edge">
<title>&#45;attrs2&#45;&gt;https://example.org/configFile</title>
<path fill="none" stroke="gray" stroke-dasharray="5,2" d="M942.24,-331.05C928.73,-342.31 911.25,-356.88 898.09,-367.84"/>
</g>
<!-- https://example.org/logsTrain -->
<!-- PROV_ENTITY def:logsTrain -->
<g id="node7" class="node">
<title>https://example.org/logsTrain</title>
<g id="a_node7"><a xlink:href="https://example.org/logsTrain" xlink:title="logsTrain">
<ellipse fill="#fffc87" stroke="#808080" cx="604" cy="-155.75" rx="45.57" ry="18"/>
<text text-anchor="middle" x="604" y="-150.32" font-family="Times New Roman,serif" font-size="14.00">logsTrain</text>
</a>
</g>
</g>
<!-- https://example.org/logsTrain&#45;&gt;https://example.org/prostateTrain -->
<!-- PROV_GENERATION _:_ -->
<g id="edge15" class="edge">
<title>https://example.org/logsTrain&#45;&gt;https://example.org/prostateTrain</title>
<path fill="none" stroke="black" d="M599.69,-174.11C597.43,-183.21 594.61,-194.58 592.04,-204.91"/>
<polygon fill="black" stroke="black" points="588.67,-203.94 589.66,-214.49 595.47,-205.63 588.67,-203.94"/>
<text text-anchor="middle" x="610.49" y="-182.17" font-family="Times New Roman,serif" font-size="8.00">gen</text>
</g>
<!-- &#45;attrs3 -->
<g id="node8" class="node">
<title>&#45;attrs3</title>
<polygon fill="none" stroke="gray" points="1062,-101.75 442,-101.75 442,-39.75 1068,-39.75 1068,-95.75 1062,-101.75"/>
<polyline fill="none" stroke="gray" points="1062,-101.75 1062,-95.75"/>
<polyline fill="none" stroke="gray" points="1068,-95.75 1062,-95.75"/>
<text text-anchor="start" x="452" y="-86.25" font-family="Times New Roman,serif" font-size="10.00">type:</text>
<text text-anchor="start" x="479" y="-86.25" font-family="Times New Roman,serif" font-size="10.00">repr:Log</text>
<text text-anchor="start" x="452" y="-73.25" font-family="Times New Roman,serif" font-size="10.00">path:</text>
<text text-anchor="start" x="479" y="-73.25" font-family="Times New Roman,serif" font-size="10.00">logs/task.log</text>
<text text-anchor="start" x="451.75" y="-60.25" font-family="Times New Roman,serif" font-size="10.00">runID:</text>
<text text-anchor="start" x="479" y="-60.25" font-family="Times New Roman,serif" font-size="10.00">6bc00f9abbd0465d865f0c1e1fa7196a</text>
<text text-anchor="start" x="452" y="-47.25" font-family="Times New Roman,serif" font-size="10.00">data:</text>
<text text-anchor="start" x="478.62" y="-47.25" font-family="Times New Roman,serif" font-size="10.00">WzIwMjQtMDEtMTYgMTY6NDA6NTYsNDQ5XVt0YXNrX2NsaV1bSU5GT10gLSBbUmVwcm9kdWNpYmlsaXR5XSBTZWVkaW5nIGV2ZXJ5...</text>
</g>
<!-- &#45;attrs3&#45;&gt;https://example.org/logsTrain -->
<!-- null _:_ -->
<g id="edge4" class="edge">
<title>&#45;attrs3&#45;&gt;https://example.org/logsTrain</title>
<path fill="none" stroke="gray" stroke-dasharray="5,2" d="M699.63,-102.18C675.73,-115.32 648.92,-130.06 629.78,-140.58"/>
</g>
<!-- https://example.org/configTrain&#45;&gt;https://example.org/configFile -->
<!-- PROV_DERIVATION _:_ -->
<g id="edge18" class="edge">
<title>https://example.org/configTrain&#45;&gt;https://example.org/configFile</title>
<path fill="none" stroke="black" d="M815.25,-329.99C826.01,-339.06 839.61,-350.53 851.48,-360.54"/>
<polygon fill="black" stroke="black" points="849.08,-363.1 858.98,-366.87 853.6,-357.75 849.08,-363.1"/>
<text text-anchor="middle" x="829.36" y="-322.54" font-family="Times New Roman,serif" font-size="8.00">der</text>
</g>
<!-- &#45;attrs4 -->
<g id="node10" class="node">
<title>&#45;attrs4</title>
<polygon fill="none" stroke="gray" points="1223.75,-252.25 648.25,-252.25 648.25,-216.25 1229.75,-216.25 1229.75,-246.25 1223.75,-252.25"/>
<polyline fill="none" stroke="gray" points="1223.75,-252.25 1223.75,-246.25"/>
<polyline fill="none" stroke="gray" points="1229.75,-246.25 1223.75,-246.25"/>
<text text-anchor="start" x="658.25" y="-230.38" font-family="Times New Roman,serif" font-size="10.00">data:</text>
<text text-anchor="start" x="679.75" y="-230.38" font-family="Times New Roman,serif" font-size="10.00">bWw6CiAgX3RhcmdldF86IGhpc3RvcGlwZS5tbC5IaXN0b1BpcGVNb2R1bGUKICBuZXQ6CiAgICBmZWF0dXJlczoKICAgICAgX3Rh...</text>
</g>
<!-- &#45;attrs4&#45;&gt;https://example.org/configTrain -->
<!-- null _:_ -->
<g id="edge5" class="edge">
<title>&#45;attrs4&#45;&gt;https://example.org/configTrain</title>
<path fill="none" stroke="gray" stroke-dasharray="5,2" d="M906.55,-252.61C881.5,-266.01 847.22,-284.35 823.51,-297.03"/>
</g>
<!-- https://example.org/researchDataCentre -->
<!-- PROV_AGENT def:researchDataCentre -->
<g id="node19" class="node">
<title>https://example.org/researchDataCentre</title>
<g id="a_node19"><a xlink:href="https://example.org/researchDataCentre" xlink:title="researchDataCentre">
<polygon fill="#fdb266" stroke="black" points="375.59,-462.31 273,-474.75 170.41,-462.31 170.5,-442.19 375.5,-442.19 375.59,-462.31"/>
<text text-anchor="middle" x="273" y="-451.32" font-family="Times New Roman,serif" font-size="14.00">researchDataCentre</text>
</a>
</g>
</g>
<!-- http://10.16.48.121:42069/api/v1/connectors/trainTrainingTilesConnector&#45;&gt;https://example.org/researchDataCentre -->
<!-- PROV_ATTRIBUTION _:_ -->
<g id="edge21" class="edge">
<title>http://10.16.48.121:42069/api/v1/connectors/trainTrainingTilesConnector&#45;&gt;https://example.org/researchDataCentre</title>
<path fill="none" stroke="black" d="M345,-402.7C331.8,-412.43 315.11,-424.72 301.13,-435.03"/>
<polygon fill="black" stroke="black" points="299.15,-432.14 293.17,-440.89 303.3,-437.77 299.15,-432.14"/>
<text text-anchor="middle" x="346.67" y="-415.25" font-family="Times New Roman,serif" font-size="8.00">att</text>
</g>
<!-- &#45;attrs5 -->
<g id="node12" class="node">
<title>&#45;attrs5</title>
<polygon fill="none" stroke="gray" points="718.5,-330.75 533.5,-330.75 533.5,-294.75 724.5,-294.75 724.5,-324.75 718.5,-330.75"/>
<polyline fill="none" stroke="gray" points="718.5,-330.75 718.5,-324.75"/>
<polyline fill="none" stroke="gray" points="724.5,-324.75 718.5,-324.75"/>
<text text-anchor="start" x="543.5" y="-315.25" font-family="Times New Roman,serif" font-size="10.00">type:</text>
<text text-anchor="start" x="615.5" y="-315.25" font-family="Times New Roman,serif" font-size="10.00">cpm:backwardConnector</text>
<text text-anchor="start" x="543.25" y="-302.25" font-family="Times New Roman,serif" font-size="10.00">receiverBundleId:</text>
<text text-anchor="start" x="615.5" y="-302.25" font-family="Times New Roman,serif" font-size="10.00">bndl:preprocTrain</text>
</g>
<!-- &#45;attrs5&#45;&gt;http://10.16.48.121:42069/api/v1/connectors/trainTrainingTilesConnector -->
<!-- null _:_ -->
<g id="edge6" class="edge">
<title>&#45;attrs5&#45;&gt;http://10.16.48.121:42069/api/v1/connectors/trainTrainingTilesConnector</title>
<path fill="none" stroke="gray" stroke-dasharray="5,2" d="M563.81,-331.23C520.78,-342.77 464.98,-357.74 423.96,-368.74"/>
</g>
<!-- https://example.org/trainingTilesDataset&#45;&gt;http://10.16.48.121:42069/api/v1/connectors/trainTrainingTilesConnector -->
<!-- PROV_SPECIALIZATION _:_ -->
<g id="edge22" class="edge">
<title>https://example.org/trainingTilesDataset&#45;&gt;http://10.16.48.121:42069/api/v1/connectors/trainTrainingTilesConnector</title>
<path fill="none" stroke="black" d="M417.27,-330.7C409.63,-338.91 400.31,-348.96 391.83,-358.09"/>
<polygon fill="black" stroke="black" points="389.31,-355.66 385.07,-365.37 394.44,-360.42 389.31,-355.66"/>
<text text-anchor="middle" x="421.68" y="-342.68" font-family="Times New Roman,serif" font-size="8.00">spe</text>
</g>
<!-- &#45;attrs6 -->
<g id="node14" class="node">
<title>&#45;attrs6</title>
<polygon fill="none" stroke="gray" points="475.5,-252.25 390.5,-252.25 390.5,-216.25 481.5,-216.25 481.5,-246.25 475.5,-252.25"/>
<polyline fill="none" stroke="gray" points="475.5,-252.25 475.5,-246.25"/>
<polyline fill="none" stroke="gray" points="481.5,-246.25 475.5,-246.25"/>
<text text-anchor="start" x="400.5" y="-230.38" font-family="Times New Roman,serif" font-size="10.00">type:</text>
<text text-anchor="start" x="422.75" y="-230.38" font-family="Times New Roman,serif" font-size="10.00">repr:Dataset</text>
</g>
<!-- &#45;attrs6&#45;&gt;https://example.org/trainingTilesDataset -->
<!-- null _:_ -->
<g id="edge7" class="edge">
<title>&#45;attrs6&#45;&gt;https://example.org/trainingTilesDataset</title>
<path fill="none" stroke="gray" stroke-dasharray="5,2" d="M435.32,-252.61C434.83,-265.13 434.17,-281.96 433.68,-294.46"/>
</g>
<!-- http://10.16.48.121:42069/api/v1/connectors/trainedModelConnector -->
<!-- PROV_ENTITY conn:trainedModelConnector -->
<g id="node15" class="node">
<title>http://10.16.48.121:42069/api/v1/connectors/trainedModelConnector</title>
<g id="a_node15"><a xlink:href="http://10.16.48.121:42069/api/v1/connectors/trainedModelConnector" xlink:title="trainedModelConnector">
<ellipse fill="#fffc87" stroke="#808080" cx="115" cy="-234.25" rx="98.97" ry="18"/>
<text text-anchor="middle" x="115" y="-228.82" font-family="Times New Roman,serif" font-size="14.00">trainedModelConnector</text>
</a>
</g>
</g>
<!-- http://10.16.48.121:42069/api/v1/connectors/trainedModelConnector&#45;&gt;https://example.org/training -->
<!-- PROV_GENERATION _:_ -->
<g id="edge14" class="edge">
<title>http://10.16.48.121:42069/api/v1/connectors/trainedModelConnector&#45;&gt;https://example.org/training</title>
<path fill="none" stroke="black" d="M153.75,-251.1C185.75,-264.19 230.97,-282.69 263.04,-295.81"/>
<polygon fill="black" stroke="black" points="261.39,-298.92 271.97,-299.47 264.04,-292.44 261.39,-298.92"/>
<text text-anchor="middle" x="165.61" y="-239.57" font-family="Times New Roman,serif" font-size="8.00">gen</text>
</g>
<!-- http://10.16.48.121:42069/api/v1/connectors/trainedModelConnector&#45;&gt;http://10.16.48.121:42069/api/v1/connectors/trainTrainingTilesConnector -->
<!-- PROV_DERIVATION _:_ -->
<g id="edge17" class="edge">
<title>http://10.16.48.121:42069/api/v1/connectors/trainedModelConnector&#45;&gt;http://10.16.48.121:42069/api/v1/connectors/trainTrainingTilesConnector</title>
<path fill="none" stroke="black" d="M139.78,-252.02C169.18,-271.67 219.89,-304.85 265,-330.75 283.9,-341.6 305.25,-352.75 323.59,-362.02"/>
<polygon fill="black" stroke="black" points="321.85,-365.06 332.36,-366.42 324.99,-358.81 321.85,-365.06"/>
<text text-anchor="middle" x="153.22" y="-243.01" font-family="Times New Roman,serif" font-size="8.00">der</text>
</g>
<!-- &#45;attrs7 -->
<g id="node16" class="node">
<title>&#45;attrs7</title>
<polygon fill="none" stroke="gray" points="198.5,-173.75 25.5,-173.75 25.5,-137.75 204.5,-137.75 204.5,-167.75 198.5,-173.75"/>
<polyline fill="none" stroke="gray" points="198.5,-173.75 198.5,-167.75"/>
<polyline fill="none" stroke="gray" points="204.5,-167.75 198.5,-167.75"/>
<text text-anchor="start" x="35.5" y="-158.25" font-family="Times New Roman,serif" font-size="10.00">type:</text>
<text text-anchor="start" x="103.25" y="-158.25" font-family="Times New Roman,serif" font-size="10.00">cpm:forwardConnector</text>
<text text-anchor="start" x="35.5" y="-145.25" font-family="Times New Roman,serif" font-size="10.00">senderBundleId:</text>
<text text-anchor="start" x="103.5" y="-145.25" font-family="Times New Roman,serif" font-size="10.00">bndl:eval</text>
</g>
<!-- &#45;attrs7&#45;&gt;http://10.16.48.121:42069/api/v1/connectors/trainedModelConnector -->
<!-- null _:_ -->
<g id="edge8" class="edge">
<title>&#45;attrs7&#45;&gt;http://10.16.48.121:42069/api/v1/connectors/trainedModelConnector</title>
<path fill="none" stroke="gray" stroke-dasharray="5,2" d="M115,-174.11C115,-186.63 115,-203.46 115,-215.96"/>
</g>
<!-- https://example.org/trainedModel -->
<!-- PROV_ENTITY def:trainedModel -->
<g id="node17" class="node">
<title>https://example.org/trainedModel</title>
<g id="a_node17"><a xlink:href="https://example.org/trainedModel" xlink:title="trainedModel">
<ellipse fill="#fffc87" stroke="#808080" cx="481" cy="-155.75" rx="59.55" ry="18"/>
<text text-anchor="middle" x="481" y="-150.32" font-family="Times New Roman,serif" font-size="14.00">trainedModel</text>
</a>
</g>
</g>
<!-- https://example.org/trainedModel&#45;&gt;https://example.org/prostateTrain -->
<!-- PROV_GENERATION _:_ -->
<g id="edge16" class="edge">
<title>https://example.org/trainedModel&#45;&gt;https://example.org/prostateTrain</title>
<path fill="none" stroke="black" d="M502.8,-172.79C517.14,-183.33 536.17,-197.33 552.31,-209.2"/>
<polygon fill="black" stroke="black" points="550.07,-211.9 560.2,-215.01 554.22,-206.26 550.07,-211.9"/>
<text text-anchor="middle" x="516.54" y="-164.42" font-family="Times New Roman,serif" font-size="8.00">gen</text>
</g>
<!-- https://example.org/trainedModel&#45;&gt;https://example.org/configTrain -->
<!-- PROV_DERIVATION _:_ -->
<g id="edge20" class="edge">
<title>https://example.org/trainedModel&#45;&gt;https://example.org/configTrain</title>
<path fill="none" stroke="black" d="M487.2,-173.83C497.02,-199.92 516.5,-247.84 531,-258.75 604.21,-313.86 644.61,-274.61 734,-294.75 737.76,-295.6 741.64,-296.53 745.53,-297.5"/>
<polygon fill="black" stroke="black" points="744.42,-300.83 754.98,-299.94 746.18,-294.05 744.42,-300.83"/>
<text text-anchor="middle" x="502.01" y="-173.84" font-family="Times New Roman,serif" font-size="8.00">der</text>
</g>
<!-- https://example.org/trainedModel&#45;&gt;https://example.org/trainingTilesDataset -->
<!-- PROV_DERIVATION _:_ -->
<g id="edge19" class="edge">
<title>https://example.org/trainedModel&#45;&gt;https://example.org/trainingTilesDataset</title>
<path fill="none" stroke="black" d="M487.63,-173.81C494.69,-194.75 503.27,-230.91 491,-258.75 486.04,-270.01 477.37,-279.91 468.23,-288.01"/>
<polygon fill="black" stroke="black" points="466.12,-285.22 460.6,-294.26 470.55,-290.64 466.12,-285.22"/>
<text text-anchor="middle" x="502.29" y="-174.66" font-family="Times New Roman,serif" font-size="8.00">der</text>
</g>
<!-- https://example.org/trainedModel&#45;&gt;http://10.16.48.121:42069/api/v1/connectors/trainedModelConnector -->
<!-- PROV_SPECIALIZATION _:_ -->
<g id="edge23" class="edge">
<title>https://example.org/trainedModel&#45;&gt;http://10.16.48.121:42069/api/v1/connectors/trainedModelConnector</title>
<path fill="none" stroke="black" d="M432.46,-166.55C380.58,-177.06 295.92,-194.33 223,-209.75 211.55,-212.17 199.42,-214.77 187.59,-217.33"/>
<polygon fill="black" stroke="black" points="186.88,-213.91 177.85,-219.45 188.36,-220.75 186.88,-213.91"/>
<text text-anchor="middle" x="427.69" y="-178.42" font-family="Times New Roman,serif" font-size="8.00">spe</text>
</g>
<!-- &#45;attrs8 -->
<g id="node18" class="node">
<title>&#45;attrs8</title>
<polygon fill="none" stroke="gray" points="418,-95.25 234,-95.25 234,-46.25 424,-46.25 424,-89.25 418,-95.25"/>
<polyline fill="none" stroke="gray" points="418,-95.25 418,-89.25"/>
<polyline fill="none" stroke="gray" points="424,-89.25 418,-89.25"/>
<text text-anchor="start" x="244" y="-79.75" font-family="Times New Roman,serif" font-size="10.00">type:</text>
<text text-anchor="start" x="271" y="-79.75" font-family="Times New Roman,serif" font-size="10.00">repr:Model</text>
<text text-anchor="start" x="244" y="-66.75" font-family="Times New Roman,serif" font-size="10.00">path:</text>
<text text-anchor="start" x="271" y="-66.75" font-family="Times New Roman,serif" font-size="10.00">model/</text>
<text text-anchor="start" x="243.75" y="-53.75" font-family="Times New Roman,serif" font-size="10.00">runID:</text>
<text text-anchor="start" x="270.88" y="-53.75" font-family="Times New Roman,serif" font-size="10.00">6bc00f9abbd0465d865f0c1e1fa7196a</text>
</g>
<!-- &#45;attrs8&#45;&gt;https://example.org/trainedModel -->
<!-- null _:_ -->
<g id="edge9" class="edge">
<title>&#45;attrs8&#45;&gt;https://example.org/trainedModel</title>
<path fill="none" stroke="gray" stroke-dasharray="5,2" d="M372.56,-95.53C398.52,-109.71 430.71,-127.29 453.25,-139.6"/>
</g>
<!-- &#45;attrs9 -->
<g id="node20" class="node">
<title>&#45;attrs9</title>
<polygon fill="none" stroke="gray" points="229.75,-402.75 122.25,-402.75 122.25,-366.75 235.75,-366.75 235.75,-396.75 229.75,-402.75"/>
<polyline fill="none" stroke="gray" points="229.75,-402.75 229.75,-396.75"/>
<polyline fill="none" stroke="gray" points="235.75,-396.75 229.75,-396.75"/>
<text text-anchor="start" x="132.25" y="-380.88" font-family="Times New Roman,serif" font-size="10.00">type:</text>
<text text-anchor="start" x="154.5" y="-380.88" font-family="Times New Roman,serif" font-size="10.00">cpm:senderAgent</text>
</g>
<!-- &#45;attrs9&#45;&gt;https://example.org/researchDataCentre -->
<!-- null _:_ -->
<g id="edge10" class="edge">
<title>&#45;attrs9&#45;&gt;https://example.org/researchDataCentre</title>
<path fill="none" stroke="gray" stroke-dasharray="5,2" d="M202.24,-403.05C218.22,-414.96 239.18,-430.57 254.13,-441.7"/>
</g>
</g>
</svg>
