<?xml version="1.0" encoding="UTF-8" standalone="no"?>
<!DOCTYPE svg PUBLIC "-//W3C//DTD SVG 1.1//EN"
 "http://www.w3.org/Graphics/SVG/1.1/DTD/svg11.dtd">
<!-- Generated by graphviz version 9.0.0 (20230911.1827)
 -->
<!-- Title: title Pages: 1 -->
<svg width="1253pt" height="499pt"
 viewBox="0.00 0.00 1253.00 498.75" xmlns="http://www.w3.org/2000/svg" xmlns:xlink="http://www.w3.org/1999/xlink">
<g id="graph0" class="graph" transform="scale(1 1) rotate(0) translate(4 494.75)">
<title>title</title>
<polygon fill="white" stroke="none" points="-4,4 -4,-494.75 1249,-494.75 1249,4 -4,4"/>
<g id="clust1" class="cluster">
<title>clusterhttp://_PLACEHOLER_:8000/api/v1/organizations/ORG/graphs/train</title>
<g id="a_clust1"><a xlink:href="http://_PLACEHOLER_:8000/api/v1/organizations/ORG/graphs/train" xlink:title="train">
<polygon fill="none" stroke="black" points="8,-8 8,-482.75 1237,-482.75 1237,-8 8,-8"/>
<text text-anchor="middle" x="622.5" y="-14.45" font-family="Times New Roman,serif" font-size="14.00">train</text>
</a>
</g>
</g>
<!-- https://example.org/prostateTrain -->
<!-- PROV_ACTIVITY def:prostateTrain -->
<g id="node1" class="node">
<title>https://example.org/prostateTrain</title>
<g id="a_node1"><a xlink:href="https://example.org/prostateTrain" xlink:title="prostateTrain">
<polygon fill="#9fb1fc" stroke="#0000ff" points="629.12,-252.25 538.88,-252.25 538.88,-216.25 629.12,-216.25 629.12,-252.25"/>
<text text-anchor="middle" x="584" y="-228.82" font-family="Times New Roman,serif" font-size="14.00">prostateTrain</text>
</a>
</g>
</g>
<!-- https://example.org/trainingTilesDataset -->
<!-- PROV_ENTITY def:trainingTilesDataset -->
<g id="node7" class="node">
<title>https://example.org/trainingTilesDataset</title>
<g id="a_node7"><a xlink:href="https://example.org/trainingTilesDataset" xlink:title="trainingTilesDataset">
<ellipse fill="#fffc87" stroke="#808080" cx="435" cy="-312.75" rx="83" ry="18"/>
<text text-anchor="middle" x="435" y="-307.32" font-family="Times New Roman,serif" font-size="14.00">trainingTilesDataset</text>
</a>
</g>
</g>
<!-- https://example.org/prostateTrain&#45;&gt;https://example.org/trainingTilesDataset -->
<!-- PROV_USAGE _:_ -->
<g id="edge12" class="edge">
<title>https://example.org/prostateTrain&#45;&gt;https://example.org/trainingTilesDataset</title>
<path fill="none" stroke="black" d="M550.19,-252.61C528.28,-263.86 499.58,-278.59 476.32,-290.54"/>
<polygon fill="black" stroke="black" points="475.03,-287.26 467.73,-294.94 478.23,-293.49 475.03,-287.26"/>
<text text-anchor="middle" x="549.45" y="-265.24" font-family="Times New Roman,serif" font-size="8.00">use</text>
</g>
<!-- https://example.org/configTrain -->
<!-- PROV_ENTITY def:configTrain -->
<g id="node13" class="node">
<title>https://example.org/configTrain</title>
<g id="a_node13"><a xlink:href="https://example.org/configTrain" xlink:title="configTrain">
<ellipse fill="#fffc87" stroke="#808080" cx="590" cy="-312.75" rx="53.56" ry="18"/>
<text text-anchor="middle" x="590" y="-307.32" font-family="Times New Roman,serif" font-size="14.00">configTrain</text>
</a>
</g>
</g>
<!-- https://example.org/prostateTrain&#45;&gt;https://example.org/configTrain -->
<!-- PROV_USAGE _:_ -->
<g id="edge15" class="edge">
<title>https://example.org/prostateTrain&#45;&gt;https://example.org/configTrain</title>
<path fill="none" stroke="black" d="M585.36,-252.61C586.07,-261.61 586.95,-272.83 587.75,-283.08"/>
<polygon fill="black" stroke="black" points="584.25,-283.26 588.53,-292.95 591.23,-282.71 584.25,-283.26"/>
<text text-anchor="middle" x="598.9" y="-256.72" font-family="Times New Roman,serif" font-size="8.00">use</text>
</g>
<!-- &#45;attrs0 -->
<g id="node2" class="node">
<title>&#45;attrs0</title>
<polygon fill="none" stroke="gray" points="1135.5,-173.75 666.5,-173.75 666.5,-137.75 1141.5,-137.75 1141.5,-167.75 1135.5,-173.75"/>
<polyline fill="none" stroke="gray" points="1135.5,-173.75 1135.5,-167.75"/>
<polyline fill="none" stroke="gray" points="1141.5,-167.75 1135.5,-167.75"/>
<text text-anchor="start" x="676.5" y="-158.25" font-family="Times New Roman,serif" font-size="10.00">runID:</text>
<text text-anchor="start" x="708.5" y="-158.25" font-family="Times New Roman,serif" font-size="10.00">6bc00f9abbd0465d865f0c1e1fa7196a</text>
<text text-anchor="start" x="676.12" y="-145.25" font-family="Times New Roman,serif" font-size="10.00">metrics:</text>
<text text-anchor="start" x="708.12" y="-145.25" font-family="Times New Roman,serif" font-size="10.00">{\&quot;valid/binary_auroc\&quot;:0.8362047076225281,\&quot;valid/binary_accuracy\&quot;:0.7422000169754028,\&quot;epoch\&quot;:49...</text>
</g>
<!-- &#45;attrs0&#45;&gt;https://example.org/prostateTrain -->
<!-- null _:_ -->
<g id="edge1" class="edge">
<title>&#45;attrs0&#45;&gt;https://example.org/prostateTrain</title>
<path fill="none" stroke="gray" stroke-dasharray="5,2" d="M788.41,-174.23C741.2,-182.79 686.42,-194.58 638,-209.75 632.54,-211.46 626.88,-213.55 621.37,-215.77"/>
</g>
<!-- https://example.org/training -->
<!-- PROV_ACTIVITY def:training -->
<g id="node3" class="node">
<title>https://example.org/training</title>
<g id="a_node3"><a xlink:href="https://example.org/training" xlink:title="training">
<polygon fill="#9fb1fc" stroke="#0000ff" points="291.25,-330.75 234.75,-330.75 234.75,-294.75 291.25,-294.75 291.25,-330.75"/>
<text text-anchor="middle" x="263" y="-307.32" font-family="Times New Roman,serif" font-size="14.00">training</text>
</a>
</g>
</g>
<!-- http://_PLACEHOLER_:8000/api/v1/connectors/trainTrainingTilesConnector -->
<!-- PROV_ENTITY conn:trainTrainingTilesConnector -->
<g id="node15" class="node">
<title>http://_PLACEHOLER_:8000/api/v1/connectors/trainTrainingTilesConnector</title>
<g id="a_node15"><a xlink:href="http://_PLACEHOLER_:8000/api/v1/connectors/trainTrainingTilesConnector" xlink:title="trainTrainingTilesConnector">
<ellipse fill="#fffc87" stroke="#808080" cx="271" cy="-384.75" rx="114.44" ry="18"/>
<text text-anchor="middle" x="271" y="-379.32" font-family="Times New Roman,serif" font-size="14.00">trainTrainingTilesConnector</text>
</a>
</g>
</g>
<!-- https://example.org/training&#45;&gt;http://_PLACEHOLER_:8000/api/v1/connectors/trainTrainingTilesConnector -->
<!-- PROV_USAGE _:_ -->
<g id="edge13" class="edge">
<title>https://example.org/training&#45;&gt;http://_PLACEHOLER_:8000/api/v1/connectors/trainTrainingTilesConnector</title>
<path fill="none" stroke="black" d="M264.98,-331.05C265.81,-338.34 266.8,-347.02 267.74,-355.21"/>
<polygon fill="black" stroke="black" points="264.26,-355.6 268.87,-365.14 271.22,-354.81 264.26,-355.6"/>
<text text-anchor="middle" x="278.74" y="-334.68" font-family="Times New Roman,serif" font-size="8.00">use</text>
</g>
<!-- &#45;attrs1 -->
<g id="node4" class="node">
<title>&#45;attrs1</title>
<polygon fill="none" stroke="gray" points="150,-258.75 16,-258.75 16,-209.75 156,-209.75 156,-252.75 150,-258.75"/>
<polyline fill="none" stroke="gray" points="150,-258.75 150,-252.75"/>
<polyline fill="none" stroke="gray" points="156,-252.75 150,-252.75"/>
<text text-anchor="start" x="26" y="-243.25" font-family="Times New Roman,serif" font-size="10.00">type:</text>
<text text-anchor="start" x="75.75" y="-243.25" font-family="Times New Roman,serif" font-size="10.00">cpm:mainActivity</text>
<text text-anchor="start" x="25.62" y="-230.25" font-family="Times New Roman,serif" font-size="10.00">metabundle:</text>
<text text-anchor="start" x="76" y="-230.25" font-family="Times New Roman,serif" font-size="10.00">meta:trainMeta</text>
<text text-anchor="start" x="26" y="-217.25" font-family="Times New Roman,serif" font-size="10.00">hasPart:</text>
<text text-anchor="start" x="76" y="-217.25" font-family="Times New Roman,serif" font-size="10.00">def:prostateTrain</text>
</g>
<!-- &#45;attrs1&#45;&gt;https://example.org/training -->
<!-- null _:_ -->
<g id="edge2" class="edge">
<title>&#45;attrs1&#45;&gt;https://example.org/training</title>
<path fill="none" stroke="gray" stroke-dasharray="5,2" d="M143.38,-259.2C168.77,-269.91 198.95,-282.79 226,-294.75 228.72,-295.95 231.54,-297.21 234.35,-298.49"/>
</g>
<!-- https://example.org/logsTrain -->
<!-- PROV_ENTITY def:logsTrain -->
<g id="node5" class="node">
<title>https://example.org/logsTrain</title>
<g id="a_node5"><a xlink:href="https://example.org/logsTrain" xlink:title="logsTrain">
<ellipse fill="#fffc87" stroke="#808080" cx="603" cy="-155.75" rx="45.57" ry="18"/>
<text text-anchor="middle" x="603" y="-150.32" font-family="Times New Roman,serif" font-size="14.00">logsTrain</text>
</a>
</g>
</g>
<!-- https://example.org/logsTrain&#45;&gt;https://example.org/prostateTrain -->
<!-- PROV_GENERATION _:_ -->
<g id="edge14" class="edge">
<title>https://example.org/logsTrain&#45;&gt;https://example.org/prostateTrain</title>
<path fill="none" stroke="black" d="M598.69,-174.11C596.43,-183.21 593.61,-194.58 591.04,-204.91"/>
<polygon fill="black" stroke="black" points="587.67,-203.94 588.66,-214.49 594.47,-205.63 587.67,-203.94"/>
<text text-anchor="middle" x="609.49" y="-182.17" font-family="Times New Roman,serif" font-size="8.00">gen</text>
</g>
<!-- &#45;attrs2 -->
<g id="node6" class="node">
<title>&#45;attrs2</title>
<polygon fill="none" stroke="gray" points="1061,-101.75 441,-101.75 441,-39.75 1067,-39.75 1067,-95.75 1061,-101.75"/>
<polyline fill="none" stroke="gray" points="1061,-101.75 1061,-95.75"/>
<polyline fill="none" stroke="gray" points="1067,-95.75 1061,-95.75"/>
<text text-anchor="start" x="451" y="-86.25" font-family="Times New Roman,serif" font-size="10.00">type:</text>
<text text-anchor="start" x="478" y="-86.25" font-family="Times New Roman,serif" font-size="10.00">repr:Log</text>
<text text-anchor="start" x="451" y="-73.25" font-family="Times New Roman,serif" font-size="10.00">data:</text>
<text text-anchor="start" x="477.62" y="-73.25" font-family="Times New Roman,serif" font-size="10.00">WzIwMjQtMDEtMTYgMTY6NDA6NTYsNDQ5XVt0YXNrX2NsaV1bSU5GT10gLSBbUmVwcm9kdWNpYmlsaXR5XSBTZWVkaW5nIGV2ZXJ5...</text>
<text text-anchor="start" x="450.75" y="-60.25" font-family="Times New Roman,serif" font-size="10.00">runID:</text>
<text text-anchor="start" x="478" y="-60.25" font-family="Times New Roman,serif" font-size="10.00">6bc00f9abbd0465d865f0c1e1fa7196a</text>
<text text-anchor="start" x="451" y="-47.25" font-family="Times New Roman,serif" font-size="10.00">path:</text>
<text text-anchor="start" x="478" y="-47.25" font-family="Times New Roman,serif" font-size="10.00">logs/task.log</text>
</g>
<!-- &#45;attrs2&#45;&gt;https://example.org/logsTrain -->
<!-- null _:_ -->
<g id="edge3" class="edge">
<title>&#45;attrs2&#45;&gt;https://example.org/logsTrain</title>
<path fill="none" stroke="gray" stroke-dasharray="5,2" d="M698.63,-102.18C674.73,-115.32 647.92,-130.06 628.78,-140.58"/>
</g>
<!-- https://example.org/trainingTilesDataset&#45;&gt;http://_PLACEHOLER_:8000/api/v1/connectors/trainTrainingTilesConnector -->
<!-- PROV_SPECIALIZATION _:_ -->
<g id="edge17" class="edge">
<title>https://example.org/trainingTilesDataset&#45;&gt;http://_PLACEHOLER_:8000/api/v1/connectors/trainTrainingTilesConnector</title>
<path fill="none" stroke="black" d="M398.6,-329.29C375.4,-339.19 345.06,-352.14 319.78,-362.93"/>
<polygon fill="black" stroke="black" points="318.51,-359.67 310.68,-366.81 321.26,-366.1 318.51,-359.67"/>
<text text-anchor="middle" x="396.8" y="-341.83" font-family="Times New Roman,serif" font-size="8.00">spe</text>
</g>
<!-- &#45;attrs3 -->
<g id="node8" class="node">
<title>&#45;attrs3</title>
<polygon fill="none" stroke="gray" points="474.5,-252.25 389.5,-252.25 389.5,-216.25 480.5,-216.25 480.5,-246.25 474.5,-252.25"/>
<polyline fill="none" stroke="gray" points="474.5,-252.25 474.5,-246.25"/>
<polyline fill="none" stroke="gray" points="480.5,-246.25 474.5,-246.25"/>
<text text-anchor="start" x="399.5" y="-230.38" font-family="Times New Roman,serif" font-size="10.00">type:</text>
<text text-anchor="start" x="421.75" y="-230.38" font-family="Times New Roman,serif" font-size="10.00">repr:Dataset</text>
</g>
<!-- &#45;attrs3&#45;&gt;https://example.org/trainingTilesDataset -->
<!-- null _:_ -->
<g id="edge4" class="edge">
<title>&#45;attrs3&#45;&gt;https://example.org/trainingTilesDataset</title>
<path fill="none" stroke="gray" stroke-dasharray="5,2" d="M435,-252.61C435,-265.13 435,-281.96 435,-294.46"/>
</g>
<!-- http://_PLACEHOLER_:8000/api/v1/connectors/trainedModelConnector -->
<!-- PROV_ENTITY conn:trainedModelConnector -->
<g id="node9" class="node">
<title>http://_PLACEHOLER_:8000/api/v1/connectors/trainedModelConnector</title>
<g id="a_node9"><a xlink:href="http://_PLACEHOLER_:8000/api/v1/connectors/trainedModelConnector" xlink:title="trainedModelConnector">
<ellipse fill="#fffc87" stroke="#808080" cx="273" cy="-234.25" rx="98.97" ry="18"/>
<text text-anchor="middle" x="273" y="-228.82" font-family="Times New Roman,serif" font-size="14.00">trainedModelConnector</text>
</a>
</g>
</g>
<!-- http://_PLACEHOLER_:8000/api/v1/connectors/trainedModelConnector&#45;&gt;https://example.org/training -->
<!-- PROV_GENERATION _:_ -->
<g id="edge19" class="edge">
<title>http://_PLACEHOLER_:8000/api/v1/connectors/trainedModelConnector&#45;&gt;https://example.org/training</title>
<path fill="none" stroke="black" d="M270.73,-252.61C269.55,-261.61 268.09,-272.83 266.75,-283.08"/>
<polygon fill="black" stroke="black" points="263.28,-282.59 265.46,-292.96 270.22,-283.5 263.28,-282.59"/>
<text text-anchor="middle" x="282.64" y="-259.38" font-family="Times New Roman,serif" font-size="8.00">gen</text>
</g>
<!-- http://_PLACEHOLER_:8000/api/v1/connectors/trainedModelConnector&#45;&gt;http://_PLACEHOLER_:8000/api/v1/connectors/trainTrainingTilesConnector -->
<!-- PROV_DERIVATION _:_ -->
<g id="edge21" class="edge">
<title>http://_PLACEHOLER_:8000/api/v1/connectors/trainedModelConnector&#45;&gt;http://_PLACEHOLER_:8000/api/v1/connectors/trainTrainingTilesConnector</title>
<path fill="none" stroke="black" d="M283.22,-252.53C289.43,-264.05 296.76,-279.78 300,-294.75 303.38,-310.39 303.96,-315.25 300,-330.75 297.72,-339.65 293.61,-348.67 289.18,-356.68"/>
<polygon fill="black" stroke="black" points="286.19,-354.85 284.08,-365.23 292.21,-358.44 286.19,-354.85"/>
<text text-anchor="middle" x="298.21" y="-250.74" font-family="Times New Roman,serif" font-size="8.00">der</text>
</g>
<!-- &#45;attrs4 -->
<g id="node10" class="node">
<title>&#45;attrs4</title>
<polygon fill="none" stroke="gray" points="356.5,-173.75 183.5,-173.75 183.5,-137.75 362.5,-137.75 362.5,-167.75 356.5,-173.75"/>
<polyline fill="none" stroke="gray" points="356.5,-173.75 356.5,-167.75"/>
<polyline fill="none" stroke="gray" points="362.5,-167.75 356.5,-167.75"/>
<text text-anchor="start" x="193.5" y="-158.25" font-family="Times New Roman,serif" font-size="10.00">type:</text>
<text text-anchor="start" x="261.25" y="-158.25" font-family="Times New Roman,serif" font-size="10.00">cpm:forwardConnector</text>
<text text-anchor="start" x="193.5" y="-145.25" font-family="Times New Roman,serif" font-size="10.00">senderBundleId:</text>
<text text-anchor="start" x="261.5" y="-145.25" font-family="Times New Roman,serif" font-size="10.00">bndl:eval</text>
</g>
<!-- &#45;attrs4&#45;&gt;http://_PLACEHOLER_:8000/api/v1/connectors/trainedModelConnector -->
<!-- null _:_ -->
<g id="edge5" class="edge">
<title>&#45;attrs4&#45;&gt;http://_PLACEHOLER_:8000/api/v1/connectors/trainedModelConnector</title>
<path fill="none" stroke="gray" stroke-dasharray="5,2" d="M273,-174.11C273,-186.63 273,-203.46 273,-215.96"/>
</g>
<!-- https://example.org/configFile -->
<!-- PROV_ENTITY def:configFile -->
<g id="node11" class="node">
<title>https://example.org/configFile</title>
<g id="a_node11"><a xlink:href="https://example.org/configFile" xlink:title="configFile">
<ellipse fill="#fffc87" stroke="#808080" cx="673" cy="-384.75" rx="47.57" ry="18"/>
<text text-anchor="middle" x="673" y="-379.32" font-family="Times New Roman,serif" font-size="14.00">configFile</text>
</a>
</g>
</g>
<!-- &#45;attrs5 -->
<g id="node12" class="node">
<title>&#45;attrs5</title>
<polygon fill="none" stroke="gray" points="846,-330.75 662,-330.75 662,-294.75 852,-294.75 852,-324.75 846,-330.75"/>
<polyline fill="none" stroke="gray" points="846,-330.75 846,-324.75"/>
<polyline fill="none" stroke="gray" points="852,-324.75 846,-324.75"/>
<text text-anchor="start" x="671.75" y="-315.25" font-family="Times New Roman,serif" font-size="10.00">runID:</text>
<text text-anchor="start" x="698.88" y="-315.25" font-family="Times New Roman,serif" font-size="10.00">6bc00f9abbd0465d865f0c1e1fa7196a</text>
<text text-anchor="start" x="672" y="-302.25" font-family="Times New Roman,serif" font-size="10.00">path:</text>
<text text-anchor="start" x="699" y="-302.25" font-family="Times New Roman,serif" font-size="10.00">conf/config_resolved.yaml</text>
</g>
<!-- &#45;attrs5&#45;&gt;https://example.org/configFile -->
<!-- null _:_ -->
<g id="edge6" class="edge">
<title>&#45;attrs5&#45;&gt;https://example.org/configFile</title>
<path fill="none" stroke="gray" stroke-dasharray="5,2" d="M736.24,-331.05C722.73,-342.31 705.25,-356.88 692.09,-367.84"/>
</g>
<!-- https://example.org/configTrain&#45;&gt;https://example.org/configFile -->
<!-- PROV_DERIVATION _:_ -->
<g id="edge11" class="edge">
<title>https://example.org/configTrain&#45;&gt;https://example.org/configFile</title>
<path fill="none" stroke="black" d="M609.25,-329.99C620.01,-339.06 633.61,-350.53 645.48,-360.54"/>
<polygon fill="black" stroke="black" points="643.08,-363.1 652.98,-366.87 647.6,-357.75 643.08,-363.1"/>
<text text-anchor="middle" x="623.36" y="-322.54" font-family="Times New Roman,serif" font-size="8.00">der</text>
</g>
<!-- &#45;attrs6 -->
<g id="node14" class="node">
<title>&#45;attrs6</title>
<polygon fill="none" stroke="gray" points="1222.75,-252.25 647.25,-252.25 647.25,-216.25 1228.75,-216.25 1228.75,-246.25 1222.75,-252.25"/>
<polyline fill="none" stroke="gray" points="1222.75,-252.25 1222.75,-246.25"/>
<polyline fill="none" stroke="gray" points="1228.75,-246.25 1222.75,-246.25"/>
<text text-anchor="start" x="657.25" y="-230.38" font-family="Times New Roman,serif" font-size="10.00">data:</text>
<text text-anchor="start" x="678.75" y="-230.38" font-family="Times New Roman,serif" font-size="10.00">bWw6CiAgX3RhcmdldF86IGhpc3RvcGlwZS5tbC5IaXN0b1BpcGVNb2R1bGUKICBuZXQ6CiAgICBmZWF0dXJlczoKICAgICAgX3Rh...</text>
</g>
<!-- &#45;attrs6&#45;&gt;https://example.org/configTrain -->
<!-- null _:_ -->
<g id="edge7" class="edge">
<title>&#45;attrs6&#45;&gt;https://example.org/configTrain</title>
<path fill="none" stroke="gray" stroke-dasharray="5,2" d="M847.53,-252.75C791.36,-263.96 717.77,-279.26 653,-294.75 645.62,-296.52 637.78,-298.52 630.24,-300.52"/>
</g>
<!-- https://example.org/researchDataCentre -->
<!-- PROV_AGENT def:researchDataCentre -->
<g id="node19" class="node">
<title>https://example.org/researchDataCentre</title>
<g id="a_node19"><a xlink:href="https://example.org/researchDataCentre" xlink:title="researchDataCentre">
<polygon fill="#fdb266" stroke="black" points="467.59,-462.31 365,-474.75 262.41,-462.31 262.5,-442.19 467.5,-442.19 467.59,-462.31"/>
<text text-anchor="middle" x="365" y="-451.32" font-family="Times New Roman,serif" font-size="14.00">researchDataCentre</text>
</a>
</g>
</g>
<!-- http://_PLACEHOLER_:8000/api/v1/connectors/trainTrainingTilesConnector&#45;&gt;https://example.org/researchDataCentre -->
<!-- PROV_ATTRIBUTION _:_ -->
<g id="edge16" class="edge">
<title>http://_PLACEHOLER_:8000/api/v1/connectors/trainTrainingTilesConnector&#45;&gt;https://example.org/researchDataCentre</title>
<path fill="none" stroke="black" d="M293.75,-402.7C306.82,-412.43 323.33,-424.72 337.17,-435.03"/>
<polygon fill="black" stroke="black" points="334.92,-437.71 345.03,-440.88 339.1,-432.1 334.92,-437.71"/>
<text text-anchor="middle" x="307.53" y="-394.41" font-family="Times New Roman,serif" font-size="8.00">att</text>
</g>
<!-- &#45;attrs7 -->
<g id="node16" class="node">
<title>&#45;attrs7</title>
<polygon fill="none" stroke="gray" points="210.5,-330.75 25.5,-330.75 25.5,-294.75 216.5,-294.75 216.5,-324.75 210.5,-330.75"/>
<polyline fill="none" stroke="gray" points="210.5,-330.75 210.5,-324.75"/>
<polyline fill="none" stroke="gray" points="216.5,-324.75 210.5,-324.75"/>
<text text-anchor="start" x="35.5" y="-315.25" font-family="Times New Roman,serif" font-size="10.00">type:</text>
<text text-anchor="start" x="107.5" y="-315.25" font-family="Times New Roman,serif" font-size="10.00">cpm:backwardConnector</text>
<text text-anchor="start" x="35.25" y="-302.25" font-family="Times New Roman,serif" font-size="10.00">receiverBundleId:</text>
<text text-anchor="start" x="107.5" y="-302.25" font-family="Times New Roman,serif" font-size="10.00">bndl:preprocTrain</text>
</g>
<!-- &#45;attrs7&#45;&gt;http://_PLACEHOLER_:8000/api/v1/connectors/trainTrainingTilesConnector -->
<!-- null _:_ -->
<g id="edge8" class="edge">
<title>&#45;attrs7&#45;&gt;http://_PLACEHOLER_:8000/api/v1/connectors/trainTrainingTilesConnector</title>
<path fill="none" stroke="gray" stroke-dasharray="5,2" d="M158.46,-331.23C182.07,-342.25 212.35,-356.38 235.56,-367.21"/>
</g>
<!-- https://example.org/trainedModel -->
<!-- PROV_ENTITY def:trainedModel -->
<g id="node17" class="node">
<title>https://example.org/trainedModel</title>
<g id="a_node17"><a xlink:href="https://example.org/trainedModel" xlink:title="trainedModel">
<ellipse fill="#fffc87" stroke="#808080" cx="480" cy="-155.75" rx="59.55" ry="18"/>
<text text-anchor="middle" x="480" y="-150.32" font-family="Times New Roman,serif" font-size="14.00">trainedModel</text>
</a>
</g>
</g>
<!-- https://example.org/trainedModel&#45;&gt;https://example.org/prostateTrain -->
<!-- PROV_GENERATION _:_ -->
<g id="edge22" class="edge">
<title>https://example.org/trainedModel&#45;&gt;https://example.org/prostateTrain</title>
<path fill="none" stroke="black" d="M501.8,-172.79C516.14,-183.33 535.17,-197.33 551.31,-209.2"/>
<polygon fill="black" stroke="black" points="549.07,-211.9 559.2,-215.01 553.22,-206.26 549.07,-211.9"/>
<text text-anchor="middle" x="515.54" y="-164.42" font-family="Times New Roman,serif" font-size="8.00">gen</text>
</g>
<!-- https://example.org/trainedModel&#45;&gt;https://example.org/trainingTilesDataset -->
<!-- PROV_DERIVATION _:_ -->
<g id="edge20" class="edge">
<title>https://example.org/trainedModel&#45;&gt;https://example.org/trainingTilesDataset</title>
<path fill="none" stroke="black" d="M486.63,-174.12C493.54,-195.07 501.83,-230.91 490,-258.75 485.33,-269.73 477.15,-279.54 468.5,-287.65"/>
<polygon fill="black" stroke="black" points="466.22,-284.99 460.95,-294.18 470.8,-290.28 466.22,-284.99"/>
<text text-anchor="middle" x="501.27" y="-175.07" font-family="Times New Roman,serif" font-size="8.00">der</text>
</g>
<!-- https://example.org/trainedModel&#45;&gt;http://_PLACEHOLER_:8000/api/v1/connectors/trainedModelConnector -->
<!-- PROV_SPECIALIZATION _:_ -->
<g id="edge23" class="edge">
<title>https://example.org/trainedModel&#45;&gt;http://_PLACEHOLER_:8000/api/v1/connectors/trainedModelConnector</title>
<path fill="none" stroke="black" d="M443.47,-170.25C410.83,-182.31 362.61,-200.13 325.78,-213.74"/>
<polygon fill="black" stroke="black" points="324.82,-210.37 316.65,-217.12 327.24,-216.94 324.82,-210.37"/>
<text text-anchor="middle" x="440.94" y="-182.69" font-family="Times New Roman,serif" font-size="8.00">spe</text>
</g>
<!-- https://example.org/trainedModel&#45;&gt;https://example.org/configTrain -->
<!-- PROV_DERIVATION _:_ -->
<g id="edge18" class="edge">
<title>https://example.org/trainedModel&#45;&gt;https://example.org/configTrain</title>
<path fill="none" stroke="black" d="M486.11,-174.15C494.11,-195.43 509.55,-231.93 530,-258.75 538.34,-269.69 549.21,-280.1 559.39,-288.74"/>
<polygon fill="black" stroke="black" points="556.96,-291.28 566.92,-294.9 561.4,-285.86 556.96,-291.28"/>
<text text-anchor="middle" x="500.93" y="-174.14" font-family="Times New Roman,serif" font-size="8.00">der</text>
</g>
<!-- &#45;attrs8 -->
<g id="node18" class="node">
<title>&#45;attrs8</title>
<polygon fill="none" stroke="gray" points="417,-95.25 233,-95.25 233,-46.25 423,-46.25 423,-89.25 417,-95.25"/>
<polyline fill="none" stroke="gray" points="417,-95.25 417,-89.25"/>
<polyline fill="none" stroke="gray" points="423,-89.25 417,-89.25"/>
<text text-anchor="start" x="243" y="-79.75" font-family="Times New Roman,serif" font-size="10.00">type:</text>
<text text-anchor="start" x="270" y="-79.75" font-family="Times New Roman,serif" font-size="10.00">repr:Model</text>
<text text-anchor="start" x="242.75" y="-66.75" font-family="Times New Roman,serif" font-size="10.00">runID:</text>
<text text-anchor="start" x="269.88" y="-66.75" font-family="Times New Roman,serif" font-size="10.00">6bc00f9abbd0465d865f0c1e1fa7196a</text>
<text text-anchor="start" x="243" y="-53.75" font-family="Times New Roman,serif" font-size="10.00">path:</text>
<text text-anchor="start" x="270" y="-53.75" font-family="Times New Roman,serif" font-size="10.00">model/</text>
</g>
<!-- &#45;attrs8&#45;&gt;https://example.org/trainedModel -->
<!-- null _:_ -->
<g id="edge9" class="edge">
<title>&#45;attrs8&#45;&gt;https://example.org/trainedModel</title>
<path fill="none" stroke="gray" stroke-dasharray="5,2" d="M371.56,-95.53C397.52,-109.71 429.71,-127.29 452.25,-139.6"/>
</g>
<!-- &#45;attrs9 -->
<g id="node20" class="node">
<title>&#45;attrs9</title>
<polygon fill="none" stroke="gray" points="510.75,-402.75 403.25,-402.75 403.25,-366.75 516.75,-366.75 516.75,-396.75 510.75,-402.75"/>
<polyline fill="none" stroke="gray" points="510.75,-402.75 510.75,-396.75"/>
<polyline fill="none" stroke="gray" points="516.75,-396.75 510.75,-396.75"/>
<text text-anchor="start" x="413.25" y="-380.88" font-family="Times New Roman,serif" font-size="10.00">type:</text>
<text text-anchor="start" x="435.5" y="-380.88" font-family="Times New Roman,serif" font-size="10.00">cpm:senderAgent</text>
</g>
<!-- &#45;attrs9&#45;&gt;https://example.org/researchDataCentre -->
<!-- null _:_ -->
<g id="edge10" class="edge">
<title>&#45;attrs9&#45;&gt;https://example.org/researchDataCentre</title>
<path fill="none" stroke="gray" stroke-dasharray="5,2" d="M436.52,-403.05C420.36,-414.96 399.18,-430.57 384.07,-441.7"/>
</g>
</g>
</svg>
